<?xml version="1.0" encoding="UTF-8" standalone="no"?>
<!-- Generator: Adobe Illustrator 16.0.0, SVG Export Plug-In . SVG Version: 6.00 Build 0)  -->

<svg
   xmlns:dc="http://purl.org/dc/elements/1.1/"
   xmlns:cc="http://creativecommons.org/ns#"
   xmlns:rdf="http://www.w3.org/1999/02/22-rdf-syntax-ns#"
   xmlns:svg="http://www.w3.org/2000/svg"
   xmlns="http://www.w3.org/2000/svg"
   xmlns:sodipodi="http://sodipodi.sourceforge.net/DTD/sodipodi-0.dtd"
   xmlns:inkscape="http://www.inkscape.org/namespaces/inkscape"
   version="1.1"
   id="Layer_1"
   x="0px"
   y="0px"
   width="29.871347cm"
   height="11.829476cm"
   viewBox="0 0 1058.4335 419.15468"
   xml:space="preserve"
   inkscape:version="0.91 r"
   sodipodi:docname="google.svg"><metadata
     id="metadata3496"><rdf:RDF><cc:Work
         rdf:about=""><dc:format>image/svg+xml</dc:format><dc:type
           rdf:resource="http://purl.org/dc/dcmitype/StillImage" /><dc:title></dc:title></cc:Work></rdf:RDF></metadata><defs
     id="defs3494" /><sodipodi:namedview
     pagecolor="#ffffff"
     bordercolor="#666666"
     borderopacity="1"
     objecttolerance="10"
     gridtolerance="10"
     guidetolerance="10"
     inkscape:pageopacity="0"
     inkscape:pageshadow="2"
     inkscape:window-width="1920"
     inkscape:window-height="1026"
     id="namedview3492"
     showgrid="false"
     fit-margin-left="0"
     fit-margin-right="0"
     fit-margin-top="1"
     fit-margin-bottom="1"
     inkscape:zoom="0.73952369"
     inkscape:cx="681.27836"
     inkscape:cy="273.91998"
     inkscape:window-x="0"
     inkscape:window-y="0"
     inkscape:window-maximized="1"
     inkscape:current-layer="Layer_1"
     units="cm" /><style
     type="text/css"
     id="style3414"><![CDATA[
	.st0{fill:url(#SVGID_1_);}
	.st1{fill:url(#SVGID_3_);}
	.st2{fill:url(#SVGID_4_);}
	.st3{fill:url(#SVGID_5_);}
	.st4{fill:url(#SVGID_6_);}
	.st5{fill:#FFFFFF;}
	.st6{fill:none;}
	.st7{opacity:0.5;fill:url(#SVGID_2_);}
]]></style><g
     id="g3418"
     transform="matrix(1.2114384,0,0,1.2114384,-84.921893,-95.402274)"><path
       style="fill:#ffffff"
       inkscape:connector-curvature="0"
       id="path3420"
       d="m 356.5,313.8 c -44.6,0 -68.5,-34.9 -68.5,-66.4 0,-36.9 30,-68.4 72.7,-68.4 41.3,0 67.1,32.4 67.1,66.4 0,33.2 -25.5,68.4 -71.3,68.4 z m 35.3,-22.9 c 6.8,-8.9 8.4,-20 8.4,-30.9 0,-24.5 -11.8,-71.3 -46.6,-71.3 -9.3,0 -18.5,3.6 -25.3,9.5 -10.9,9.7 -12.9,22 -12.9,34 0,27.6 13.8,73 47.7,73 11.1,-0.1 22.3,-5.3 28.7,-14.3 z"
       class="st5" /><linearGradient
       y2="245.7211"
       x2="357.88431"
       y1="156.94189"
       x1="357.88431"
       gradientUnits="userSpaceOnUse"
       id="SVGID_1_"><stop
         id="stop3423"
         style="stop-color:#FFFFFF;stop-opacity:0.15"
         offset="0" /><stop
         id="stop3425"
         style="stop-color:#FFFFFF;stop-opacity:0"
         offset="1" /></linearGradient><path
       style="fill:url(#SVGID_1_)"
       inkscape:connector-curvature="0"
       id="path3427"
       d="m 356.5,313.8 c -44.6,0 -68.5,-34.9 -68.5,-66.4 0,-36.9 30,-68.4 72.7,-68.4 41.3,0 67.1,32.4 67.1,66.4 0,33.2 -25.5,68.4 -71.3,68.4 z m 35.3,-22.9 c 6.8,-8.9 8.4,-20 8.4,-30.9 0,-24.5 -11.8,-71.3 -46.6,-71.3 -9.3,0 -18.5,3.6 -25.3,9.5 -10.9,9.7 -12.9,22 -12.9,34 0,27.6 13.8,73 47.7,73 11.1,-0.1 22.3,-5.3 28.7,-14.3 z"
       class="st0" /></g><g
     id="g3429"
     transform="matrix(1.2114384,0,0,1.2114384,-84.921893,-95.402274)"><path
       style="fill:#ffffff"
       inkscape:connector-curvature="0"
       id="path3431"
       d="m 779.9,309.9 8.3,-8.3 -15.5,-1.9 c -3.9,-0.5 -6.8,-3.7 -6.8,-7.8 l 0,-164.5 c 0,-2 0.8,-3.9 2.2,-5.3 l 10.2,-10.2 -46.4,0 -12,12 18,0 0,170.5 c 0,2 -0.8,3.9 -2.2,5.3 l -10.2,10.2 54.4,0 z"
       class="st5" /><linearGradient
       y2="188.1362"
       x2="754.03473"
       y1="78.249001"
       x1="754.03473"
       gradientUnits="userSpaceOnUse"
       id="SVGID_2_"><stop
         id="stop3434"
         style="stop-color:#FFFFFF;stop-opacity:0.15"
         offset="0" /><stop
         id="stop3436"
         style="stop-color:#FFFFFF;stop-opacity:0"
         offset="1" /></linearGradient><path
       style="opacity:0.5;fill:url(#SVGID_2_)"
       inkscape:connector-curvature="0"
       id="path3438"
       d="m 779.9,309.9 8.3,-8.3 -15.5,-1.9 c -3.9,-0.5 -6.8,-3.7 -6.8,-7.8 l 0,-164.5 c 0,-2 0.8,-3.9 2.2,-5.3 l 10.2,-10.2 -46.4,0 -12,12 18,0 0,170.5 c 0,2 -0.8,3.9 -2.2,5.3 l -10.2,10.2 54.4,0 z"
       class="st7" /></g><g
     id="g3440"
     transform="matrix(1.2114384,0,0,1.2114384,-84.921893,-95.402274)"><path
       style="fill:#ffffff"
       inkscape:connector-curvature="0"
       id="path3442"
       d="m 874.8,299.3 c -24.9,0 -47.9,-18 -56.1,-49.9 l 86.1,-34.8 C 900.2,198 887.1,179 853.1,179 c -28,0 -62.2,21.3 -62.2,64.7 0,34.2 22.9,70.1 66.6,70.1 9.1,0 23.2,-0.6 37.7,-10.9 5.5,-3.8 10.1,-8.4 13.9,-13.5 -9.6,4.8 -19.8,9.9 -34.3,9.9 z M 848,188.5 c 15.3,0 28.1,12.7 28.1,23.9 0,3.9 -2.8,5.6 -8.2,7.6 l -51.1,20.7 c -7.9,-42.2 19.6,-52.2 31.2,-52.2 z"
       class="st5" /><linearGradient
       y2="245.7211"
       x2="850.0835"
       y1="156.94189"
       x1="850.0835"
       gradientUnits="userSpaceOnUse"
       id="SVGID_3_"><stop
         id="stop3445"
         style="stop-color:#FFFFFF;stop-opacity:0.15"
         offset="0" /><stop
         id="stop3447"
         style="stop-color:#FFFFFF;stop-opacity:0"
         offset="1" /></linearGradient><path
       style="fill:url(#SVGID_3_)"
       inkscape:connector-curvature="0"
       id="path3449"
       d="m 874.8,299.3 c -24.9,0 -47.9,-18 -56.1,-49.9 l 86.1,-34.8 C 900.2,198 887.1,179 853.1,179 c -28,0 -62.2,21.3 -62.2,64.7 0,34.2 22.9,70.1 66.6,70.1 9.1,0 23.2,-0.6 37.7,-10.9 5.5,-3.8 10.1,-8.4 13.9,-13.5 -9.6,4.8 -19.8,9.9 -34.3,9.9 z M 848,188.5 c 15.3,0 28.1,12.7 28.1,23.9 0,3.9 -2.8,5.6 -8.2,7.6 l -51.1,20.7 c -7.9,-42.2 19.6,-52.2 31.2,-52.2 z"
       class="st1" /></g><g
     id="g3451"
     transform="matrix(1.2114384,0,0,1.2114384,-84.921893,-95.402274)"><path
       style="fill:#ffffff"
       inkscape:connector-curvature="0"
       id="path3453"
       d="m 510.5,313.8 c -44.6,0 -68.5,-34.9 -68.5,-66.4 0,-36.9 30,-68.4 72.7,-68.4 41.3,0 67.1,32.4 67.1,66.4 0,33.2 -25.5,68.4 -71.3,68.4 z m 35.3,-22.9 c 6.8,-8.9 8.4,-20 8.4,-30.9 0,-24.5 -11.8,-71.3 -46.6,-71.3 -9.3,0 -18.5,3.6 -25.3,9.5 -10.9,9.7 -12.9,22 -12.9,34 0,27.6 13.8,73 47.7,73 11.1,-0.1 22.3,-5.3 28.7,-14.3 z"
       class="st5" /><linearGradient
       y2="270.09201"
       x2="511.88431"
       y1="158.0117"
       x1="511.88431"
       gradientUnits="userSpaceOnUse"
       id="SVGID_4_"><stop
         id="stop3456"
         style="stop-color:#FFFFFF;stop-opacity:0.15"
         offset="0" /><stop
         id="stop3458"
         style="stop-color:#FFFFFF;stop-opacity:0"
         offset="1" /></linearGradient><path
       style="fill:url(#SVGID_4_)"
       inkscape:connector-curvature="0"
       id="path3460"
       d="m 510.5,313.8 c -44.6,0 -68.5,-34.9 -68.5,-66.4 0,-36.9 30,-68.4 72.7,-68.4 41.3,0 67.1,32.4 67.1,66.4 0,33.2 -25.5,68.4 -71.3,68.4 z m 35.3,-22.9 c 6.8,-8.9 8.4,-20 8.4,-30.9 0,-24.5 -11.8,-71.3 -46.6,-71.3 -9.3,0 -18.5,3.6 -25.3,9.5 -10.9,9.7 -12.9,22 -12.9,34 0,27.6 13.8,73 47.7,73 11.1,-0.1 22.3,-5.3 28.7,-14.3 z"
       class="st2" /></g><g
     id="g3462"
     transform="matrix(1.2114384,0,0,1.2114384,-84.921893,-95.402274)"><path
       style="fill:#ffffff"
       inkscape:connector-curvature="0"
       id="path3464"
       d="M 693.9,301.9 683.7,294 c -3.1,-2.6 -7.5,-5.9 -7.5,-12.2 0,-6.3 4,-11.1 7.7,-13.9 12.2,-9.5 23.9,-19.6 23.9,-40.6 0,-19.1 -11.5,-30.2 -18.7,-36.5 l 15.9,0 11.9,-11.9 -58.3,0 c -40.8,0 -61.5,25.4 -61.5,53.5 0,21.8 16.5,45 46.4,45 2.4,0 8.4,0 8.4,0 -1.1,3 -2.2,6.4 -2.2,10.4 0,8.8 4.1,13.3 8.5,18.2 -12.8,0.8 -36.7,3.3 -54.2,14 -16.8,10 -21.8,24.4 -21.8,34.6 0,21 20.2,40.9 61.3,40.9 48.9,0 74.3,-27.2 74.3,-53.9 -0.1,-19.5 -11.4,-29.1 -23.9,-39.7 z m -36.1,-32.8 c -23.3,0 -36,-29 -36,-51 0,-20.9 12.4,-30.2 25.4,-30.2 25,0 37.9,32.5 37.9,52.2 -0.1,24.3 -19.6,29 -27.3,29 z m -0.4,114.1 c -30.4,0 -50,-14.5 -50,-34.7 0,-20.1 18.2,-27 24.4,-29.2 11.9,-4 27.3,-4.5 29.9,-4.5 2.8,0 4.2,0 6.5,0.2 21.6,15.4 31,23 31,37.5 -0.1,16.2 -14.6,30.7 -41.8,30.7 z"
       class="st5" /><radialGradient
       gradientUnits="userSpaceOnUse"
       r="202.5127"
       cy="197.2798"
       cx="610.21143"
       id="SVGID_5_"><stop
         id="stop3467"
         style="stop-color:#FFFFFF;stop-opacity:8.000000e-02"
         offset="0" /><stop
         id="stop3469"
         style="stop-color:#FFFFFF;stop-opacity:0"
         offset="1" /></radialGradient><path
       style="fill:url(#SVGID_5_)"
       inkscape:connector-curvature="0"
       id="path3471"
       d="M 693.9,301.9 683.7,294 c -3.1,-2.6 -7.5,-5.9 -7.5,-12.2 0,-6.3 4,-11.1 7.7,-13.9 12.2,-9.5 23.9,-19.6 23.9,-40.6 0,-19.1 -11.5,-30.2 -18.7,-36.5 l 15.9,0 11.9,-11.9 -58.3,0 c -40.8,0 -61.5,25.4 -61.5,53.5 0,21.8 16.5,45 46.4,45 2.4,0 8.4,0 8.4,0 -1.1,3 -2.2,6.4 -2.2,10.4 0,8.8 4.1,13.3 8.5,18.2 -12.8,0.8 -36.7,3.3 -54.2,14 -16.8,10 -21.8,24.4 -21.8,34.6 0,21 20.2,40.9 61.3,40.9 48.9,0 74.3,-27.2 74.3,-53.9 -0.1,-19.5 -11.4,-29.1 -23.9,-39.7 z m -36.1,-32.8 c -23.3,0 -36,-29 -36,-51 0,-20.9 12.4,-30.2 25.4,-30.2 25,0 37.9,32.5 37.9,52.2 -0.1,24.3 -19.6,29 -27.3,29 z m -0.4,114.1 c -30.4,0 -50,-14.5 -50,-34.7 0,-20.1 18.2,-27 24.4,-29.2 11.9,-4 27.3,-4.5 29.9,-4.5 2.8,0 4.2,0 6.5,0.2 21.6,15.4 31,23 31,37.5 -0.1,16.2 -14.6,30.7 -41.8,30.7 z"
       class="st3" /></g><g
     id="g3473"
     transform="matrix(1.2114384,0,0,1.2114384,-84.921893,-95.402274)"><path
       style="fill:#ffffff"
       inkscape:connector-curvature="0"
       id="path3475"
       d="m 211.9,235.9 -12,12 36,0 0,50.6 c -8.3,2.7 -21.5,5.6 -41.7,5.6 -54.3,0 -93.6,-47.9 -93.6,-101.6 0,-49 32.2,-83.4 76.5,-83.4 25.7,0 43.6,8.3 58.8,22.8 l 0,16.5 27.4,-27.4 c -6.3,-4.3 -17.4,-11.6 -37,-17.4 -12.7,-3.7 -27.6,-5.6 -43,-5.6 -74.2,0 -113.2,54.5 -113.2,102.4 0,68.8 50.3,106.1 108.5,106.1 40.3,0 71.9,-9.1 85.3,-12.8 l 0,-52.5 c 0,-2 0.8,-3.9 2.2,-5.3 l 10.2,-10.2 -64.4,0 z"
       class="st5" /><radialGradient
       gradientUnits="userSpaceOnUse"
       r="225.5753"
       cy="125.7422"
       cx="112.8564"
       id="SVGID_6_"><stop
         id="stop3478"
         style="stop-color:#FFFFFF;stop-opacity:8.000000e-02"
         offset="0" /><stop
         id="stop3480"
         style="stop-color:#FFFFFF;stop-opacity:0"
         offset="1" /></radialGradient><path
       style="fill:url(#SVGID_6_)"
       inkscape:connector-curvature="0"
       id="path3482"
       d="m 211.9,235.9 -12,12 36,0 0,50.6 c -8.3,2.7 -21.5,5.6 -41.7,5.6 -54.3,0 -93.6,-47.9 -93.6,-101.6 0,-49 32.2,-83.4 76.5,-83.4 25.7,0 43.6,8.3 58.8,22.8 l 0,16.5 27.4,-27.4 c -6.3,-4.3 -17.4,-11.6 -37,-17.4 -12.7,-3.7 -27.6,-5.6 -43,-5.6 -74.2,0 -113.2,54.5 -113.2,102.4 0,68.8 50.3,106.1 108.5,106.1 40.3,0 71.9,-9.1 85.3,-12.8 l 0,-52.5 c 0,-2 0.8,-3.9 2.2,-5.3 l 10.2,-10.2 -64.4,0 z"
       class="st4" /></g><g
     id="g3484"
     transform="matrix(1.2114384,0,0,1.2114384,-84.921893,-95.402274)"><g
       id="g3486"><path
         style="fill:#ffffff"
         inkscape:connector-curvature="0"
         id="path3488"
         d="m 909.9,180.9 6,0 0,16 2,0 0,-16 6,0 0,-2 -14,0 0,2 z m 31.2,-2 -6.2,15.2 -6.2,-15.2 -2.8,0 0,18 2,0 0,-15 6.2,15 1.5,0 6.2,-15 0,15 2,0 0,-18 -2.7,0 z"
         class="st5" /></g></g></svg>