<?xml version="1.0" encoding="utf-8"?>
<!-- Generator: Adobe Illustrator 16.0.0, SVG Export Plug-In . SVG Version: 6.00 Build 0)  -->
<!DOCTYPE svg PUBLIC "-//W3C//DTD SVG 1.1//EN" "http://www.w3.org/Graphics/SVG/1.1/DTD/svg11.dtd">
<svg version="1.1" id="Layer_1" xmlns="http://www.w3.org/2000/svg" xmlns:xlink="http://www.w3.org/1999/xlink" x="0px" y="0px"
	 width="993px" height="499.5px" viewBox="0 0 993 499.5" style="enable-background:new 0 0 993 499.5;" xml:space="preserve">
<style type="text/css">
<![CDATA[
	.st0{fill:url(#SVGID_1_);}
	.st1{fill:url(#SVGID_3_);}
	.st2{fill:url(#SVGID_4_);}
	.st3{fill:url(#SVGID_5_);}
	.st4{fill:url(#SVGID_6_);}
	.st5{fill:#FFFFFF;}
	.st6{fill:none;}
	.st7{opacity:0.5;fill:url(#SVGID_2_);}
]]>
</style>
<g>
	<g>
		<path class="st5" d="M356.5,313.8c-44.6,0-68.5-34.9-68.5-66.4c0-36.9,30-68.4,72.7-68.4c41.3,0,67.1,32.4,67.1,66.4
			C427.8,278.6,402.3,313.8,356.5,313.8z M391.8,290.9c6.8-8.9,8.4-20,8.4-30.9c0-24.5-11.8-71.3-46.6-71.3
			c-9.3,0-18.5,3.6-25.3,9.5c-10.9,9.7-12.9,22-12.9,34c0,27.6,13.8,73,47.7,73C374.2,305.1,385.4,299.9,391.8,290.9z"/>
		<linearGradient id="SVGID_1_" gradientUnits="userSpaceOnUse" x1="357.8843" y1="156.9419" x2="357.8843" y2="245.7211">
			<stop  offset="0" style="stop-color:#FFFFFF;stop-opacity:0.15"/>
			<stop  offset="1" style="stop-color:#FFFFFF;stop-opacity:0"/>
		</linearGradient>
		<path class="st0" d="M356.5,313.8c-44.6,0-68.5-34.9-68.5-66.4c0-36.9,30-68.4,72.7-68.4c41.3,0,67.1,32.4,67.1,66.4
			C427.8,278.6,402.3,313.8,356.5,313.8z M391.8,290.9c6.8-8.9,8.4-20,8.4-30.9c0-24.5-11.8-71.3-46.6-71.3
			c-9.3,0-18.5,3.6-25.3,9.5c-10.9,9.7-12.9,22-12.9,34c0,27.6,13.8,73,47.7,73C374.2,305.1,385.4,299.9,391.8,290.9z"/>
	</g>
	<g>
		<path class="st5" d="M779.9,309.9l8.3-8.3l-15.5-1.9c-3.9-0.5-6.8-3.7-6.8-7.8V127.4c0-2,0.8-3.9,2.2-5.3l10.2-10.2h-46.4l-12,12
			h18v170.5c0,2-0.8,3.9-2.2,5.3l-10.2,10.2H779.9z"/>
		<linearGradient id="SVGID_2_" gradientUnits="userSpaceOnUse" x1="754.0347" y1="78.249" x2="754.0347" y2="188.1362">
			<stop  offset="0" style="stop-color:#FFFFFF;stop-opacity:0.15"/>
			<stop  offset="1" style="stop-color:#FFFFFF;stop-opacity:0"/>
		</linearGradient>
		<path class="st7" d="M779.9,309.9l8.3-8.3l-15.5-1.9c-3.9-0.5-6.8-3.7-6.8-7.8V127.4c0-2,0.8-3.9,2.2-5.3l10.2-10.2h-46.4l-12,12
			h18v170.5c0,2-0.8,3.9-2.2,5.3l-10.2,10.2H779.9z"/>
	</g>
	<g>
		<path class="st5" d="M874.8,299.3c-24.9,0-47.9-18-56.1-49.9l86.1-34.8c-4.6-16.6-17.7-35.6-51.7-35.6c-28,0-62.2,21.3-62.2,64.7
			c0,34.2,22.9,70.1,66.6,70.1c9.1,0,23.2-0.6,37.7-10.9c5.5-3.8,10.1-8.4,13.9-13.5C899.5,294.2,889.3,299.3,874.8,299.3z
			 M848,188.5c15.3,0,28.1,12.7,28.1,23.9c0,3.9-2.8,5.6-8.2,7.6l-51.1,20.7C808.9,198.5,836.4,188.5,848,188.5z"/>
		<linearGradient id="SVGID_3_" gradientUnits="userSpaceOnUse" x1="850.0835" y1="156.9419" x2="850.0835" y2="245.7211">
			<stop  offset="0" style="stop-color:#FFFFFF;stop-opacity:0.15"/>
			<stop  offset="1" style="stop-color:#FFFFFF;stop-opacity:0"/>
		</linearGradient>
		<path class="st1" d="M874.8,299.3c-24.9,0-47.9-18-56.1-49.9l86.1-34.8c-4.6-16.6-17.7-35.6-51.7-35.6c-28,0-62.2,21.3-62.2,64.7
			c0,34.2,22.9,70.1,66.6,70.1c9.1,0,23.2-0.6,37.7-10.9c5.5-3.8,10.1-8.4,13.9-13.5C899.5,294.2,889.3,299.3,874.8,299.3z
			 M848,188.5c15.3,0,28.1,12.7,28.1,23.9c0,3.9-2.8,5.6-8.2,7.6l-51.1,20.7C808.9,198.5,836.4,188.5,848,188.5z"/>
	</g>
	<g>
		<path class="st5" d="M510.5,313.8c-44.6,0-68.5-34.9-68.5-66.4c0-36.9,30-68.4,72.7-68.4c41.3,0,67.1,32.4,67.1,66.4
			C581.8,278.6,556.3,313.8,510.5,313.8z M545.8,290.9c6.8-8.9,8.4-20,8.4-30.9c0-24.5-11.8-71.3-46.6-71.3
			c-9.3,0-18.5,3.6-25.3,9.5c-10.9,9.7-12.9,22-12.9,34c0,27.6,13.8,73,47.7,73C528.2,305.1,539.4,299.9,545.8,290.9z"/>
		<linearGradient id="SVGID_4_" gradientUnits="userSpaceOnUse" x1="511.8843" y1="158.0117" x2="511.8843" y2="270.092">
			<stop  offset="0" style="stop-color:#FFFFFF;stop-opacity:0.15"/>
			<stop  offset="1" style="stop-color:#FFFFFF;stop-opacity:0"/>
		</linearGradient>
		<path class="st2" d="M510.5,313.8c-44.6,0-68.5-34.9-68.5-66.4c0-36.9,30-68.4,72.7-68.4c41.3,0,67.1,32.4,67.1,66.4
			C581.8,278.6,556.3,313.8,510.5,313.8z M545.8,290.9c6.8-8.9,8.4-20,8.4-30.9c0-24.5-11.8-71.3-46.6-71.3
			c-9.3,0-18.5,3.6-25.3,9.5c-10.9,9.7-12.9,22-12.9,34c0,27.6,13.8,73,47.7,73C528.2,305.1,539.4,299.9,545.8,290.9z"/>
	</g>
	<g>
		<path class="st5" d="M693.9,301.9l-10.2-7.9c-3.1-2.6-7.5-5.9-7.5-12.2c0-6.3,4-11.1,7.7-13.9c12.2-9.5,23.9-19.6,23.9-40.6
			c0-19.1-11.5-30.2-18.7-36.5H705l11.9-11.9h-58.3c-40.8,0-61.5,25.4-61.5,53.5c0,21.8,16.5,45,46.4,45c2.4,0,8.4,0,8.4,0
			c-1.1,3-2.2,6.4-2.2,10.4c0,8.8,4.1,13.3,8.5,18.2c-12.8,0.8-36.7,3.3-54.2,14c-16.8,10-21.8,24.4-21.8,34.6
			c0,21,20.2,40.9,61.3,40.9c48.9,0,74.3-27.2,74.3-53.9C717.7,322.1,706.4,312.5,693.9,301.9z M657.8,269.1c-23.3,0-36-29-36-51
			c0-20.9,12.4-30.2,25.4-30.2c25,0,37.9,32.5,37.9,52.2C685,264.4,665.5,269.1,657.8,269.1z M657.4,383.2c-30.4,0-50-14.5-50-34.7
			c0-20.1,18.2-27,24.4-29.2c11.9-4,27.3-4.5,29.9-4.5c2.8,0,4.2,0,6.5,0.2c21.6,15.4,31,23,31,37.5
			C699.1,368.7,684.6,383.2,657.4,383.2z"/>
		<radialGradient id="SVGID_5_" cx="610.2114" cy="197.2798" r="202.5127" gradientUnits="userSpaceOnUse">
			<stop  offset="0" style="stop-color:#FFFFFF;stop-opacity:8.000000e-02"/>
			<stop  offset="1" style="stop-color:#FFFFFF;stop-opacity:0"/>
		</radialGradient>
		<path class="st3" d="M693.9,301.9l-10.2-7.9c-3.1-2.6-7.5-5.9-7.5-12.2c0-6.3,4-11.1,7.7-13.9c12.2-9.5,23.9-19.6,23.9-40.6
			c0-19.1-11.5-30.2-18.7-36.5H705l11.9-11.9h-58.3c-40.8,0-61.5,25.4-61.5,53.5c0,21.8,16.5,45,46.4,45c2.4,0,8.4,0,8.4,0
			c-1.1,3-2.2,6.4-2.2,10.4c0,8.8,4.1,13.3,8.5,18.2c-12.8,0.8-36.7,3.3-54.2,14c-16.8,10-21.8,24.4-21.8,34.6
			c0,21,20.2,40.9,61.3,40.9c48.9,0,74.3-27.2,74.3-53.9C717.7,322.1,706.4,312.5,693.9,301.9z M657.8,269.1c-23.3,0-36-29-36-51
			c0-20.9,12.4-30.2,25.4-30.2c25,0,37.9,32.5,37.9,52.2C685,264.4,665.5,269.1,657.8,269.1z M657.4,383.2c-30.4,0-50-14.5-50-34.7
			c0-20.1,18.2-27,24.4-29.2c11.9-4,27.3-4.5,29.9-4.5c2.8,0,4.2,0,6.5,0.2c21.6,15.4,31,23,31,37.5
			C699.1,368.7,684.6,383.2,657.4,383.2z"/>
	</g>
	<g>
		<path class="st5" d="M211.9,235.9l-12,12h36v50.6c-8.3,2.7-21.5,5.6-41.7,5.6c-54.3,0-93.6-47.9-93.6-101.6
			c0-49,32.2-83.4,76.5-83.4c25.7,0,43.6,8.3,58.8,22.8v16.5l27.4-27.4c-6.3-4.3-17.4-11.6-37-17.4c-12.7-3.7-27.6-5.6-43-5.6
			c-74.2,0-113.2,54.5-113.2,102.4c0,68.8,50.3,106.1,108.5,106.1c40.3,0,71.9-9.1,85.3-12.8v-52.5c0-2,0.8-3.9,2.2-5.3l10.2-10.2
			H211.9z"/>
		<radialGradient id="SVGID_6_" cx="112.8564" cy="125.7422" r="225.5753" gradientUnits="userSpaceOnUse">
			<stop  offset="0" style="stop-color:#FFFFFF;stop-opacity:8.000000e-02"/>
			<stop  offset="1" style="stop-color:#FFFFFF;stop-opacity:0"/>
		</radialGradient>
		<path class="st4" d="M211.9,235.9l-12,12h36v50.6c-8.3,2.7-21.5,5.6-41.7,5.6c-54.3,0-93.6-47.9-93.6-101.6
			c0-49,32.2-83.4,76.5-83.4c25.7,0,43.6,8.3,58.8,22.8v16.5l27.4-27.4c-6.3-4.3-17.4-11.6-37-17.4c-12.7-3.7-27.6-5.6-43-5.6
			c-74.2,0-113.2,54.5-113.2,102.4c0,68.8,50.3,106.1,108.5,106.1c40.3,0,71.9-9.1,85.3-12.8v-52.5c0-2,0.8-3.9,2.2-5.3l10.2-10.2
			H211.9z"/>
	</g>
	<g>
		<g>
			<path class="st5" d="M909.9,180.9h6v16h2v-16h6v-2h-14V180.9z M941.1,178.9l-6.2,15.2l-6.2-15.2h-2.8v18h2v-15l6.2,15h1.5l6.2-15
				v15h2v-18H941.1z"/>
		</g>
	</g>
	<rect x="-60.1" y="-23.1" class="st6" width="1100" height="530"/>
</g>
</svg>
