<?xml version="1.0" encoding="utf-8"?>
<!-- Generator: Adobe Illustrator 16.0.0, SVG Export Plug-In . SVG Version: 6.00 Build 0)  -->
<!DOCTYPE svg PUBLIC "-//W3C//DTD SVG 1.1//EN" "http://www.w3.org/Graphics/SVG/1.1/DTD/svg11.dtd">
<svg version="1.1" id="Layer_1" xmlns="http://www.w3.org/2000/svg" xmlns:xlink="http://www.w3.org/1999/xlink" x="0px" y="0px"
	 width="354px" height="135px" viewBox="0 0 354 135" style="enable-background:new 0 0 354 135;" xml:space="preserve">
<style type="text/css">
<![CDATA[
	.st0{fill:#4D4D4F;}
]]>
</style>
<g>
	<path class="st0" d="M190,120.3c-10.9-0.8-17.5-1.5-16.8-26V29.9c0-7.6,4.3-8.6,11.1-8.6H212v-8.2h-97.8v8.2h27.9
		c6.8,0,11.2,1.1,11.2,8.6v64.6c0,32.7,22.2,30.6,36.6,30.2V120.3 M306.1,102.6c-7.9,8.9-19.2,15.3-31.3,14.5
		c-27.8-1.7-32.4-25.8-32.4-49.1c0-21,2.8-49.6,30.4-49.9c11.2-0.1,28.6,3,30.2,19.6h4.3V13.1c-11.5,0-27.7,0-34,0
		c-33.6,0-53.2,17.1-53.2,58.9c0,31.1,21.2,52.7,47.7,53c16.6,0.1,31.9-6.5,42-19.1L306.1,102.6 M68.7,89.8
		c21.4,0,37.6-17.2,37.6-37.9c0-22-11.2-38.8-38.6-38.8H14.6v4.8c10,0,12.2,2.7,12.2,10.5c0,4,0,96.3,0,96.3h19.9V47
		c0-7-0.3-14.9,2.9-21.4c3-6.4,8.9-8,16-7.2C82.1,20,85.9,35.8,85.9,51.2c0,15.2-2.2,32.5-20.5,32.5c-4.2,0-7.9-0.8-11.1-2.7
		l-2.5,3.6C56.7,88.1,61.3,89.8,68.7,89.8"/>
	<g>
		<path class="st0" d="M341.8,16.8c-2.4-2.4-5.3-3.6-8.7-3.6c-3.4,0-6.3,1.2-8.6,3.6c-2.4,2.4-3.6,5.3-3.6,8.7
			c0,3.4,1.2,6.3,3.6,8.7c2.4,2.4,5.3,3.6,8.7,3.6c3.4,0,6.3-1.2,8.7-3.6c2.4-2.4,3.6-5.3,3.6-8.7C345.4,22.1,344.2,19.2,341.8,16.8
			z M340.7,33c-2.1,2.1-4.6,3.1-7.5,3.1c-2.9,0-5.5-1-7.5-3.1c-2.1-2.1-3.1-4.6-3.1-7.5c0-2.9,1-5.4,3.1-7.5
			c2.1-2.1,4.6-3.1,7.5-3.1c2.9,0,5.4,1,7.5,3.1c2.1,2.1,3.1,4.6,3.1,7.5C343.8,28.4,342.7,30.9,340.7,33z"/>
		<path class="st0" d="M338.1,31.7c0-0.4,0-0.7,0-1.1v-1c0-0.7-0.3-1.5-0.8-2.3c-0.5-0.8-1.3-1.2-2.4-1.4c0.9-0.1,1.6-0.4,2.1-0.7
			c0.9-0.6,1.4-1.5,1.4-2.8c0-1.8-0.7-3-2.2-3.6c-0.8-0.3-2.2-0.5-3.9-0.5h-3.7v14.3h2.5V27h0.6c1.4,0,2.3,0.2,2.8,0.5
			c0.9,0.5,1.4,1.6,1.4,3.3v1.1l0,0.5c0,0,0,0.1,0,0.2c0,0,0,0.1,0,0.1h2.4l-0.1-0.2C338.2,32.3,338.1,32.1,338.1,31.7z M334.4,24.9
			c-0.5,0.2-1.4,0.3-2.5,0.3H331v-5.1h0.8c1.4,0,2.5,0.2,3.1,0.5c0.7,0.4,1,1,1,2C335.9,23.8,335.4,24.5,334.4,24.9z"/>
	</g>
</g>
</svg>
