<?xml version="1.0" encoding="utf-8"?>
<!-- Generator: Adobe Illustrator 16.0.0, SVG Export Plug-In . SVG Version: 6.00 Build 0)  -->
<!DOCTYPE svg PUBLIC "-//W3C//DTD SVG 1.1//EN" "http://www.w3.org/Graphics/SVG/1.1/DTD/svg11.dtd">
<svg version="1.1" id="Layer_1" xmlns="http://www.w3.org/2000/svg" xmlns:xlink="http://www.w3.org/1999/xlink" x="0px" y="0px"
	 width="787px" height="195px" viewBox="0 0 787 195" style="enable-background:new 0 0 787 195;" xml:space="preserve">
<style type="text/css">
<![CDATA[
	.st0{fill:#E21D38;}
]]>
</style>
<path class="st0" d="M178.7,120.1h-9.4v-19.4h9.4V120.1z M626.3,122.7h-8.9V70.9h8.9V122.7z M526,87.6h-8.9V70.9h8.9V87.6z
	 M371.2,80.4V55.7h-14.4V30h-42.5v25.7h-33.5L268,101l-12.4-45.3h-41.1l32.6,85.8l-11.9,32.2H277l37.2-97.5V142h42.7V80.4H371.2z
	 M769.8,142V78.3c0-7.2-3-13.4-9-18.5c-5.8-4.9-12.1-7.3-19.1-7.2c-11.7,0.1-20.3,3.3-25.9,9.3l-0.2-8.1h-40.7v88.1h42.2V80.4h8.8
	V142H769.8z M220,142V85.3c0-11.2-4.4-19.8-13.1-26c-8.1-5.8-18.4-8.6-31.2-8.5c-14.9,0.1-26.6,3.2-35.1,8.9
	c-7.3,4.9-10.9,10.8-10.9,17.8v3.9h40V70.9h8.9v16.4l-20.4,0.4c-21,0.4-31.6,8.8-31.8,24.9c-0.3,20.4,9,30.6,27.9,30.6
	c11.3,0,20-4.2,25.9-12.6l0.2,11.4H220z M570.4,97c-0.3-14.8-3.4-25.7-9.3-32.6c-7.6-9.1-20.7-13.5-39.4-13.5
	c-15.8,0-27.2,2.3-34.1,7c-9.9,6.8-14.8,19.8-14.8,39.1c0,18.8,5.2,31.8,15.5,38.8c7,4.9,18.1,7.3,33.2,7.5
	c14.5,0.1,25.6-2.2,33.2-7.2c6.7-4.4,11.5-11.5,14.1-21c0.4-1.9,0.7-3.5,0.9-4.9h-43.5v12.5h-9.1v-20.5h53
	C570.3,100.3,570.4,98.5,570.4,97 M670.6,97c0-19.1-4.9-31.9-14.7-38.8c-6.8-4.8-18.1-7.3-34.1-7.3c-15.9,0-27.3,2.4-34.1,7.2
	c-9.6,6.9-14.5,19.8-14.5,38.9c0,19.4,4.9,32.3,14.5,39.1c6.8,4.7,18.1,7.2,34.1,7.2c15.8,0,27.2-2.3,34.1-7.2
	C665.7,129.2,670.6,116.1,670.6,97 M122.9,59.9c0.3-8.3-2.5-15.4-7.6-21.1C110,32.9,102.9,30,93.8,30H23v112h44.8v-41.7h9.9V142h45
	v-35.4c0-6.3-1.2-10.9-3.6-13.9c-3.4-4.3-7-7-10.6-8.3c4.9-2.9,8.3-5.7,10.2-8.6C121.2,72,122.6,66.6,122.9,59.9 M470.1,142V76.3
	c0-6.8-2.6-12.4-7.6-17c-5-4.5-11.1-6.8-18.1-6.8c-5,0-10.1,0.9-15.1,2.6c-5,1.7-8.8,3.9-11.2,6.3V30h-42.8v112h42.8V80.4h8.9V142
	H470.1z M77.9,75.8h-9.8V51.4h9.8L77.9,75.8L77.9,75.8z"/>
</svg>
