<?xml version="1.0" encoding="utf-8"?>
<!-- Generator: Adobe Illustrator 16.0.0, SVG Export Plug-In . SVG Version: 6.00 Build 0)  -->
<!DOCTYPE svg PUBLIC "-//W3C//DTD SVG 1.1//EN" "http://www.w3.org/Graphics/SVG/1.1/DTD/svg11.dtd">
<svg version="1.1" id="Layer_1" xmlns="http://www.w3.org/2000/svg" xmlns:xlink="http://www.w3.org/1999/xlink" x="0px" y="0px"
	 width="577px" height="157px" viewBox="0 0 577 157" enable-background="new 0 0 577 157" xml:space="preserve">
<g>
	<defs>
		<rect id="SVGID_1_" y="-25" width="612" height="216"/>
	</defs>
	<clipPath id="SVGID_2_">
		<use xlink:href="#SVGID_1_"  overflow="visible"/>
	</clipPath>
	<path clip-path="url(#SVGID_2_)" d="M558.508,38.812c0,2.388,1.91,4.203,4.298,4.203c2.389,0,4.298-1.815,4.298-4.203
		c0-2.387-1.909-4.25-4.298-4.25C560.418,34.562,558.508,36.425,558.508,38.812 M552.157,32.986
		c-2.866,4.585-6.591,7.211-9.981,7.211c-5.062,0-7.498-4.536-7.498-14.183c0-8.978,2.961-14.518,7.736-14.518
		c3.582,0,7.021,3.152,8.835,8.118h0.908V9.061h-0.956c-0.716,1.624-1.337,2.149-2.387,2.149c-0.526,0-0.908-0.095-1.911-0.525
		c-2.723-1.098-4.394-1.48-6.925-1.48c-9.407,0-16.189,7.306-16.189,17.335c0,9.599,6.591,16.189,16.142,16.189
		c4.585,0,9.121-2.387,12.227-6.494V32.986z M508.842,38.812c0,2.388,1.91,4.203,4.298,4.203c2.389,0,4.298-1.815,4.298-4.203
		c0-2.387-1.909-4.25-4.298-4.25C510.752,34.562,508.842,36.425,508.842,38.812 M495.802,11.544c1.624,0,1.72,0,2.531,0.191
		c2.149,0.477,3.295,2.865,3.295,6.686c0,2.913-0.525,4.775-1.576,5.921c-0.811,0.812-1.861,1.099-4.25,1.099V11.544z
		 M499.527,27.399c2.961,0,4.967-0.287,6.925-1.051c3.295-1.242,5.396-4.346,5.396-7.88c0-2.388-0.858-4.393-2.482-6.017
		c-2.197-2.101-4.823-2.818-10.221-2.818h-17.383v1.051h0.478c1.958,0,2.77,0.287,3.343,1.051c0.43,0.573,0.526,1.194,0.526,2.865
		v22.732c0,1.671-0.097,2.34-0.526,2.865c-0.525,0.717-1.385,1.051-2.722,1.051h-1.099v1.051h18.959v-1.051h-1.671
		c-1.338,0-2.197-0.334-2.723-1.051c-0.429-0.525-0.525-1.194-0.525-2.865v-9.933H499.527z M462.708,51.659
		c5.157-1.672,8.453-5.731,8.453-10.459c0-3.677-2.437-6.686-5.445-6.686c-2.435,0-4.489,2.054-4.489,4.442
		c0,2.244,1.673,4.011,3.726,4.011c1.099,0,1.814-0.382,2.531-1.194c0.19,0.43,0.286,0.669,0.286,1.242
		c0,3.009-2.101,5.874-5.539,7.593L462.708,51.659z M443.319,28.927c0.144-5.588,0.907-7.641,2.865-7.641
		c0.859,0,1.48,0.43,1.814,1.289c0.478,1.194,0.621,2.627,0.621,6.352H443.319z M455.02,35.708
		c-1.575,2.627-3.151,3.725-5.301,3.725c-3.725,0-6.018-3.104-6.256-8.548h12.607c-0.096-2.627-0.191-3.343-0.765-5.11
		c-1.241-3.868-4.775-6.447-9.025-6.447c-6.16,0-10.603,5.11-10.603,12.225c0,7.116,3.916,11.51,10.077,11.51
		c4.871,0,8.214-2.197,10.315-6.782L455.02,35.708z M432.145,36.854c-1.623,1.672-3.009,2.484-4.489,2.484
		c-3.678,0-6.542-4.776-6.542-10.793c0-4.25,1.527-7.259,3.677-7.259c1.194,0,1.767,0.621,1.863,2.149
		c0.19,2.244,0.286,2.674,0.858,3.534c0.479,0.859,1.481,1.385,2.531,1.385c1.576,0,2.818-1.337,2.818-3.057
		c0-3.39-3.726-5.969-8.597-5.969c-6.543,0-10.889,4.871-10.889,12.225c0,7.259,3.869,11.51,10.363,11.51
		c4.012,0,7.307-1.958,9.36-5.635L432.145,36.854z M399.862,12.5c0,2.388,1.91,4.298,4.298,4.298s4.298-1.91,4.298-4.298
		c0-2.388-1.91-4.298-4.298-4.298S399.862,10.111,399.862,12.5 M397.76,19.949V21c1.003,0.144,1.529,0.335,2.006,0.717
		c0.431,0.334,0.526,0.621,0.526,1.958v14.088c0,2.817-0.335,3.486-1.767,3.486h-0.621v1.051h12.56v-1.051h-0.43
		c-1.481,0-1.815-0.669-1.815-3.486V19.949H397.76z M394.418,19.949h-3.534v-6.4c0-1.958,0.334-2.578,1.385-2.578
		c0.621,0,1.099,0.382,1.099,0.955c0,0.191-0.048,0.286-0.144,0.573c-0.096,0.286-0.096,0.477-0.096,0.764
		c0,1.146,1.003,1.91,2.579,1.91c1.91,0,3.248-1.003,3.248-2.531c0-2.197-2.531-3.582-6.495-3.582c-6.256,0-9.504,2.961-9.504,8.692
		v2.197h-2.961v2.674h2.961v15.187c0,1.337-0.047,1.767-0.191,2.244c-0.286,0.812-0.955,1.194-2.148,1.194h-0.621v1.051h14.041
		v-1.051h-0.717c-0.812,0-1.241-0.143-1.671-0.43c-0.621-0.43-0.765-0.955-0.765-3.008V22.624h3.534V19.949z M376.08,19.949h-3.534
		v-6.4c0-1.958,0.334-2.578,1.385-2.578c0.62,0,1.099,0.382,1.099,0.955c0,0.191-0.048,0.286-0.144,0.573
		c-0.096,0.286-0.096,0.477-0.096,0.764c0,1.146,1.003,1.91,2.579,1.91c1.91,0,3.247-1.003,3.247-2.531
		c0-2.197-2.531-3.582-6.494-3.582c-6.256,0-9.504,2.961-9.504,8.692v2.197h-2.961v2.674h2.961v15.187
		c0,1.337-0.048,1.767-0.191,2.244c-0.286,0.812-0.955,1.194-2.148,1.194h-0.621v1.051h14.041v-1.051h-0.717
		c-0.812,0-1.241-0.143-1.672-0.43c-0.62-0.43-0.764-0.955-0.764-3.008V22.624h3.534V19.949z M347.14,26.014
		c0,9.408-2.436,14.613-6.829,14.613c-4.536,0-6.925-5.11-6.925-15.234c0-8.835,2.627-14.04,6.925-14.04
		c4.299,0,6.687,4.918,6.829,14.04V26.014z M358.172,25.728c0-5.11-2.102-9.742-5.779-12.703c-3.199-2.627-7.02-3.773-12.082-3.773
		c-5.109,0-8.931,1.146-12.083,3.773c-3.725,3.009-5.729,7.593-5.729,12.703c0,5.54,1.958,10.22,5.729,13.324
		c3.105,2.579,6.782,3.677,12.083,3.677c5.254,0,8.931-1.05,12.082-3.677C356.118,35.995,358.172,31.267,358.172,25.728
		 M305.115,19.949V21c1.098,0.096,1.576,0.43,1.576,1.194c0,0.239-0.097,0.764-0.239,1.099l-2.436,7.641l-2.483-8.071
		c-0.143-0.334-0.191-0.669-0.191-0.955c0-0.573,0.382-0.86,1.289-0.908h0.239v-1.05h-11.461V21
		c0.955,0.096,1.289,0.526,1.719,2.293l-2.579,8.261l-2.149-7.927c-0.096-0.334-0.143-0.812-0.143-1.194
		c0-0.907,0.477-1.385,1.337-1.433v-1.05h-11.987V21c1.624,0,1.91,0.287,2.579,2.293l6.256,19.436h2.006l5.635-16.81l5.826,16.81
		h1.911l6.256-18.863c0.716-2.197,1.098-2.675,2.196-2.866v-1.05H305.115z M266.433,37.333c-0.908,0.907-1.672,1.337-2.34,1.337
		c-1.242,0-1.958-0.955-1.958-2.483c0-2.197,1.575-4.203,4.393-5.492L266.433,37.333z M261.036,23.053
		c0-0.955,1.29-1.767,2.818-1.767c1.91,0,2.77,0.955,2.77,3.2l-0.144,4.202c-8.023,2.292-12.082,5.397-12.082,9.313
		c0,2.769,2.101,4.727,4.967,4.727c1.432,0,2.913-0.429,4.202-1.146c1.099-0.716,1.433-0.955,3.009-2.244
		c0.43,2.244,2.101,3.39,4.823,3.39c2.388,0,4.489-1.193,5.588-3.295l-0.764-0.573c-0.43,0.669-0.86,1.003-1.242,1.003
		c-0.334,0-0.669-0.239-0.764-0.621c-0.096-0.334-0.143-0.764-0.143-1.767V26.014c0-2.006-0.191-3.009-0.86-3.964
		c-1.242-1.767-4.012-2.722-8.119-2.722c-5.539,0-10.219,2.77-10.219,6.065c0,2.053,1.719,3.725,3.82,3.725
		c2.006,0,3.725-1.433,3.725-3.2c0-0.286-0.048-0.573-0.143-0.812c-0.143-0.477-0.191-0.525-0.812-1.146
		C261.132,23.626,261.036,23.387,261.036,23.053 M251.151,29.979h-1.194c-0.717,3.581-1.576,5.587-3.152,7.545
		c-1.576,1.91-3.391,2.77-5.826,2.77h-0.908c-1.05,0-1.623-0.096-2.101-0.382c-0.573-0.334-0.669-0.812-0.669-2.292V14.6
		c0-1.671,0.096-2.292,0.526-2.865c0.477-0.717,1.337-1.051,2.674-1.051h1.433V9.633h-19.15v1.051h0.955
		c1.91,0,2.722,0.287,3.295,1.051c0.43,0.573,0.573,1.194,0.573,2.865v22.732c0,1.671-0.143,2.34-0.573,2.865
		c-0.478,0.717-1.385,1.051-2.675,1.051h-1.575v1.003h27.125L251.151,29.979z M205.401,35.087c-0.478,1.29-0.621,1.624-1.146,2.579
		c-0.621,1.003-1.433,1.815-2.388,2.34c-1.003,0.526-1.767,0.621-4.059,0.621h-2.006l10.602-19.58v-1.146H187.54v6.256h1.146
		c0.43-1.671,0.621-2.149,1.29-3.104c0.334-0.478,0.764-0.86,1.289-1.099c0.621-0.334,0.86-0.334,2.531-0.334h3.2l-10.602,19.628
		v1.098h19.246l0.812-7.259H205.401z M178.419,19.949v-7.928h-1.671c-0.765,1.91-1.147,2.579-2.149,3.868
		c-1.672,2.102-3.917,3.773-6.782,4.967v1.767h2.674v13.849c0,1.672,0.048,2.245,0.335,3.057c0.668,1.958,2.961,3.199,5.922,3.199
		c2.913,0,5.014-1.337,6.351-4.202l-0.764-0.621c-0.907,1.433-1.576,2.006-2.436,2.006c-1.146,0-1.48-0.669-1.48-2.818v-14.47h4.346
		v-2.674H178.419z M154.589,12.5c0,2.388,1.91,4.298,4.298,4.298c2.388,0,4.298-1.91,4.298-4.298c0-2.388-1.91-4.298-4.298-4.298
		C156.499,8.201,154.589,10.111,154.589,12.5 M152.488,19.949V21c1.003,0.144,1.528,0.335,2.005,0.717
		c0.43,0.334,0.526,0.621,0.526,1.958v14.088c0,2.817-0.334,3.486-1.767,3.486h-0.621v1.051h12.56v-1.051h-0.43
		c-1.48,0-1.815-0.669-1.815-3.486V19.949H152.488z M145.563,19.949V21c1.098,0.096,1.576,0.43,1.576,1.194
		c0,0.239-0.095,0.764-0.239,1.099l-2.435,7.641l-2.484-8.071c-0.143-0.334-0.191-0.669-0.191-0.955c0-0.573,0.382-0.86,1.29-0.908
		h0.239v-1.05h-11.462V21c0.955,0.096,1.289,0.526,1.719,2.293l-2.579,8.261l-2.149-7.927c-0.095-0.334-0.143-0.812-0.143-1.194
		c0-0.907,0.478-1.385,1.337-1.433v-1.05h-11.987V21c1.624,0,1.911,0.287,2.579,2.293l6.256,19.436h2.006l5.635-16.81l5.827,16.81
		h1.91l6.256-18.863c0.716-2.197,1.098-2.675,2.197-2.866v-1.05H145.563z M105.83,21.047c2.579,0,3.343,2.197,3.343,9.551
		c0,3.248-0.191,6.018-0.573,7.976c-0.382,1.862-1.337,2.913-2.77,2.913c-1.48,0-2.387-1.051-2.77-2.913
		c-0.382-1.958-0.573-4.728-0.573-7.928C102.487,23.244,103.251,21.047,105.83,21.047 M105.83,19.328
		c-6.829,0-11.366,4.68-11.366,11.796c0,7.163,4.585,11.891,11.366,11.891c6.782,0,11.366-4.728,11.366-11.891
		C117.196,24.008,112.707,19.328,105.83,19.328 M66.289,19.949V21h0.143c0.239,0,0.764,0.191,1.003,0.382
		c0.621,0.478,0.716,1.051,0.716,3.057v13.324c0,1.576-0.048,2.197-0.287,2.674c-0.238,0.525-0.716,0.812-1.432,0.812h-0.143v1.051
		h11.604v-1.051H77.75c-0.621,0-1.098-0.287-1.337-0.812c-0.239-0.477-0.334-1.098-0.334-2.674V25.775
		c1.146-2.054,2.196-3.104,3.199-3.104c1.146,0,1.719,0.812,1.719,2.388v12.703c0,1.576-0.047,2.197-0.286,2.674
		c-0.239,0.478-0.716,0.812-1.242,0.812h-0.143v1.051h11.509v-1.051H90.74c-1.481,0-1.815-0.669-1.815-3.486v-9.742
		c0-1.481-0.143-3.2-0.382-4.299c-0.669-2.626-3.056-4.393-6.065-4.393c-2.483,0-4.537,1.098-6.399,3.438v-2.817H66.289z
		 M52.774,37.333c-0.907,0.907-1.671,1.337-2.34,1.337c-1.242,0-1.958-0.955-1.958-2.483c0-2.197,1.576-4.203,4.393-5.492
		L52.774,37.333z M47.378,23.053c0-0.955,1.289-1.767,2.817-1.767c1.91,0,2.77,0.955,2.77,3.2l-0.143,4.202
		c-8.023,2.292-12.083,5.397-12.083,9.313c0,2.769,2.102,4.727,4.967,4.727c1.433,0,2.913-0.429,4.203-1.146
		c1.098-0.716,1.432-0.955,3.008-2.244c0.43,2.244,2.102,3.39,4.824,3.39c2.387,0,4.489-1.193,5.587-3.295l-0.764-0.573
		c-0.43,0.669-0.86,1.003-1.242,1.003c-0.334,0-0.668-0.239-0.764-0.621c-0.095-0.334-0.143-0.764-0.143-1.767V26.014
		c0-2.006-0.191-3.009-0.86-3.964c-1.241-1.767-4.011-2.722-8.118-2.722c-5.54,0-10.22,2.77-10.22,6.065
		c0,2.053,1.719,3.725,3.82,3.725c2.006,0,3.725-1.433,3.725-3.2c0-0.286-0.047-0.573-0.143-0.812
		c-0.143-0.477-0.191-0.525-0.812-1.146C47.473,23.626,47.378,23.387,47.378,23.053 M34.961,41.249h-0.812
		c-1.48,0-2.388-0.334-2.961-1.051c-0.43-0.525-0.573-1.194-0.573-2.865V11.354h2.197c2.483,0,3.82,0.477,4.967,1.767
		c1.098,1.193,1.671,2.722,1.814,5.062h1.099V9.633H10.796v8.549h1.146c0.144-2.34,0.669-3.773,1.767-5.062
		c1.147-1.242,2.484-1.767,5.015-1.767h2.197v25.979c0,1.671-0.144,2.34-0.573,2.865c-0.573,0.717-1.481,1.051-2.961,1.051h-0.812
		v1.051h18.386V41.249z"/>
	<path clip-path="url(#SVGID_2_)" fill="none" stroke="#393E6F" stroke-width="5.599" stroke-linecap="round" d="M503.011,92.667
		l-7.777-1.266c0,0-361.155-80.63-440.105,52.074"/>
</g>
</svg>
