<?xml version="1.0" encoding="utf-8"?>
<!-- Generator: Adobe Illustrator 16.0.0, SVG Export Plug-In . SVG Version: 6.00 Build 0)  -->
<!DOCTYPE svg PUBLIC "-//W3C//DTD SVG 1.1//EN" "http://www.w3.org/Graphics/SVG/1.1/DTD/svg11.dtd" [
	<!ENTITY ns_flows "http://ns.adobe.com/Flows/1.0/">
	<!ENTITY ns_extend "http://ns.adobe.com/Extensibility/1.0/">
	<!ENTITY ns_ai "http://ns.adobe.com/AdobeIllustrator/10.0/">
	<!ENTITY ns_graphs "http://ns.adobe.com/Graphs/1.0/">
]>
<svg version="1.1" id="Layer_1" xmlns:x="&ns_extend;" xmlns:i="&ns_ai;" xmlns:graph="&ns_graphs;"
	 xmlns="http://www.w3.org/2000/svg" xmlns:xlink="http://www.w3.org/1999/xlink" xmlns:a="http://ns.adobe.com/AdobeSVGViewerExtensions/3.0/"
	 x="0px" y="0px" width="334px" height="247px" viewBox="0 0 334 247" style="enable-background:new 0 0 334 247;"
	 xml:space="preserve">
<style type="text/css">
<![CDATA[
	.st0{clip-path:url(#SVGID_4_);fill:none;stroke:#FFFFFF;stroke-width:2.596;stroke-miterlimit:3.864;}
	.st1{fill-rule:evenodd;clip-rule:evenodd;fill:#09008B;}
	.st2{clip-path:url(#SVGID_4_);fill-rule:evenodd;clip-rule:evenodd;fill:#00A389;}
	.st3{clip-path:url(#SVGID_6_);fill:none;stroke:#09008B;stroke-width:1.377;stroke-miterlimit:3.864;}
	.st4{clip-path:url(#SVGID_6_);fill:none;stroke:#09008B;stroke-width:1.299;stroke-miterlimit:3.864;}
	.st5{clip-path:url(#SVGID_6_);fill:none;stroke:#000000;stroke-width:7.000000e-03;stroke-miterlimit:3.864;}
	.st6{clip-path:url(#SVGID_4_);fill:none;stroke:#FFFFFF;stroke-width:1.298;stroke-miterlimit:3.864;}
	.st7{clip-path:url(#SVGID_6_);fill:#09008B;}
	.st8{clip-path:url(#SVGID_6_);fill:none;stroke:#09008B;stroke-miterlimit:3.864;}
	.st9{clip-path:url(#SVGID_6_);fill-rule:evenodd;clip-rule:evenodd;fill:#09008B;}
	.st10{clip-path:url(#SVGID_2_);fill:none;stroke:#09008B;stroke-width:0.216;stroke-miterlimit:3.864;}
	.st11{fill:none;stroke:#09008B;stroke-width:0.216;stroke-miterlimit:3.864;}
	.st12{clip-path:url(#SVGID_4_);fill:none;stroke:#FFFFFF;stroke-width:1.18;stroke-miterlimit:3.864;}
	.st13{clip-path:url(#SVGID_2_);fill-rule:evenodd;clip-rule:evenodd;fill:#09008B;}
	.st14{clip-path:url(#SVGID_4_);fill-rule:evenodd;clip-rule:evenodd;fill:#FFFFFF;}
	.st15{clip-path:url(#SVGID_4_);fill:none;stroke:#FFFFFF;stroke-width:3.895;stroke-miterlimit:3.864;}
]]>
</style>
<polygon class="st1" points="261,133.9 261,134.4 259.5,134.4 259.5,138.3 258.9,138.3 258.9,134.4 257.4,134.4 257.4,133.9 "/>
<polygon class="st11" points="261,133.9 261,134.4 259.5,134.4 259.5,138.3 258.9,138.3 258.9,134.4 257.4,134.4 257.4,133.9 "/>
<g>
	<defs>
		<rect id="SVGID_1_" x="35" y="44.2" width="265.7" height="162.8"/>
	</defs>
	<clipPath id="SVGID_2_">
		<use xlink:href="#SVGID_1_"  style="overflow:visible;"/>
	</clipPath>
	<path class="st13" d="M261.5,133.9h0.9l1.3,3.7l1.3-3.7h0.8v4.4h-0.6v-2.6c0-0.1,0-0.2,0-0.4c0-0.2,0-0.4,0-0.7l-1.3,3.7h-0.6
		l-1.3-3.7v0.1c0,0.1,0,0.3,0,0.5c0,0.2,0,0.4,0,0.5v2.6h-0.6V133.9z"/>
	<path class="st10" d="M261.5,133.9h0.9l1.3,3.7l1.3-3.7h0.8v4.4h-0.6v-2.6c0-0.1,0-0.2,0-0.4c0-0.2,0-0.4,0-0.7l-1.3,3.7h-0.6
		l-1.3-3.7v0.1c0,0.1,0,0.3,0,0.5c0,0.2,0,0.4,0,0.5v2.6h-0.6V133.9z"/>
	<path class="st13" d="M35,93.4c0-27.2,21.4-49.2,47.7-49.2c26.4,0,47.7,22.1,47.7,49.3v71.7H35V93.4z"/>
</g>
<g>
	<defs>
		<path id="SVGID_3_" d="M82.7,44.2c-26.4,0-47.7,22-47.7,49.2l0,71.8h95.5V93.5C130.5,66.3,109.1,44.2,82.7,44.2z"/>
	</defs>
	<clipPath id="SVGID_4_">
		<use xlink:href="#SVGID_3_"  style="overflow:visible;"/>
	</clipPath>
	<path class="st14" d="M132.5,165.6v-38.1l7.7-5.5v-3.8h-10.3v-21l0.1,1.2c0.5-2.2,0.9-4.5,0.9-6.8c0-16.7-13.5-30.2-30.2-30.2
		C84,61.5,70.4,75,70.4,91.7c0,2.3,0.5,4.5,1,6.7l0-1.1v21H61.2v3.8l7.7,5.5l0,38.1H132.5z"/>
	<path class="st15" d="M132.5,165.6v-38.1l7.7-5.5v-3.8h-10.3v-21l0.1,1.2c0.5-2.2,0.9-4.5,0.9-6.8c0-16.7-13.5-30.2-30.2-30.2
		C84,61.5,70.4,75,70.4,91.7c0,2.3,0.5,4.5,1,6.7l0-1.1v21H61.2v3.8l7.7,5.5l0,38.1H132.5z"/>
	<path class="st14" d="M94.6,64c0-3.3,2.7-6.1,6.1-6.1c3.3,0,6.1,2.7,6.1,6.1c0,3.3-2.7,6.1-6.1,6.1C97.3,70,94.6,67.3,94.6,64"/>
	<path class="st2" d="M132.5,165.6v-38.1l7.7-5.5v-3.8h-10.3v-21l0.1,1.2c0.5-2.2,0.9-4.5,0.9-6.8c0-16.7-13.5-30.2-30.2-30.2
		C84,61.5,70.4,75,70.4,91.7c0,2.3,0.5,4.5,1,6.7l0-1.1v21H61.2v3.8l7.7,5.5l0,38.1H132.5z"/>
	<path class="st6" d="M132.5,165.6v-38.1l7.7-5.5v-3.8h-10.3v-21l0.1,1.2c0.5-2.2,0.9-4.5,0.9-6.8c0-16.7-13.5-30.2-30.2-30.2
		C84,61.5,70.4,75,70.4,91.7c0,2.3,0.5,4.5,1,6.7l0-1.1v21H61.2v3.8l7.7,5.5l0,38.1H132.5z"/>
	<line class="st0" x1="100.8" y1="32.6" x2="100.8" y2="61.5"/>
	<line class="st12" x1="76.5" y1="94.3" x2="76.5" y2="118.2"/>
	<line class="st12" x1="124.9" y1="94.3" x2="124.9" y2="118.2"/>
	<line class="st6" x1="112.2" y1="91.9" x2="112.2" y2="118.2"/>
	<line class="st6" x1="89.4" y1="91.9" x2="89.4" y2="118.2"/>
	<line class="st12" x1="140.2" y1="121.9" x2="61.2" y2="121.9"/>
	<polyline class="st12" points="132.4,165.6 132.4,124.8 68.8,124.8 68.8,165.6 	"/>
	<polyline class="st12" points="71.5,97.7 77.1,94.2 89.3,91.9 112.3,91.9 124.2,94.2 130,97.4 	"/>
	<path class="st12" d="M103.6,62.1C87.8,62.2,75.2,74.1,76,90.8c0.1,1.3,0.3,2.7,0.5,3.8"/>
	<path class="st12" d="M97.9,62.1c15.8,0.1,28.4,12.1,27.5,28.8c-0.1,1.3-0.3,2.7-0.5,3.8"/>
	<path class="st6" d="M96.5,61.5c9.7,0.8,16.5,12.2,16,28.9c0,0.7,0,1.2-0.1,1.8"/>
	<path class="st6" d="M104.9,61.5c-9.7,0.8-16.5,12.2-16,28.9c0,0.7,0,1.2,0.1,1.8"/>
	<path class="st6" d="M94.4,103.6c0-3.6,2.9-6.6,6.4-6.6c3.5,0,6.4,3,6.4,6.6v14.6H94.4V103.6z"/>
	<path class="st12" d="M79.6,102c0-1.7,1.4-3.3,3.1-3.5c1.7-0.2,3.1,1.1,3.1,2.8l0,16.9h-6.1V102z"/>
	<path class="st12" d="M121.9,102c0-1.7-1.4-3.3-3.1-3.5c-1.7-0.2-3.1,1.1-3.1,2.8l0,16.9h6.1V102z"/>
	<line class="st6" x1="140.2" y1="118.2" x2="61.2" y2="118.2"/>
	<circle class="st12" cx="100.7" cy="145.2" r="14.9"/>
	<polyline class="st6" points="100.8,134.6 100.8,145.3 107.6,149.4 	"/>
	<line class="st12" x1="74.3" y1="124.8" x2="74.3" y2="165.6"/>
	<line class="st12" x1="127.1" y1="124.8" x2="127.1" y2="165.6"/>
</g>
<g>
	<defs>
		<rect id="SVGID_5_" x="35" y="44.2" width="265.7" height="162.8"/>
	</defs>
	<clipPath id="SVGID_6_">
		<use xlink:href="#SVGID_5_"  style="overflow:visible;"/>
	</clipPath>
	<path class="st9" d="M269.1,119.7c0-1.3-0.3-2.5-0.8-3.3c-0.5-0.9-1.4-1.5-2.5-1.8c-0.6-0.1-1.8-0.2-3.6-0.3
		c-1.8-0.1-3.9-0.2-6.3-0.2c-2.2,0.5-3.9,1.3-4.8,2.5c-0.9,1.2-1.4,2.7-1.4,4.6c0,0.8,0.2,1.6,0.5,2.4c0.3,0.8,0.9,1.5,1.6,2.1
		c0.7,0.6,1.7,1.1,2.9,1.5c1.2,0.4,2.7,0.6,4.5,0.6c3.1,0,5.5-0.7,7.2-2.1C268.2,124.5,269.1,122.4,269.1,119.7 M263.1,89.9
		c0-2.8-0.5-5-1.5-6.7c-1-1.7-2.4-2.5-4.2-2.5c-1,0-1.8,0.2-2.5,0.7c-0.7,0.5-1.2,1.1-1.7,2c-0.4,0.8-0.7,1.8-0.9,2.9
		c-0.2,1.1-0.2,2.2-0.2,3.4c0,2.7,0.5,4.8,1.5,6.5c1,1.7,2.3,2.5,3.9,2.5c1.8,0,3.2-0.8,4.1-2.5C262.6,94.5,263.1,92.4,263.1,89.9
		 M271.5,110.9c0.8,0.9,1.5,1.9,2,3.1c0.5,1.2,0.7,2.6,0.7,4.3c0,1.7-0.3,3.3-1,4.8c-0.6,1.5-1.6,2.8-2.9,3.9c-1.4,1.1-3.1,2-5,2.6
		c-1.9,0.6-4.3,0.9-7.2,0.9c-4.7,0-8.2-0.8-10.5-2.4c-2.3-1.6-3.5-3.9-3.5-6.9c0-2.5,0.8-4.4,2.5-5.8c1.7-1.4,3.8-2.2,6.4-2.3v-0.5
		c-0.6-0.2-1.3-0.5-1.9-0.8c-0.7-0.3-1.2-0.7-1.7-1.2c-0.5-0.5-1-1.1-1.3-1.8c-0.3-0.7-0.5-1.5-0.5-2.6c0-1.3,0.4-2.4,1.2-3.5
		c0.8-1.1,2-2,3.6-2.8v-0.5c-2-1.1-3.6-2.5-4.7-4.1c-1.1-1.7-1.7-3.7-1.7-5.9c0-3.4,1.1-6.1,3.2-8.3c2.2-2.2,5-3.2,8.4-3.2
		c0.9,0,1.9,0.1,2.8,0.3c0.9,0.2,1.9,0.5,2.8,0.8h10.1v3.5h-6.6v0.2c0.8,1,1.3,2.2,1.7,3.4s0.6,2.5,0.6,3.7c0,3.1-1.1,5.8-3.3,7.9
		c-2.2,2.2-4.7,3.2-7.7,3.2h-3.8c-0.5,0.2-1,0.5-1.5,1c-0.5,0.5-0.8,1.2-0.8,2.1c0,0.9,0.2,1.6,0.7,2.1c0.4,0.5,1,0.8,1.6,0.9
		c0.6,0.2,1.3,0.3,2.1,0.4c0.8,0,1.6,0.1,2.5,0.1c0.9,0,2.2,0.1,3.7,0.2c1.6,0.1,2.7,0.2,3.4,0.2c1,0,1.9,0.3,2.9,0.8
		C269.9,109.4,270.7,110.1,271.5,110.9"/>
	<path class="st4" d="M269.1,119.7c0-1.3-0.3-2.5-0.8-3.3c-0.5-0.9-1.4-1.5-2.5-1.8c-0.6-0.1-1.8-0.2-3.6-0.3
		c-1.8-0.1-3.9-0.2-6.3-0.2c-2.2,0.5-3.9,1.3-4.8,2.5c-0.9,1.2-1.4,2.7-1.4,4.6c0,0.8,0.2,1.6,0.5,2.4c0.3,0.8,0.9,1.5,1.6,2.1
		c0.7,0.6,1.7,1.1,2.9,1.5c1.2,0.4,2.7,0.6,4.5,0.6c3.1,0,5.5-0.7,7.2-2.1C268.2,124.5,269.1,122.4,269.1,119.7z M263.1,89.9
		c0-2.8-0.5-5-1.5-6.7c-1-1.7-2.4-2.5-4.2-2.5c-1,0-1.8,0.2-2.5,0.7c-0.7,0.5-1.2,1.1-1.7,2c-0.4,0.8-0.7,1.8-0.9,2.9
		c-0.2,1.1-0.2,2.2-0.2,3.4c0,2.7,0.5,4.8,1.5,6.5c1,1.7,2.3,2.5,3.9,2.5c1.8,0,3.2-0.8,4.1-2.5C262.6,94.5,263.1,92.4,263.1,89.9z
		 M271.5,110.9c0.8,0.9,1.5,1.9,2,3.1c0.5,1.2,0.7,2.6,0.7,4.3c0,1.7-0.3,3.3-1,4.8c-0.6,1.5-1.6,2.8-2.9,3.9c-1.4,1.1-3.1,2-5,2.6
		c-1.9,0.6-4.3,0.9-7.2,0.9c-4.7,0-8.2-0.8-10.5-2.4c-2.3-1.6-3.5-3.9-3.5-6.9c0-2.5,0.8-4.4,2.5-5.8c1.7-1.4,3.8-2.2,6.4-2.3v-0.5
		c-0.6-0.2-1.3-0.5-1.9-0.8c-0.7-0.3-1.2-0.7-1.7-1.2c-0.5-0.5-1-1.1-1.3-1.8c-0.3-0.7-0.5-1.5-0.5-2.6c0-1.3,0.4-2.4,1.2-3.5
		c0.8-1.1,2-2,3.6-2.8v-0.5c-2-1.1-3.6-2.5-4.7-4.1c-1.1-1.7-1.7-3.7-1.7-5.9c0-3.4,1.1-6.1,3.2-8.3c2.2-2.2,5-3.2,8.4-3.2
		c0.9,0,1.9,0.1,2.8,0.3c0.9,0.2,1.9,0.5,2.8,0.8h10.1v3.5h-6.6v0.2c0.8,1,1.3,2.2,1.7,3.4s0.6,2.5,0.6,3.7c0,3.1-1.1,5.8-3.3,7.9
		c-2.2,2.2-4.7,3.2-7.7,3.2h-3.8c-0.5,0.2-1,0.5-1.5,1c-0.5,0.5-0.8,1.2-0.8,2.1c0,0.9,0.2,1.6,0.7,2.1c0.4,0.5,1,0.8,1.6,0.9
		c0.6,0.2,1.3,0.3,2.1,0.4c0.8,0,1.6,0.1,2.5,0.1c0.9,0,2.2,0.1,3.7,0.2c1.6,0.1,2.7,0.2,3.4,0.2c1,0,1.9,0.3,2.9,0.8
		C269.9,109.4,270.7,110.1,271.5,110.9z"/>
	<path class="st9" d="M176.3,65.8c-0.5,0-1.2,0.2-2,0.4c-0.8,0.2-1.4,0.6-1.9,0.9c-0.7,0.5-1.3,1.2-1.7,2c-0.4,0.8-0.8,1.8-1.2,2.9
		c-1.4,3.9-3.5,10-6.3,18.2c-2.8,8.2-5.7,16.8-8.6,25.8h-2.6c-3-9.5-5.9-18.6-8.7-27.4c-2.8-8.8-4.7-14.7-5.7-17.8
		c-0.2-0.8-0.6-1.4-1-2c-0.4-0.6-1-1.1-1.7-1.7c-0.6-0.4-1.2-0.7-1.9-0.9c-0.7-0.2-1.3-0.4-1.9-0.4v-2.6h18.3v2.6
		c-1.6,0.1-2.9,0.3-4,0.6c-1.1,0.3-1.6,0.7-1.6,1.4c0,0.3,0,0.6,0.1,1c0.1,0.4,0.2,0.7,0.2,0.9c0.8,2.4,2,6.3,3.8,11.8
		c1.7,5.4,4.2,13.1,7.4,23.2c1.6-4.5,3.4-9.9,5.5-16.1c2.1-6.2,3.4-10.4,4.2-12.7c0.7-2.2,1.1-3.8,1.2-4.6c0.1-0.9,0.2-1.6,0.2-2.1
		c0-0.6-0.2-1-0.7-1.4c-0.4-0.4-1-0.7-1.7-1c-0.7-0.2-1.4-0.4-2.1-0.6c-0.7-0.1-1.4-0.2-2.2-0.3v-2.6h16.5V65.8z"/>
	<path class="st4" d="M176.3,65.8c-0.5,0-1.2,0.2-2,0.4c-0.8,0.2-1.4,0.6-1.9,0.9c-0.7,0.5-1.3,1.2-1.7,2c-0.4,0.8-0.8,1.8-1.2,2.9
		c-1.4,3.9-3.5,10-6.3,18.2c-2.8,8.2-5.7,16.8-8.6,25.8h-2.6c-3-9.5-5.9-18.6-8.7-27.4c-2.8-8.8-4.7-14.7-5.7-17.8
		c-0.2-0.8-0.6-1.4-1-2c-0.4-0.6-1-1.1-1.7-1.7c-0.6-0.4-1.2-0.7-1.9-0.9c-0.7-0.2-1.3-0.4-1.9-0.4v-2.6h18.3v2.6
		c-1.6,0.1-2.9,0.3-4,0.6c-1.1,0.3-1.6,0.7-1.6,1.4c0,0.3,0,0.6,0.1,1c0.1,0.4,0.2,0.7,0.2,0.9c0.8,2.4,2,6.3,3.8,11.8
		c1.7,5.4,4.2,13.1,7.4,23.2c1.6-4.5,3.4-9.9,5.5-16.1c2.1-6.2,3.4-10.4,4.2-12.7c0.7-2.2,1.1-3.8,1.2-4.6c0.1-0.9,0.2-1.6,0.2-2.1
		c0-0.6-0.2-1-0.7-1.4c-0.4-0.4-1-0.7-1.7-1c-0.7-0.2-1.4-0.4-2.1-0.6c-0.7-0.1-1.4-0.2-2.2-0.3v-2.6h16.5V65.8z"/>
	<path class="st9" d="M201.2,115.3h-15v-2.4c0.5,0,1-0.1,1.5-0.1c0.5-0.1,1-0.2,1.3-0.3c0.6-0.2,1-0.6,1.3-1.1
		c0.3-0.6,0.4-1.3,0.4-2.2V71c0-0.9-0.2-1.7-0.5-2.5c-0.3-0.8-0.7-1.4-1.2-1.8c-0.4-0.3-1.1-0.6-2.1-0.8c-1-0.2-1.8-0.4-2.4-0.4
		v-2.4l11.6-0.1l0.4,0.6v45.2c0,0.9,0.1,1.6,0.4,2.1c0.3,0.5,0.7,1,1.3,1.2c0.5,0.2,0.9,0.4,1.3,0.6c0.5,0.1,1,0.2,1.5,0.3V115.3z"
		/>
	<path class="st4" d="M201.2,115.3h-15v-2.4c0.5,0,1-0.1,1.5-0.1c0.5-0.1,1-0.2,1.3-0.3c0.6-0.2,1-0.6,1.3-1.1
		c0.3-0.6,0.4-1.3,0.4-2.2V71c0-0.9-0.2-1.7-0.5-2.5c-0.3-0.8-0.7-1.4-1.2-1.8c-0.4-0.3-1.1-0.6-2.1-0.8c-1-0.2-1.8-0.4-2.4-0.4
		v-2.4l11.6-0.1l0.4,0.6v45.2c0,0.9,0.1,1.6,0.4,2.1c0.3,0.5,0.7,1,1.3,1.2c0.5,0.2,0.9,0.4,1.3,0.6c0.5,0.1,1,0.2,1.5,0.3V115.3z"
		/>
	<path class="st9" d="M216.4,115.3h-15v-2.4c0.5,0,1-0.1,1.5-0.1c0.5-0.1,1-0.2,1.3-0.3c0.6-0.2,1-0.6,1.3-1.1
		c0.3-0.6,0.4-1.3,0.4-2.2V71c0-0.9-0.2-1.7-0.5-2.5c-0.3-0.8-0.7-1.4-1.2-1.8c-0.4-0.3-1.1-0.6-2.1-0.8c-1-0.2-1.8-0.4-2.4-0.4
		v-2.4l11.6-0.1l0.4,0.6v45.2c0,0.9,0.1,1.6,0.4,2.1c0.3,0.5,0.7,1,1.3,1.2c0.5,0.2,0.9,0.4,1.3,0.6c0.5,0.1,1,0.2,1.5,0.3V115.3z"
		/>
	<path class="st4" d="M216.4,115.3h-15v-2.4c0.5,0,1-0.1,1.5-0.1c0.5-0.1,1-0.2,1.3-0.3c0.6-0.2,1-0.6,1.3-1.1
		c0.3-0.6,0.4-1.3,0.4-2.2V71c0-0.9-0.2-1.7-0.5-2.5c-0.3-0.8-0.7-1.4-1.2-1.8c-0.4-0.3-1.1-0.6-2.1-0.8c-1-0.2-1.8-0.4-2.4-0.4
		v-2.4l11.6-0.1l0.4,0.6v45.2c0,0.9,0.1,1.6,0.4,2.1c0.3,0.5,0.7,1,1.3,1.2c0.5,0.2,0.9,0.4,1.3,0.6c0.5,0.1,1,0.2,1.5,0.3V115.3z"
		/>
	<path class="st9" d="M245.8,114.7c-1,0.4-1.8,0.7-2.6,1c-0.7,0.3-1.6,0.4-2.5,0.4c-1.6,0-2.9-0.4-3.9-1.3c-1-0.9-1.6-2.2-1.8-3.9
		h-0.2c-1.4,1.8-2.8,3.1-4.4,4c-1.5,0.9-3.4,1.4-5.6,1.4c-2.3,0-4.2-0.8-5.7-2.5c-1.5-1.7-2.2-3.8-2.2-6.5c0-1.4,0.2-2.6,0.5-3.8
		c0.3-1.1,0.8-2.1,1.5-3c0.5-0.7,1.2-1.4,2.1-1.9c0.9-0.6,1.7-1.1,2.4-1.4c0.9-0.4,2.8-1.2,5.7-2.3c2.9-1.1,4.8-2,5.8-2.6v-3.6
		c0-0.3-0.1-0.9-0.2-1.8c-0.1-0.9-0.3-1.8-0.7-2.6c-0.4-0.9-1-1.7-1.8-2.4c-0.8-0.7-1.8-1-3.2-1c-1,0-1.9,0.2-2.7,0.6
		c-0.8,0.4-1.4,0.8-1.7,1.2c0,0.5,0.1,1.2,0.3,2.2c0.2,1,0.3,1.8,0.3,2.6c0,0.9-0.3,1.6-1,2.4c-0.6,0.7-1.6,1.1-2.7,1.1
		c-1,0-1.8-0.4-2.3-1.3c-0.5-0.9-0.7-1.9-0.7-2.9c0-1.1,0.3-2.2,1-3.2c0.7-1,1.6-1.9,2.7-2.8c0.9-0.7,2.1-1.3,3.4-1.7
		c1.3-0.5,2.6-0.7,3.9-0.7c1.7,0,3.3,0.1,4.6,0.4c1.3,0.3,2.5,0.9,3.6,1.8c1.1,0.9,1.9,2.1,2.4,3.7c0.6,1.5,0.8,3.5,0.8,6
		c0,3.5,0,6.6-0.1,9.3c-0.1,2.7-0.1,5.6-0.1,8.9c0,1,0.1,1.7,0.4,2.3c0.3,0.6,0.7,1,1.3,1.4c0.3,0.2,0.8,0.3,1.5,0.4
		c0.7,0,1.4,0,2.1,0V114.7z M234.9,95.3c-1.8,0.6-3.3,1.2-4.7,1.8c-1.3,0.6-2.6,1.3-3.7,2.2c-1,0.8-1.9,1.8-2.5,3
		c-0.6,1.1-0.9,2.5-0.9,4c0,2,0.4,3.5,1.3,4.5c0.9,1,2.1,1.4,3.5,1.4c1.5,0,2.8-0.4,3.9-1.2c1.1-0.9,2.1-1.9,2.8-3L234.9,95.3z"/>
	<path class="st4" d="M245.8,114.7c-1,0.4-1.8,0.7-2.6,1c-0.7,0.3-1.6,0.4-2.5,0.4c-1.6,0-2.9-0.4-3.9-1.3c-1-0.9-1.6-2.2-1.8-3.9
		h-0.2c-1.4,1.8-2.8,3.1-4.4,4c-1.5,0.9-3.4,1.4-5.6,1.4c-2.3,0-4.2-0.8-5.7-2.5c-1.5-1.7-2.2-3.8-2.2-6.5c0-1.4,0.2-2.6,0.5-3.8
		c0.3-1.1,0.8-2.1,1.5-3c0.5-0.7,1.2-1.4,2.1-1.9c0.9-0.6,1.7-1.1,2.4-1.4c0.9-0.4,2.8-1.2,5.7-2.3c2.9-1.1,4.8-2,5.8-2.6v-3.6
		c0-0.3-0.1-0.9-0.2-1.8c-0.1-0.9-0.3-1.8-0.7-2.6c-0.4-0.9-1-1.7-1.8-2.4c-0.8-0.7-1.8-1-3.2-1c-1,0-1.9,0.2-2.7,0.6
		c-0.8,0.4-1.4,0.8-1.7,1.2c0,0.5,0.1,1.2,0.3,2.2c0.2,1,0.3,1.8,0.3,2.6c0,0.9-0.3,1.6-1,2.4c-0.6,0.7-1.6,1.1-2.7,1.1
		c-1,0-1.8-0.4-2.3-1.3c-0.5-0.9-0.7-1.9-0.7-2.9c0-1.1,0.3-2.2,1-3.2c0.7-1,1.6-1.9,2.7-2.8c0.9-0.7,2.1-1.3,3.4-1.7
		c1.3-0.5,2.6-0.7,3.9-0.7c1.7,0,3.3,0.1,4.6,0.4c1.3,0.3,2.5,0.9,3.6,1.8c1.1,0.9,1.9,2.1,2.4,3.7c0.6,1.5,0.8,3.5,0.8,6
		c0,3.5,0,6.6-0.1,9.3c-0.1,2.7-0.1,5.6-0.1,8.9c0,1,0.1,1.7,0.4,2.3c0.3,0.6,0.7,1,1.3,1.4c0.3,0.2,0.8,0.3,1.5,0.4
		c0.7,0,1.4,0,2.1,0V114.7z M234.9,95.3c-1.8,0.6-3.3,1.2-4.7,1.8c-1.3,0.6-2.6,1.3-3.7,2.2c-1,0.8-1.9,1.8-2.5,3
		c-0.6,1.1-0.9,2.5-0.9,4c0,2,0.4,3.5,1.3,4.5c0.9,1,2.1,1.4,3.5,1.4c1.5,0,2.8-0.4,3.9-1.2c1.1-0.9,2.1-1.9,2.8-3L234.9,95.3z"/>
	<path class="st9" d="M299.9,106.8c-1.3,2.9-3,5.2-5.2,6.9c-2.2,1.7-4.7,2.6-7.5,2.6c-2.5,0-4.7-0.5-6.5-1.5c-1.9-1-3.4-2.4-4.6-4.2
		c-1.2-1.8-2.1-3.8-2.7-6.2c-0.6-2.4-0.9-4.8-0.9-7.5c0-2.4,0.3-4.7,0.9-6.9c0.6-2.3,1.6-4.3,2.8-6.1c1.2-1.7,2.7-3.1,4.4-4.2
		c1.8-1.1,3.7-1.6,5.9-1.6c2.2,0,4.2,0.4,5.8,1.2c1.6,0.8,2.9,2,3.9,3.4c1,1.4,1.7,3,2.1,4.9c0.5,1.9,0.7,3.9,0.7,6.1v2.4h-20.4
		c0,2.4,0.2,4.5,0.6,6.5c0.4,1.9,1,3.6,1.8,5.1c0.8,1.4,1.9,2.5,3.2,3.4c1.3,0.8,2.9,1.2,4.7,1.2c1.9,0,3.4-0.5,4.8-1.5
		c1.4-1,2.7-2.9,3.9-5.5L299.9,106.8z M293,93c0-1.4-0.1-2.8-0.3-4.4c-0.2-1.6-0.5-2.9-0.9-3.9c-0.5-1.1-1.1-2-2-2.8
		c-0.8-0.7-1.9-1.1-3.2-1.1c-2.2,0-4,1.1-5.5,3.2c-1.4,2.1-2.2,5.1-2.3,8.9H293z"/>
	<path class="st4" d="M299.9,106.8c-1.3,2.9-3,5.2-5.2,6.9c-2.2,1.7-4.7,2.6-7.5,2.6c-2.5,0-4.7-0.5-6.5-1.5c-1.9-1-3.4-2.4-4.6-4.2
		c-1.2-1.8-2.1-3.8-2.7-6.2c-0.6-2.4-0.9-4.8-0.9-7.5c0-2.4,0.3-4.7,0.9-6.9c0.6-2.3,1.6-4.3,2.8-6.1c1.2-1.7,2.7-3.1,4.4-4.2
		c1.8-1.1,3.7-1.6,5.9-1.6c2.2,0,4.2,0.4,5.8,1.2c1.6,0.8,2.9,2,3.9,3.4c1,1.4,1.7,3,2.1,4.9c0.5,1.9,0.7,3.9,0.7,6.1v2.4h-20.4
		c0,2.4,0.2,4.5,0.6,6.5c0.4,1.9,1,3.6,1.8,5.1c0.8,1.4,1.9,2.5,3.2,3.4c1.3,0.8,2.9,1.2,4.7,1.2c1.9,0,3.4-0.5,4.8-1.5
		c1.4-1,2.7-2.9,3.9-5.5L299.9,106.8z M293,93c0-1.4-0.1-2.8-0.3-4.4c-0.2-1.6-0.5-2.9-0.9-3.9c-0.5-1.1-1.1-2-2-2.8
		c-0.8-0.7-1.9-1.1-3.2-1.1c-2.2,0-4,1.1-5.5,3.2c-1.4,2.1-2.2,5.1-2.3,8.9H293z"/>
	<path class="st9" d="M186,115.3h-14.9v-2.4c0.5,0,1-0.1,1.5-0.1c0.5,0,1-0.1,1.3-0.3c0.6-0.2,1-0.6,1.3-1.1
		c0.3-0.6,0.4-1.3,0.4-2.2V86.8c0-0.8-0.2-1.5-0.5-2.1c-0.3-0.7-0.7-1.2-1.2-1.7c-0.4-0.3-1-0.5-1.7-0.7c-0.8-0.2-1.4-0.4-2.1-0.4
		v-2.4l10.9-0.8l0.4,0.5v29.6c0,0.9,0.1,1.6,0.4,2.1c0.3,0.6,0.7,1,1.3,1.2c0.5,0.2,0.9,0.4,1.3,0.6c0.4,0.1,0.9,0.2,1.5,0.3V115.3z
		"/>
	<path class="st4" d="M186,115.3h-14.9v-2.4c0.5,0,1-0.1,1.5-0.1c0.5,0,1-0.1,1.3-0.3c0.6-0.2,1-0.6,1.3-1.1
		c0.3-0.6,0.4-1.3,0.4-2.2V86.8c0-0.8-0.2-1.5-0.5-2.1c-0.3-0.7-0.7-1.2-1.2-1.7c-0.4-0.3-1-0.5-1.7-0.7c-0.8-0.2-1.4-0.4-2.1-0.4
		v-2.4l10.9-0.8l0.4,0.5v29.6c0,0.9,0.1,1.6,0.4,2.1c0.3,0.6,0.7,1,1.3,1.2c0.5,0.2,0.9,0.4,1.3,0.6c0.4,0.1,0.9,0.2,1.5,0.3V115.3z
		"/>
	<path class="st9" d="M144.2,49.5h-0.8c-0.1-0.2-0.2-0.5-0.4-0.8c-0.2-0.3-0.4-0.6-0.6-0.9c-0.2-0.3-0.5-0.5-0.7-0.7
		c-0.3-0.2-0.5-0.3-0.7-0.4c-0.2,0-0.5,0-0.9-0.1c-0.3,0-0.7,0-0.9,0h-0.6v10.5c0,0.2,0.1,0.4,0.2,0.6c0.1,0.2,0.3,0.3,0.5,0.4
		c0.1,0,0.4,0.1,0.8,0.2c0.4,0.1,0.7,0.1,1,0.1v0.7h-7.3v-0.7c0.2,0,0.5,0,0.9-0.1c0.4,0,0.7-0.1,0.9-0.1c0.2-0.1,0.4-0.2,0.5-0.3
		c0.1-0.2,0.2-0.4,0.2-0.6V46.7h-0.6c-0.2,0-0.5,0-0.8,0c-0.3,0-0.7,0-1,0.1c-0.2,0-0.5,0.1-0.8,0.4c-0.3,0.2-0.5,0.5-0.7,0.7
		c-0.2,0.3-0.4,0.6-0.6,0.9c-0.2,0.3-0.3,0.6-0.3,0.8h-0.8v-3.6h13.5V49.5z"/>
	<path class="st8" d="M144.2,49.5h-0.8c-0.1-0.2-0.2-0.5-0.4-0.8c-0.2-0.3-0.4-0.6-0.6-0.9c-0.2-0.3-0.5-0.5-0.7-0.7
		c-0.3-0.2-0.5-0.3-0.7-0.4c-0.2,0-0.5,0-0.9-0.1c-0.3,0-0.7,0-0.9,0h-0.6v10.5c0,0.2,0.1,0.4,0.2,0.6c0.1,0.2,0.3,0.3,0.5,0.4
		c0.1,0,0.4,0.1,0.8,0.2c0.4,0.1,0.7,0.1,1,0.1v0.7h-7.3v-0.7c0.2,0,0.5,0,0.9-0.1c0.4,0,0.7-0.1,0.9-0.1c0.2-0.1,0.4-0.2,0.5-0.3
		c0.1-0.2,0.2-0.4,0.2-0.6V46.7h-0.6c-0.2,0-0.5,0-0.8,0c-0.3,0-0.7,0-1,0.1c-0.2,0-0.5,0.1-0.8,0.4c-0.3,0.2-0.5,0.5-0.7,0.7
		c-0.2,0.3-0.4,0.6-0.6,0.9c-0.2,0.3-0.3,0.6-0.3,0.8h-0.8v-3.6h13.5V49.5z"/>
	<path class="st9" d="M161.8,59.1h-6.4v-0.7c0.2,0,0.4,0,0.8-0.1c0.3,0,0.6-0.1,0.7-0.1c0.2-0.1,0.4-0.2,0.5-0.3
		c0.1-0.2,0.2-0.4,0.2-0.6v-4.7h-7.3v4.6c0,0.2,0,0.4,0.1,0.5c0.1,0.1,0.3,0.3,0.5,0.4c0.1,0.1,0.3,0.1,0.7,0.2
		c0.3,0.1,0.6,0.1,0.8,0.1v0.7h-6.4v-0.7c0.2,0,0.4,0,0.8-0.1c0.3,0,0.6-0.1,0.7-0.1c0.2-0.1,0.4-0.2,0.5-0.3
		c0.1-0.2,0.2-0.4,0.2-0.6v-9.5c0-0.2,0-0.4-0.1-0.5c-0.1-0.2-0.3-0.3-0.5-0.4c-0.2-0.1-0.4-0.2-0.7-0.2c-0.3-0.1-0.5-0.1-0.7-0.1
		v-0.7h6.4v0.7c-0.2,0-0.5,0-0.8,0.1c-0.3,0-0.5,0.1-0.7,0.1c-0.2,0.1-0.4,0.2-0.5,0.4c-0.1,0.2-0.1,0.4-0.1,0.6v4.1h7.3v-4
		c0-0.2,0-0.4-0.1-0.5c-0.1-0.2-0.3-0.3-0.5-0.4c-0.2-0.1-0.4-0.2-0.7-0.2c-0.3-0.1-0.5-0.1-0.7-0.1v-0.7h6.4v0.7
		c-0.2,0-0.5,0-0.8,0.1c-0.3,0-0.5,0.1-0.7,0.1c-0.2,0.1-0.4,0.2-0.5,0.4c-0.1,0.2-0.1,0.4-0.1,0.6v9.5c0,0.2,0,0.4,0.1,0.5
		c0.1,0.1,0.3,0.3,0.5,0.4c0.1,0.1,0.3,0.1,0.7,0.2c0.3,0.1,0.6,0.1,0.8,0.1V59.1z"/>
	<path class="st8" d="M161.8,59.1h-6.4v-0.7c0.2,0,0.4,0,0.8-0.1c0.3,0,0.6-0.1,0.7-0.1c0.2-0.1,0.4-0.2,0.5-0.3
		c0.1-0.2,0.2-0.4,0.2-0.6v-4.7h-7.3v4.6c0,0.2,0,0.4,0.1,0.5c0.1,0.1,0.3,0.3,0.5,0.4c0.1,0.1,0.3,0.1,0.7,0.2
		c0.3,0.1,0.6,0.1,0.8,0.1v0.7h-6.4v-0.7c0.2,0,0.4,0,0.8-0.1c0.3,0,0.6-0.1,0.7-0.1c0.2-0.1,0.4-0.2,0.5-0.3
		c0.1-0.2,0.2-0.4,0.2-0.6v-9.5c0-0.2,0-0.4-0.1-0.5c-0.1-0.2-0.3-0.3-0.5-0.4c-0.2-0.1-0.4-0.2-0.7-0.2c-0.3-0.1-0.5-0.1-0.7-0.1
		v-0.7h6.4v0.7c-0.2,0-0.5,0-0.8,0.1c-0.3,0-0.5,0.1-0.7,0.1c-0.2,0.1-0.4,0.2-0.5,0.4c-0.1,0.2-0.1,0.4-0.1,0.6v4.1h7.3v-4
		c0-0.2,0-0.4-0.1-0.5c-0.1-0.2-0.3-0.3-0.5-0.4c-0.2-0.1-0.4-0.2-0.7-0.2c-0.3-0.1-0.5-0.1-0.7-0.1v-0.7h6.4v0.7
		c-0.2,0-0.5,0-0.8,0.1c-0.3,0-0.5,0.1-0.7,0.1c-0.2,0.1-0.4,0.2-0.5,0.4c-0.1,0.2-0.1,0.4-0.1,0.6v9.5c0,0.2,0,0.4,0.1,0.5
		c0.1,0.1,0.3,0.3,0.5,0.4c0.1,0.1,0.3,0.1,0.7,0.2c0.3,0.1,0.6,0.1,0.8,0.1V59.1z"/>
	<path class="st9" d="M176.7,55.2l-0.3,3.9h-12.8v-0.7c0.2,0,0.5,0,0.9-0.1c0.4,0,0.6-0.1,0.7-0.1c0.2-0.1,0.4-0.2,0.5-0.4
		c0.1-0.1,0.1-0.3,0.1-0.6v-9.5c0-0.2,0-0.4-0.1-0.5c-0.1-0.2-0.2-0.3-0.5-0.4c-0.2-0.1-0.5-0.2-0.8-0.2c-0.3-0.1-0.6-0.1-0.8-0.1
		v-0.7h12v3.2h-0.8c-0.1-0.5-0.5-1-0.9-1.5c-0.5-0.5-0.9-0.8-1.4-0.9c-0.2,0-0.5,0-0.8-0.1c-0.3,0-0.7,0-1.1,0h-2.4v5.2h1.7
		c0.6,0,1,0,1.2-0.1c0.3-0.1,0.5-0.2,0.7-0.5c0.2-0.2,0.3-0.4,0.4-0.7c0.1-0.3,0.2-0.6,0.2-0.9h0.8v5.2h-0.8c0-0.3-0.1-0.6-0.2-0.9
		c-0.1-0.3-0.3-0.6-0.4-0.7c-0.2-0.2-0.5-0.4-0.8-0.5c-0.3-0.1-0.7-0.1-1.1-0.1h-1.7v4c0,0.4,0,0.7,0.1,0.9c0.1,0.2,0.2,0.4,0.4,0.5
		c0.2,0.1,0.4,0.2,0.8,0.2c0.3,0,0.8,0,1.4,0h1c0.4,0,0.7,0,1,0c0.3,0,0.6-0.1,0.8-0.1c0.3-0.1,0.5-0.2,0.6-0.3
		c0.3-0.3,0.7-0.7,1-1.3c0.4-0.6,0.6-1.1,0.7-1.3H176.7z"/>
	<path class="st8" d="M176.7,55.2l-0.3,3.9h-12.8v-0.7c0.2,0,0.5,0,0.9-0.1c0.4,0,0.6-0.1,0.7-0.1c0.2-0.1,0.4-0.2,0.5-0.4
		c0.1-0.1,0.1-0.3,0.1-0.6v-9.5c0-0.2,0-0.4-0.1-0.5c-0.1-0.2-0.2-0.3-0.5-0.4c-0.2-0.1-0.5-0.2-0.8-0.2c-0.3-0.1-0.6-0.1-0.8-0.1
		v-0.7h12v3.2h-0.8c-0.1-0.5-0.5-1-0.9-1.5c-0.5-0.5-0.9-0.8-1.4-0.9c-0.2,0-0.5,0-0.8-0.1c-0.3,0-0.7,0-1.1,0h-2.4v5.2h1.7
		c0.6,0,1,0,1.2-0.1c0.3-0.1,0.5-0.2,0.7-0.5c0.2-0.2,0.3-0.4,0.4-0.7c0.1-0.3,0.2-0.6,0.2-0.9h0.8v5.2h-0.8c0-0.3-0.1-0.6-0.2-0.9
		c-0.1-0.3-0.3-0.6-0.4-0.7c-0.2-0.2-0.5-0.4-0.8-0.5c-0.3-0.1-0.7-0.1-1.1-0.1h-1.7v4c0,0.4,0,0.7,0.1,0.9c0.1,0.2,0.2,0.4,0.4,0.5
		c0.2,0.1,0.4,0.2,0.8,0.2c0.3,0,0.8,0,1.4,0h1c0.4,0,0.7,0,1,0c0.3,0,0.6-0.1,0.8-0.1c0.3-0.1,0.5-0.2,0.6-0.3
		c0.3-0.3,0.7-0.7,1-1.3c0.4-0.6,0.6-1.1,0.7-1.3H176.7z"/>
	<path class="st9" d="M170.4,143.5c1.1,0.9,2,2,2.7,3.4c0.7,1.4,1.1,3.1,1.1,5.1c0,2.1-0.4,3.8-1.1,5.4c-0.8,1.5-1.7,2.8-3,3.7
		c-1.2,1-2.5,1.7-4,2.2c-1.5,0.5-3,0.7-4.6,0.7h-17.8v-2.2c0.4,0,1-0.1,1.9-0.2c0.8-0.1,1.4-0.3,1.7-0.5c0.5-0.3,0.9-0.7,1.2-1.2
		c0.2-0.5,0.3-1.1,0.3-1.9v-31.8c0-0.7-0.1-1.3-0.3-1.9c-0.2-0.5-0.6-1-1.2-1.3c-0.5-0.3-1.1-0.6-1.8-0.7c-0.7-0.2-1.2-0.3-1.6-0.3
		v-2.2h17.4c1.3,0,2.6,0.2,3.8,0.5c1.2,0.3,2.4,0.9,3.5,1.7c1,0.7,1.9,1.7,2.6,3c0.7,1.2,1,2.8,1,4.6c0,1.6-0.2,3-0.7,4.2
		c-0.5,1.2-1.1,2.2-2,3.1c-0.8,0.8-1.7,1.5-2.8,2.1c-1,0.6-2.2,1-3.4,1.3v0.3c1.1,0.1,2.3,0.5,3.6,1
		C168.1,142,169.3,142.7,170.4,143.5 M164,136.9c0.7-0.9,1.1-1.9,1.4-2.9c0.3-1.1,0.4-2.3,0.4-3.8c0-2.4-0.6-4.3-1.7-5.7
		c-1.1-1.4-2.9-2.1-5.4-2.1c-0.6,0-1.3,0-2.1,0.1c-0.8,0-1.6,0-2.1,0.1v17h3.4c1.4,0,2.7-0.2,3.7-0.7
		C162.5,138.4,163.4,137.7,164,136.9 M167.6,151c0-2.6-0.8-4.8-2.3-6.5c-1.5-1.7-3.6-2.5-6.4-2.5c-1.1,0-2.1,0-2.9,0.1
		c-0.8,0-1.4,0-1.7,0.1v15.6c0,1.3,0.5,2.3,1.4,3c0.9,0.7,2.2,1,3.8,1c2.6,0,4.6-0.9,6-2.7C166.9,157.2,167.6,154.5,167.6,151"/>
	<path class="st3" d="M170.4,143.5c1.1,0.9,2,2,2.7,3.4c0.7,1.4,1.1,3.1,1.1,5.1c0,2.1-0.4,3.8-1.1,5.4c-0.8,1.5-1.7,2.8-3,3.7
		c-1.2,1-2.5,1.7-4,2.2c-1.5,0.5-3,0.7-4.6,0.7h-17.8v-2.2c0.4,0,1-0.1,1.9-0.2c0.8-0.1,1.4-0.3,1.7-0.5c0.5-0.3,0.9-0.7,1.2-1.2
		c0.2-0.5,0.3-1.1,0.3-1.9v-31.8c0-0.7-0.1-1.3-0.3-1.9c-0.2-0.5-0.6-1-1.2-1.3c-0.5-0.3-1.1-0.6-1.8-0.7c-0.7-0.2-1.2-0.3-1.6-0.3
		v-2.2h17.4c1.3,0,2.6,0.2,3.8,0.5c1.2,0.3,2.4,0.9,3.5,1.7c1,0.7,1.9,1.7,2.6,3c0.7,1.2,1,2.8,1,4.6c0,1.6-0.2,3-0.7,4.2
		c-0.5,1.2-1.1,2.2-2,3.1c-0.8,0.8-1.7,1.5-2.8,2.1c-1,0.6-2.2,1-3.4,1.3v0.3c1.1,0.1,2.3,0.5,3.6,1
		C168.1,142,169.3,142.7,170.4,143.5z M164,136.9c0.7-0.9,1.1-1.9,1.4-2.9c0.3-1.1,0.4-2.3,0.4-3.8c0-2.4-0.6-4.3-1.7-5.7
		c-1.1-1.4-2.9-2.1-5.4-2.1c-0.6,0-1.3,0-2.1,0.1c-0.8,0-1.6,0-2.1,0.1v17h3.4c1.4,0,2.7-0.2,3.7-0.7
		C162.5,138.4,163.4,137.7,164,136.9z M167.6,151c0-2.6-0.8-4.8-2.3-6.5c-1.5-1.7-3.6-2.5-6.4-2.5c-1.1,0-2.1,0-2.9,0.1
		c-0.8,0-1.4,0-1.7,0.1v15.6c0,1.3,0.5,2.3,1.4,3c0.9,0.7,2.2,1,3.8,1c2.6,0,4.6-0.9,6-2.7C166.9,157.2,167.6,154.5,167.6,151z"/>
	<path class="st9" d="M200.6,163.6c-0.8,0.4-1.6,0.6-2.2,0.8c-0.6,0.2-1.3,0.3-2.1,0.3c-1.4,0-2.5-0.4-3.3-1.1
		c-0.8-0.8-1.3-1.9-1.6-3.3h-0.2c-1.1,1.5-2.4,2.6-3.7,3.4c-1.3,0.8-2.9,1.2-4.7,1.2c-2,0-3.6-0.7-4.8-2.1c-1.3-1.4-1.9-3.3-1.9-5.5
		c0-1.2,0.1-2.2,0.4-3.2c0.3-0.9,0.7-1.8,1.3-2.5c0.4-0.6,1-1.2,1.7-1.7c0.7-0.5,1.4-0.9,2-1.2c0.8-0.4,2.4-1,4.8-2
		c2.4-1,4.1-1.7,4.9-2.2v-3.1c0-0.3-0.1-0.8-0.2-1.6c-0.1-0.8-0.3-1.5-0.6-2.2c-0.4-0.8-0.9-1.4-1.5-2c-0.6-0.6-1.5-0.9-2.7-0.9
		c-0.8,0-1.6,0.2-2.3,0.5c-0.7,0.3-1.2,0.6-1.5,1c0,0.4,0.1,1,0.2,1.8c0.2,0.8,0.3,1.6,0.3,2.2c0,0.7-0.3,1.4-0.8,2
		c-0.5,0.6-1.3,0.9-2.3,0.9c-0.9,0-1.5-0.4-2-1.1c-0.4-0.7-0.6-1.6-0.6-2.5c0-1,0.3-1.9,0.8-2.7c0.6-0.9,1.3-1.7,2.3-2.3
		c0.8-0.6,1.8-1.1,2.9-1.5c1.1-0.4,2.2-0.6,3.3-0.6c1.5,0,2.8,0.1,3.9,0.4c1.1,0.2,2.1,0.7,3,1.5c0.9,0.8,1.6,1.8,2,3.1
		c0.5,1.3,0.7,3,0.7,5.1c0,3,0,5.6-0.1,7.9c-0.1,2.3-0.1,4.8-0.1,7.5c0,0.8,0.1,1.5,0.3,1.9c0.2,0.5,0.6,0.9,1.1,1.2
		c0.3,0.2,0.7,0.3,1.2,0.3c0.6,0,1.2,0,1.8,0V163.6z M191.4,147.1c-1.5,0.5-2.8,1-3.9,1.5c-1.1,0.5-2.2,1.1-3.2,1.9
		c-0.9,0.7-1.6,1.5-2.1,2.5c-0.5,1-0.8,2.1-0.8,3.4c0,1.7,0.4,3,1.1,3.8c0.8,0.8,1.8,1.2,2.9,1.2c1.3,0,2.4-0.4,3.3-1.1
		c1-0.7,1.8-1.6,2.4-2.6L191.4,147.1z"/>
	<path class="st3" d="M200.6,163.6c-0.8,0.4-1.6,0.6-2.2,0.8c-0.6,0.2-1.3,0.3-2.1,0.3c-1.4,0-2.5-0.4-3.3-1.1
		c-0.8-0.8-1.3-1.9-1.6-3.3h-0.2c-1.1,1.5-2.4,2.6-3.7,3.4c-1.3,0.8-2.9,1.2-4.7,1.2c-2,0-3.6-0.7-4.8-2.1c-1.3-1.4-1.9-3.3-1.9-5.5
		c0-1.2,0.1-2.2,0.4-3.2c0.3-0.9,0.7-1.8,1.3-2.5c0.4-0.6,1-1.2,1.7-1.7c0.7-0.5,1.4-0.9,2-1.2c0.8-0.4,2.4-1,4.8-2
		c2.4-1,4.1-1.7,4.9-2.2v-3.1c0-0.3-0.1-0.8-0.2-1.6c-0.1-0.8-0.3-1.5-0.6-2.2c-0.4-0.8-0.9-1.4-1.5-2c-0.6-0.6-1.5-0.9-2.7-0.9
		c-0.8,0-1.6,0.2-2.3,0.5c-0.7,0.3-1.2,0.6-1.5,1c0,0.4,0.1,1,0.2,1.8c0.2,0.8,0.3,1.6,0.3,2.2c0,0.7-0.3,1.4-0.8,2
		c-0.5,0.6-1.3,0.9-2.3,0.9c-0.9,0-1.5-0.4-2-1.1c-0.4-0.7-0.6-1.6-0.6-2.5c0-1,0.3-1.9,0.8-2.7c0.6-0.9,1.3-1.7,2.3-2.3
		c0.8-0.6,1.8-1.1,2.9-1.5c1.1-0.4,2.2-0.6,3.3-0.6c1.5,0,2.8,0.1,3.9,0.4c1.1,0.2,2.1,0.7,3,1.5c0.9,0.8,1.6,1.8,2,3.1
		c0.5,1.3,0.7,3,0.7,5.1c0,3,0,5.6-0.1,7.9c-0.1,2.3-0.1,4.8-0.1,7.5c0,0.8,0.1,1.5,0.3,1.9c0.2,0.5,0.6,0.9,1.1,1.2
		c0.3,0.2,0.7,0.3,1.2,0.3c0.6,0,1.2,0,1.8,0V163.6z M191.4,147.1c-1.5,0.5-2.8,1-3.9,1.5c-1.1,0.5-2.2,1.1-3.2,1.9
		c-0.9,0.7-1.6,1.5-2.1,2.5c-0.5,1-0.8,2.1-0.8,3.4c0,1.7,0.4,3,1.1,3.8c0.8,0.8,1.8,1.2,2.9,1.2c1.3,0,2.4-0.4,3.3-1.1
		c1-0.7,1.8-1.6,2.4-2.6L191.4,147.1z"/>
	<path class="st9" d="M229.5,164.1h-12.8v-2.1c0.4,0,0.8-0.1,1.3-0.1c0.5,0,0.9-0.1,1.2-0.2c0.5-0.2,0.9-0.5,1.1-1
		c0.2-0.5,0.4-1.1,0.4-1.8v-15.8c0-2.2-0.4-3.9-1.3-5c-0.9-1.2-1.9-1.8-3.2-1.8c-0.9,0-1.8,0.2-2.6,0.5c-0.8,0.3-1.5,0.7-2.1,1.2
		c-0.6,0.5-1.1,1-1.4,1.6c-0.3,0.5-0.6,1-0.7,1.3v17.7c0,0.7,0.1,1.3,0.4,1.7c0.2,0.5,0.6,0.8,1.1,1.1c0.4,0.2,0.8,0.4,1.2,0.5
		c0.4,0.1,0.9,0.2,1.3,0.2v2.1h-12.8v-2.1c0.4,0,0.8-0.1,1.2-0.1c0.4,0,0.8-0.1,1.1-0.2c0.5-0.2,0.9-0.5,1.1-1
		c0.2-0.5,0.4-1.1,0.4-1.8v-19c0-0.7-0.1-1.4-0.4-1.9c-0.2-0.6-0.6-1.1-1.1-1.5c-0.3-0.2-0.7-0.4-1.2-0.5c-0.5-0.1-1-0.2-1.5-0.2v-2
		l8.7-0.7l0.4,0.4v4.3h0.1c0.4-0.5,1-1.1,1.6-1.8c0.6-0.7,1.2-1.3,1.8-1.7c0.7-0.5,1.4-0.9,2.3-1.2c0.9-0.3,1.9-0.5,3-0.5
		c2.5,0,4.4,0.9,5.6,2.8c1.2,1.8,1.8,4.3,1.8,7.3v16c0,0.7,0.1,1.3,0.3,1.8c0.2,0.4,0.6,0.8,1.1,1c0.4,0.2,0.8,0.4,1.1,0.4
		c0.3,0.1,0.8,0.1,1.3,0.2V164.1z"/>
	<path class="st3" d="M229.5,164.1h-12.8v-2.1c0.4,0,0.8-0.1,1.3-0.1c0.5,0,0.9-0.1,1.2-0.2c0.5-0.2,0.9-0.5,1.1-1
		c0.2-0.5,0.4-1.1,0.4-1.8v-15.8c0-2.2-0.4-3.9-1.3-5c-0.9-1.2-1.9-1.8-3.2-1.8c-0.9,0-1.8,0.2-2.6,0.5c-0.8,0.3-1.5,0.7-2.1,1.2
		c-0.6,0.5-1.1,1-1.4,1.6c-0.3,0.5-0.6,1-0.7,1.3v17.7c0,0.7,0.1,1.3,0.4,1.7c0.2,0.5,0.6,0.8,1.1,1.1c0.4,0.2,0.8,0.4,1.2,0.5
		c0.4,0.1,0.9,0.2,1.3,0.2v2.1h-12.8v-2.1c0.4,0,0.8-0.1,1.2-0.1c0.4,0,0.8-0.1,1.1-0.2c0.5-0.2,0.9-0.5,1.1-1
		c0.2-0.5,0.4-1.1,0.4-1.8v-19c0-0.7-0.1-1.4-0.4-1.9c-0.2-0.6-0.6-1.1-1.1-1.5c-0.3-0.2-0.7-0.4-1.2-0.5c-0.5-0.1-1-0.2-1.5-0.2v-2
		l8.7-0.7l0.4,0.4v4.3h0.1c0.4-0.5,1-1.1,1.6-1.8c0.6-0.7,1.2-1.3,1.8-1.7c0.7-0.5,1.4-0.9,2.3-1.2c0.9-0.3,1.9-0.5,3-0.5
		c2.5,0,4.4,0.9,5.6,2.8c1.2,1.8,1.8,4.3,1.8,7.3v16c0,0.7,0.1,1.3,0.3,1.8c0.2,0.4,0.6,0.8,1.1,1c0.4,0.2,0.8,0.4,1.1,0.4
		c0.3,0.1,0.8,0.1,1.3,0.2V164.1z"/>
	<path class="st9" d="M257.8,164.1h-7.9c-1.4-2.3-2.9-4.9-4.4-7.5c-1.6-2.7-3.2-5.3-4.9-7.8l-2.2,2.4v7.3c0,0.7,0.1,1.4,0.3,1.9
		c0.2,0.5,0.6,0.8,1.1,1.1c0.4,0.2,0.8,0.4,1.2,0.5s0.8,0.2,1.4,0.2v2.1h-12.8v-2.1c0.4,0,0.8-0.1,1.3-0.1c0.4-0.1,0.8-0.1,1.1-0.2
		c0.5-0.2,0.9-0.5,1.1-1c0.2-0.5,0.4-1.1,0.4-1.8v-32.2c0-0.8-0.1-1.5-0.4-2.2c-0.3-0.7-0.6-1.2-1.1-1.6c-0.4-0.3-1-0.5-1.7-0.7
		c-0.8-0.1-1.4-0.2-1.9-0.2v-2l9.7-0.1l0.4,0.5v28.4c1.4-1.6,2.9-3.4,4.5-5.2c1.6-1.9,2.4-2.6,3.5-4c0.1-0.2,0.3-0.4,0.5-0.7
		c0.2-0.3,0.3-0.6,0.3-0.7c0-0.6-0.4-1-1.2-1.2c-0.8-0.3-1.5-0.5-2.2-0.6v-2h11.5v1.9c-1.5,0.5-2.8,1.2-3.9,2
		c-1.1,0.8-2,1.5-2.6,2.1c-0.4,0.4-0.7,0.7-1.5,1.7c-0.8,0.9-1.6,1.6-3,3.1c1.4,2.1,3.1,4.6,4.9,7.5c1.8,2.9,3.1,5,4,6.4
		c0.8,1.2,1.5,2,2.1,2.4c0.6,0.4,1.5,0.6,2.7,0.7V164.1z"/>
	<path class="st3" d="M257.8,164.1h-7.9c-1.4-2.3-2.9-4.9-4.4-7.5c-1.6-2.7-3.2-5.3-4.9-7.8l-2.2,2.4v7.3c0,0.7,0.1,1.4,0.3,1.9
		c0.2,0.5,0.6,0.8,1.1,1.1c0.4,0.2,0.8,0.4,1.2,0.5s0.8,0.2,1.4,0.2v2.1h-12.8v-2.1c0.4,0,0.8-0.1,1.3-0.1c0.4-0.1,0.8-0.1,1.1-0.2
		c0.5-0.2,0.9-0.5,1.1-1c0.2-0.5,0.4-1.1,0.4-1.8v-32.2c0-0.8-0.1-1.5-0.4-2.2c-0.3-0.7-0.6-1.2-1.1-1.6c-0.4-0.3-1-0.5-1.7-0.7
		c-0.8-0.1-1.4-0.2-1.9-0.2v-2l9.7-0.1l0.4,0.5v28.4c1.4-1.6,2.9-3.4,4.5-5.2c1.6-1.9,2.4-2.6,3.5-4c0.1-0.2,0.3-0.4,0.5-0.7
		c0.2-0.3,0.3-0.6,0.3-0.7c0-0.6-0.4-1-1.2-1.2c-0.8-0.3-1.5-0.5-2.2-0.6v-2h11.5v1.9c-1.5,0.5-2.8,1.2-3.9,2
		c-1.1,0.8-2,1.5-2.6,2.1c-0.4,0.4-0.7,0.7-1.5,1.7c-0.8,0.9-1.6,1.6-3,3.1c1.4,2.1,3.1,4.6,4.9,7.5c1.8,2.9,3.1,5,4,6.4
		c0.8,1.2,1.5,2,2.1,2.4c0.6,0.4,1.5,0.6,2.7,0.7V164.1z"/>
	<rect x="279.8" y="183.9" class="st7" width="10.1" height="2.6"/>
	<rect x="279.8" y="188" class="st7" width="10.1" height="2.6"/>
	<path class="st9" d="M271.2,199.6v1.3h1.8v-0.6h-1.3v-0.7H271.2z M273.4,199.6c0.1,1.2,0.8,1.3,1.1,1.3c0.1,0,0.4,0,0.6-0.2
		l0.3,0.4l0.3-0.4l-0.3-0.3c0.1-0.2,0.2-0.4,0.2-0.8h-0.5c0,0.1,0,0.2-0.1,0.3l-0.2-0.3h0l-0.2,0.4l0.2,0.3
		c-0.1,0.1-0.2,0.1-0.3,0.1c-0.2,0-0.5-0.2-0.6-0.8H273.4z M276,199.6v0.1c0,0.3,0.1,0.6,0.2,0.8c0.2,0.3,0.5,0.4,0.7,0.4
		c0.6,0,1-0.4,1-1.2v-0.1h-0.5v0.1c0,0.4-0.1,0.6-0.5,0.6c-0.2,0-0.4-0.2-0.4-0.7v-0.1H276z M278.6,199.6l-0.3,1.3h0.5l0.2-0.7h0.9
		l0.1,0.7h0.5l-0.3-1.3h-0.5l0,0h-0.6l0,0H278.6z M280.9,199.6v1.3h1.7v-0.6h-1.2v-0.7H280.9z M283.8,200.8h0.5v-1.3h-0.5V200.8z
		 M285.2,200.8h0.5v-1.3h-0.5V200.8z M286.2,199.6c0.1,1.2,0.8,1.3,1.1,1.3c0.3,0,1-0.2,1.1-1.3l-0.5,0c-0.1,0.6-0.4,0.8-0.6,0.8
		c-0.2,0-0.5-0.2-0.6-0.8H286.2z M288.8,199.6v0.1c0,0.3,0.1,0.6,0.2,0.8c0.2,0.3,0.5,0.4,0.7,0.4c0.6,0,1-0.4,1-1.2v-0.1h-0.5v0.1
		c0,0.4-0.1,0.6-0.5,0.6c-0.2,0-0.4-0.2-0.4-0.7v-0.1H288.8z M292.3,199.6c0.2,0.1,0.3,0.2,0.3,0.3c0,0.3-0.3,0.4-0.5,0.4
		c-0.4,0-0.5-0.3-0.5-0.5h-0.5c0,0.4,0.1,1.1,1,1.1c0.2,0,0.9-0.1,0.9-1.1c0-0.1,0-0.2,0-0.3L292.3,199.6z M293.5,200.8h0.5v-1.3
		h-0.5V200.8z M294.4,200.8h0.5v-1.3h-0.5V200.8z M295.3,199.6l0.5,1.3h0.5v-1.3h-0.5v0.3h0l-0.1-0.3H295.3z M296.8,199.6
		c0.1,0.9,0.6,1.3,1.1,1.3c0.4,0,0.6-0.3,0.7-0.5l0,0.4h0.3v-1.3h-1v0h0.5c-0.1,0.7-0.5,0.7-0.6,0.7c-0.3,0-0.6-0.2-0.7-0.8
		L296.8,199.6z"/>
	<path class="st9" d="M271.2,198.1v1.5h0.5v-0.2h1.1v-0.6h-1.1v-0.7h1.2v0H271.2z M273.6,198.1c-0.1,0.3-0.2,0.6-0.2,1.1
		c0,0.1,0,0.3,0,0.4l0.5,0c0-0.1,0-0.2,0-0.4c0-0.7,0.2-1,0.5-1.1L273.6,198.1z M274.7,198.1c0.2,0.1,0.5,0.4,0.5,1.1
		c0,0.1,0,0.3,0,0.4l0.5,0c0-0.1,0-0.2,0-0.4c0-0.5-0.1-0.9-0.2-1.1H274.7z M276,199.6h0.5v-1.5H276V199.6z M277.4,199.6h0.5v-1.5
		h-0.5V199.6z M279,198.1l-0.4,1.5h0.5l0.3-1.3h0l0.3,1.3h0.5l-0.4-1.5H279z M280.9,199.6h0.5v-1.5h-0.5V199.6z M283.8,198.1v1.5
		h0.5v-0.2h0.9v0.2h0.5v-1.5h-0.5v0.7h-0.9v-0.7H283.8z M286.4,198.1c-0.1,0.3-0.2,0.6-0.2,1.1c0,0.1,0,0.3,0,0.4l0.5,0
		c0-0.1,0-0.2,0-0.4c0-0.7,0.2-1,0.5-1.1L286.4,198.1z M287.5,198.1c0.2,0.1,0.5,0.4,0.5,1.1c0,0.1,0,0.3,0,0.4h0.5
		c0-0.1,0-0.2,0-0.4c0-0.5-0.1-0.9-0.2-1.1H287.5z M288.8,199.6h0.5v-1.5h-0.5V199.6z M290.2,199.6h0.5v-1.5h-0.5V199.6z
		 M291.2,198.1c0,0.1-0.1,0.3-0.1,0.4c0,0.7,0.4,0.8,0.7,1l0.3,0.1c0.1,0,0.1,0,0.2,0.1l0.7,0c-0.1-0.4-0.3-0.5-0.6-0.6l-0.6-0.2
		c-0.1,0-0.2-0.1-0.2-0.3c0-0.2,0.1-0.3,0.2-0.3L291.2,198.1z M292.3,198.1c0.2,0.1,0.2,0.3,0.2,0.4h0.5c0-0.1,0-0.3-0.1-0.4H292.3z
		 M293.5,199.6h0.5v-1.5h-0.5V199.6z M294.4,198.1v1.5h0.5v-1.1h0l0.4,1.1h0.4l-0.6-1.5H294.4z M295.9,199.6h0.5v-1.5h-0.5V199.6z
		 M297,198.1c-0.2,0.3-0.2,0.7-0.2,1.1c0,0.1,0,0.3,0,0.4h0.5c0-0.1,0-0.2,0-0.4c0-0.7,0.2-1,0.4-1.1H297z M298.1,198.1
		c0.2,0.1,0.3,0.4,0.3,0.5h0.5c0-0.1,0-0.3-0.1-0.5H298.1z M274.8,199.6L274.8,199.6L274.8,199.6L274.8,199.6z M299,199h-1v0.5h1
		V199z"/>
	<path class="st9" d="M272.9,197.5h-1.7v0.5h1.7V197.5z M274.3,198.1c0.1,0,0.1,0,0.2,0c0.1,0,0.1,0,0.2,0l0.7,0
		c-0.3-0.5-0.7-0.6-0.9-0.6s-0.7,0.1-0.9,0.6H274.3z M276.5,197.5H276v0.5h0.5V197.5z M277.9,197.5h-0.5v0.5h0.5V197.5z
		 M279.8,198.1l-0.1-0.5h-0.6l-0.1,0.5H279.8z M281.4,197.5h-0.5v0.5h0.5V197.5z M284.3,197.5h-0.5v0.5h0.5V197.5z M285.7,197.5
		h-0.5v0.5h0.5V197.5z M287.1,198.1c0.1,0,0.1,0,0.2,0c0.1,0,0.1,0,0.2,0l0.7,0c-0.3-0.5-0.7-0.6-0.9-0.6c-0.2,0-0.7,0.1-0.9,0.6
		H287.1z M289.3,197.5h-0.5v0.5h0.5V197.5z M290.7,197.5h-0.5v0.5h0.5V197.5z M291.8,198.1c0.1,0,0.1-0.1,0.2-0.1
		c0.1,0,0.2,0,0.2,0.1l0.6,0c-0.1-0.3-0.4-0.6-0.8-0.6c-0.5,0-0.8,0.3-0.8,0.6H291.8z M294,197.5h-0.5v0.5h0.5V197.5z M295.2,198.1
		l-0.2-0.5h-0.5v0.5H295.2z M296.4,197.5h-0.5v0.5h0.5V197.5z M297.7,198.1c0.1,0,0.1-0.1,0.2-0.1c0.1,0,0.1,0,0.2,0.1l0.7,0
		c-0.1-0.3-0.4-0.6-0.9-0.6c-0.4,0-0.7,0.2-0.9,0.6L297.7,198.1z"/>
	<path class="st7" d="M272.9,197.5h-1.7v3.3h1.8v-0.6h-1.3v-0.9h1.1v-0.6h-1.1v-0.7h1.2V197.5z M274.5,199.9l0.2,0.3
		c-0.1,0.1-0.2,0.1-0.3,0.1c-0.3,0-0.6-0.2-0.6-1.1s0.4-1.1,0.6-1.1c0.3,0,0.6,0.2,0.6,1.1c0,0.3,0,0.5-0.1,0.7l-0.2-0.3
		L274.5,199.9z M275.6,200.7l-0.3-0.3c0.1-0.3,0.2-0.6,0.2-1.2c0-1.5-0.8-1.7-1.1-1.7c-0.3,0-1.1,0.2-1.1,1.7s0.8,1.7,1.1,1.7
		c0.1,0,0.4,0,0.6-0.2l0.3,0.4L275.6,200.7z M277.9,197.5h-0.5v2.2c0,0.4-0.1,0.6-0.5,0.6c-0.2,0-0.4-0.2-0.4-0.7v-2.1H276v2.2
		c0,0.3,0.1,0.6,0.2,0.8c0.2,0.3,0.5,0.4,0.7,0.4c0.6,0,1-0.4,1-1.2V197.5z M279,200.1h0.9l0.1,0.7h0.5l-0.8-3.3h-0.6l-0.8,3.3h0.5
		L279,200.1z M279.4,198.3L279.4,198.3l0.3,1.3h-0.6L279.4,198.3z M281.4,197.5h-0.5v3.3h1.7v-0.6h-1.2V197.5z M285.2,199.3v1.5h0.5
		v-3.3h-0.5v1.2h-0.9v-1.2h-0.5v3.3h0.5v-1.5H285.2z M286.1,199.2c0,1.5,0.8,1.7,1.1,1.7c0.3,0,1.1-0.2,1.1-1.7s-0.8-1.7-1.1-1.7
		C287,197.4,286.1,197.6,286.1,199.2 M286.6,199.2c0-0.9,0.4-1.1,0.6-1.1c0.3,0,0.6,0.2,0.6,1.1s-0.4,1.1-0.6,1.1
		C287,200.3,286.6,200.1,286.6,199.2 M290.7,197.5h-0.5v2.2c0,0.4-0.1,0.6-0.5,0.6c-0.2,0-0.4-0.2-0.4-0.7v-2.1h-0.5v2.2
		c0,0.3,0.1,0.6,0.2,0.8c0.2,0.3,0.5,0.4,0.7,0.4c0.6,0,1-0.4,1-1.2V197.5z M291.1,199.8c0,0.4,0.1,1.1,1,1.1c0.2,0,0.9-0.1,0.9-1.1
		c0-0.6-0.3-0.8-0.6-0.9l-0.6-0.2c-0.1,0-0.2-0.1-0.2-0.3c0-0.3,0.2-0.4,0.4-0.4c0.4,0,0.5,0.3,0.5,0.5h0.5c0-0.4-0.2-1.1-0.9-1.1
		c-0.8,0-0.9,0.6-0.9,1c0,0.7,0.4,0.8,0.7,1l0.3,0.1c0.2,0.1,0.4,0.2,0.4,0.4c0,0.3-0.3,0.4-0.5,0.4c-0.4,0-0.5-0.3-0.5-0.5H291.1z
		 M294,197.5h-0.5v3.3h0.5V197.5z M295.9,199.8L295.9,199.8l-0.9-2.3h-0.5v3.3h0.5v-2.3h0l1,2.3h0.5v-3.3h-0.5V199.8z M298,199.6
		h0.5c-0.1,0.7-0.5,0.7-0.6,0.7c-0.3,0-0.7-0.2-0.7-1.1c0-0.8,0.3-1.2,0.7-1.2c0.3,0,0.5,0.4,0.5,0.5h0.5c0-0.5-0.3-1.1-1-1.1
		c-0.8,0-1.1,0.8-1.1,1.7c0,1.2,0.5,1.7,1.1,1.7c0.4,0,0.6-0.3,0.7-0.5l0,0.4h0.3V199h-1V199.6z"/>
	<path class="st9" d="M271.1,204.6v2.4h3.3v-0.9h-2.3v-1.4H271.1z M275.5,204.6v2.4h3.6v-0.9h-2.6v-1.4h2.3v-0.1H275.5z M280.2,207
		h0.9v-2.4h-0.9V207z M281.8,204.6l1.2,2.4h1v-2.4h-0.9v0.8h0l-0.4-0.8H281.8z M285.3,204.6v2.4h2c1.4,0,1.9-1.3,1.9-2.4l-1,0
		c-0.1,0.8-0.3,1.5-1.1,1.5h-1v-1.5H285.3z M290.4,204.6v2.4h3.6v-0.9h-2.6v-1.4h2.3v-0.1H290.4z M295.1,204.6v2.4h1v-2h1
		c0.7,0,0.8,0.3,0.8,1c0,0.5,0,0.8,0.1,1.1h1.1v-0.1c-0.2-0.1-0.2-0.3-0.2-1c0-0.8-0.1-1-0.4-1.2L295.1,204.6z"/>
	<path class="st9" d="M272.1,201.8h-1v2.8h1V201.8z M278.8,204.6v-0.8h-2.3v-1.1h2.5v-0.9h-3.5v2.8H278.8z M281.1,204.6v-1.3h0
		l0.7,1.3h0.9l-1.5-2.8h-1v2.8H281.1z M284,201.8h-0.9v2.8h0.9V201.8z M286.3,204.6v-1.9h0.9c0.4,0,1.1,0.1,1.1,1.7
		c0,0.1,0,0.2,0,0.3h1c0-0.1,0-0.2,0-0.3c0-1-0.3-2.5-1.9-2.5h-2.1v2.8H286.3z M293.7,204.6v-0.8h-2.3v-1.1h2.5v-0.9h-3.5v2.8H293.7
		z M298.5,204.6c-0.1,0-0.1-0.1-0.2-0.1c0.5-0.2,0.7-0.7,0.7-1.2c0-0.5-0.2-1.5-1.5-1.5h-2.4v2.8H298.5z M296.1,204.1v-1.4h1.2
		c0.6,0,0.7,0.4,0.7,0.7c0,0.5-0.2,0.7-0.8,0.7H296.1z"/>
	<path class="st7" d="M272.1,201.8h-1v5.2h3.3v-0.9h-2.3V201.8z M279,201.8h-3.5v5.2h3.6v-0.9h-2.6v-1.4h2.3v-0.9h-2.3v-1.1h2.5
		V201.8z M283.1,205.4L283.1,205.4l-1.9-3.6h-1v5.2h0.9v-3.7h0l1.9,3.7h1v-5.2h-0.9V205.4z M285.3,207h2c1.6,0,2-1.6,2-2.7
		c0-1-0.3-2.5-1.9-2.5h-2.1V207z M286.3,202.7h0.9c0.4,0,1.1,0.1,1.1,1.7c0,0.9-0.3,1.8-1.1,1.8h-1V202.7z M293.9,201.8h-3.5v5.2
		h3.6v-0.9h-2.6v-1.4h2.3v-0.9h-2.3v-1.1h2.5V201.8z M295.1,207h1v-2h1c0.7,0,0.8,0.3,0.8,1c0,0.5,0,0.8,0.1,1.1h1.1v-0.1
		c-0.2-0.1-0.2-0.3-0.2-1c0-1-0.2-1.1-0.6-1.3c0.5-0.2,0.7-0.7,0.7-1.2c0-0.5-0.2-1.5-1.5-1.5h-2.4V207z M296.1,204.1v-1.4h1.2
		c0.6,0,0.7,0.4,0.7,0.7c0,0.5-0.2,0.7-0.8,0.7H296.1z"/>
	<polygon class="st9" points="272.7,196.1 297,196.1 297,185.3 299.7,185.3 299.7,182.1 284.8,173.1 269.9,182.1 269.9,185.3 
		272.7,185.3 272.7,196.1 275.1,193.5 275.1,182.1 284.8,176.4 294.4,182.1 294.4,193.5 275.1,193.5 	"/>
	<polygon class="st5" points="272.7,196.1 297,196.1 297,185.3 299.7,185.3 299.7,182.1 284.8,173.1 269.9,182.1 269.9,185.3 
		272.7,185.3 272.7,196.1 275.1,193.5 275.1,182.1 284.8,176.4 294.4,182.1 294.4,193.5 275.1,193.5 	"/>
	<path class="st7" d="M139.6,187.9h1.4l2,6l2-6h1.4v7.1h-0.9v-4.2c0-0.1,0-0.4,0-0.7s0-0.7,0-1.1l-2,6h-0.9l-2-6v0.2
		c0,0.2,0,0.4,0,0.8c0,0.4,0,0.6,0,0.8v4.2h-0.9V187.9z"/>
	<path class="st7" d="M150.9,190c0.3,0.2,0.6,0.4,0.8,0.7c0.2,0.3,0.3,0.6,0.3,0.9c0.1,0.2,0.1,0.6,0.1,1.1h-3.7
		c0,0.5,0.1,0.9,0.4,1.3s0.6,0.5,1.1,0.5c0.4,0,0.8-0.1,1.1-0.4c0.1-0.2,0.3-0.4,0.3-0.6h0.9c0,0.2-0.1,0.4-0.2,0.6
		c-0.1,0.2-0.3,0.4-0.4,0.6c-0.3,0.3-0.6,0.4-1,0.5c-0.2,0.1-0.4,0.1-0.7,0.1c-0.6,0-1.2-0.2-1.6-0.7c-0.4-0.5-0.7-1.1-0.7-2
		c0-0.8,0.2-1.5,0.7-2c0.4-0.5,1-0.8,1.7-0.8C150.2,189.7,150.6,189.8,150.9,190 M151.2,192c0-0.4-0.1-0.7-0.2-0.9
		c-0.2-0.4-0.6-0.6-1.2-0.6c-0.4,0-0.7,0.1-1,0.4c-0.3,0.3-0.4,0.7-0.4,1.1H151.2z"/>
	<path class="st7" d="M153.2,189.8h0.9v0.7c0.2-0.3,0.4-0.4,0.6-0.6c0.3-0.2,0.6-0.3,1-0.3c0.4,0,0.7,0.1,1,0.3
		c0.1,0.1,0.3,0.3,0.4,0.5c0.2-0.3,0.4-0.5,0.7-0.6c0.3-0.1,0.5-0.2,0.9-0.2c0.7,0,1.2,0.2,1.4,0.7c0.1,0.3,0.2,0.6,0.2,1.1v3.4
		h-0.9v-3.6c0-0.3-0.1-0.6-0.3-0.7c-0.2-0.1-0.4-0.2-0.6-0.2c-0.3,0-0.6,0.1-0.9,0.3c-0.2,0.2-0.4,0.6-0.4,1.1v3h-0.9v-3.4
		c0-0.3,0-0.6-0.1-0.8c-0.1-0.2-0.4-0.4-0.7-0.4c-0.3,0-0.6,0.1-0.9,0.4s-0.4,0.7-0.4,1.4v2.7h-0.9V189.8z"/>
	<path class="st7" d="M161.3,187.9h0.8v2.6c0.2-0.2,0.4-0.4,0.7-0.6c0.3-0.1,0.6-0.2,0.9-0.2c0.6,0,1.2,0.2,1.6,0.7
		c0.4,0.4,0.6,1.1,0.6,1.9c0,0.8-0.2,1.5-0.6,2c-0.4,0.5-0.9,0.8-1.6,0.8c-0.4,0-0.7-0.1-1-0.3c-0.2-0.1-0.3-0.3-0.5-0.5v0.7h-0.8
		V187.9z M164.6,193.8c0.2-0.4,0.4-0.9,0.4-1.5c0-0.5-0.1-1-0.4-1.3s-0.6-0.5-1-0.5c-0.4,0-0.7,0.1-1,0.4c-0.3,0.3-0.4,0.8-0.4,1.4
		c0,0.5,0.1,0.9,0.2,1.2c0.2,0.6,0.7,0.9,1.3,0.9C164.1,194.4,164.4,194.2,164.6,193.8"/>
	<path class="st7" d="M170.1,190c0.3,0.2,0.6,0.4,0.8,0.7c0.2,0.3,0.3,0.6,0.3,0.9c0.1,0.2,0.1,0.6,0.1,1.1h-3.7
		c0,0.5,0.1,0.9,0.4,1.3c0.2,0.3,0.6,0.5,1.1,0.5c0.4,0,0.8-0.1,1.1-0.4c0.2-0.2,0.3-0.4,0.3-0.6h0.8c0,0.2-0.1,0.4-0.2,0.6
		c-0.1,0.2-0.3,0.4-0.4,0.6c-0.3,0.3-0.6,0.4-1,0.5c-0.2,0.1-0.4,0.1-0.7,0.1c-0.6,0-1.2-0.2-1.6-0.7c-0.4-0.5-0.7-1.1-0.7-2
		c0-0.8,0.2-1.5,0.7-2c0.4-0.5,1-0.8,1.7-0.8C169.4,189.7,169.7,189.8,170.1,190 M170.4,192c0-0.4-0.1-0.7-0.2-0.9
		c-0.2-0.4-0.6-0.6-1.2-0.6c-0.4,0-0.7,0.1-1,0.4c-0.3,0.3-0.4,0.7-0.4,1.1H170.4z"/>
	<path class="st7" d="M172.4,189.8h0.8v0.9c0.1-0.2,0.2-0.4,0.5-0.6c0.3-0.2,0.6-0.4,0.9-0.4c0,0,0,0,0.1,0c0,0,0.1,0,0.2,0v0.9
		c-0.1,0-0.1,0-0.1,0c0,0-0.1,0-0.1,0c-0.4,0-0.8,0.1-1,0.4c-0.2,0.3-0.4,0.6-0.4,1v3h-0.9V189.8z"/>
	<polygon class="st7" points="178.6,187.9 183.5,187.9 183.5,188.8 179.5,188.8 179.5,190.9 183,190.9 183,191.8 179.5,191.8 
		179.5,195 178.6,195 	"/>
	<path class="st7" d="M184.5,187.9h2.8c1,0,1.7,0.3,2.2,1c0.5,0.6,0.7,1.4,0.7,2.4c0,0.7-0.1,1.4-0.4,2c-0.5,1.1-1.3,1.6-2.5,1.6
		h-2.8V187.9z M187.2,194.2c0.3,0,0.6,0,0.8-0.1c0.4-0.1,0.7-0.4,0.9-0.7c0.2-0.3,0.3-0.7,0.4-1.1c0-0.3,0.1-0.5,0.1-0.7
		c0-0.9-0.2-1.6-0.5-2s-0.9-0.7-1.6-0.7h-1.7v5.4H187.2z"/>
	<rect x="191.8" y="187.9" class="st7" width="1" height="7.1"/>
	<path class="st7" d="M199.3,188.4c0.5,0.5,0.8,1,0.8,1.6h-0.9c-0.1-0.5-0.3-0.8-0.6-1.1c-0.3-0.3-0.7-0.4-1.3-0.4
		c-0.7,0-1.2,0.2-1.7,0.7c-0.4,0.5-0.6,1.2-0.6,2.2c0,0.8,0.2,1.5,0.6,2c0.4,0.5,0.9,0.8,1.7,0.8c0.7,0,1.2-0.3,1.6-0.8
		c0.2-0.3,0.3-0.7,0.4-1.1h0.9c-0.1,0.7-0.4,1.4-0.8,1.9c-0.6,0.6-1.3,0.9-2.2,0.9c-0.8,0-1.5-0.2-2-0.7c-0.7-0.7-1.1-1.7-1.1-3
		c0-1,0.3-1.9,0.8-2.6c0.6-0.7,1.4-1.1,2.4-1.1C198.2,187.7,198.8,188,199.3,188.4"/>
	<path class="st7" d="M205.9,190.7c0.2,0.2,0.3,0.5,0.3,0.8s-0.1,0.6-0.3,0.8c-0.2,0.2-0.5,0.3-0.8,0.3s-0.6-0.1-0.8-0.3
		c-0.2-0.2-0.3-0.5-0.3-0.8s0.1-0.6,0.3-0.8c0.2-0.2,0.5-0.3,0.8-0.3S205.7,190.5,205.9,190.7"/>
	<path class="st7" d="M210.3,187.9h1.4l2,6l2-6h1.4v7.1h-0.9v-4.2c0-0.1,0-0.4,0-0.7c0-0.3,0-0.7,0-1.1l-2,6h-0.9l-2-6v0.2
		c0,0.2,0,0.4,0,0.8c0,0.4,0,0.6,0,0.8v4.2h-0.9V187.9z"/>
	<path class="st7" d="M221.6,190c0.3,0.2,0.6,0.4,0.8,0.7c0.2,0.3,0.3,0.6,0.3,0.9c0.1,0.2,0.1,0.6,0.1,1.1h-3.7
		c0,0.5,0.1,0.9,0.4,1.3c0.2,0.3,0.6,0.5,1.1,0.5c0.4,0,0.8-0.1,1.1-0.4c0.2-0.2,0.3-0.4,0.3-0.6h0.8c0,0.2-0.1,0.4-0.2,0.6
		s-0.3,0.4-0.4,0.6c-0.3,0.3-0.6,0.4-1,0.5c-0.2,0.1-0.4,0.1-0.7,0.1c-0.6,0-1.2-0.2-1.6-0.7c-0.4-0.5-0.7-1.1-0.7-2
		c0-0.8,0.2-1.5,0.7-2c0.4-0.5,1-0.8,1.7-0.8C220.9,189.7,221.3,189.8,221.6,190 M221.9,192c0-0.4-0.1-0.7-0.2-0.9
		c-0.2-0.4-0.6-0.6-1.2-0.6c-0.4,0-0.7,0.1-1,0.4c-0.3,0.3-0.4,0.7-0.4,1.1H221.9z"/>
	<path class="st7" d="M223.9,189.8h0.9v0.7c0.2-0.3,0.4-0.4,0.6-0.6c0.3-0.2,0.6-0.3,1-0.3c0.4,0,0.7,0.1,1,0.3
		c0.1,0.1,0.3,0.3,0.4,0.5c0.2-0.3,0.4-0.5,0.7-0.6s0.5-0.2,0.9-0.2c0.7,0,1.2,0.2,1.4,0.7c0.1,0.3,0.2,0.6,0.2,1.1v3.4h-0.9v-3.6
		c0-0.3-0.1-0.6-0.3-0.7c-0.2-0.1-0.4-0.2-0.6-0.2c-0.3,0-0.6,0.1-0.9,0.3c-0.2,0.2-0.4,0.6-0.4,1.1v3h-0.9v-3.4
		c0-0.3,0-0.6-0.1-0.8c-0.1-0.2-0.4-0.4-0.7-0.4c-0.3,0-0.6,0.1-0.9,0.4c-0.3,0.3-0.4,0.7-0.4,1.4v2.7h-0.9V189.8z"/>
	<path class="st7" d="M232,187.9h0.8v2.6c0.2-0.2,0.4-0.4,0.7-0.6c0.3-0.1,0.5-0.2,0.9-0.2c0.6,0,1.2,0.2,1.6,0.7
		c0.4,0.4,0.6,1.1,0.6,1.9c0,0.8-0.2,1.5-0.6,2c-0.4,0.5-0.9,0.8-1.6,0.8c-0.4,0-0.7-0.1-1-0.3c-0.2-0.1-0.3-0.3-0.5-0.5v0.7H232
		V187.9z M235.3,193.8c0.2-0.4,0.3-0.9,0.3-1.5c0-0.5-0.1-1-0.3-1.3c-0.2-0.4-0.6-0.5-1-0.5c-0.4,0-0.7,0.1-1,0.4
		c-0.3,0.3-0.4,0.8-0.4,1.4c0,0.5,0.1,0.9,0.2,1.2c0.2,0.6,0.7,0.9,1.3,0.9C234.8,194.4,235.1,194.2,235.3,193.8"/>
	<path class="st7" d="M240.8,190c0.3,0.2,0.6,0.4,0.8,0.7c0.2,0.3,0.3,0.6,0.3,0.9c0.1,0.2,0.1,0.6,0.1,1.1h-3.7
		c0,0.5,0.1,0.9,0.4,1.3c0.2,0.3,0.6,0.5,1.1,0.5c0.4,0,0.8-0.1,1.1-0.4c0.1-0.2,0.3-0.4,0.3-0.6h0.8c0,0.2-0.1,0.4-0.2,0.6
		s-0.3,0.4-0.4,0.6c-0.3,0.3-0.6,0.4-1,0.5c-0.2,0.1-0.4,0.1-0.7,0.1c-0.6,0-1.2-0.2-1.6-0.7c-0.4-0.5-0.7-1.1-0.7-2
		c0-0.8,0.2-1.5,0.7-2c0.4-0.5,1-0.8,1.7-0.8C240.1,189.7,240.4,189.8,240.8,190 M241.1,192c0-0.4-0.1-0.7-0.2-0.9
		c-0.2-0.4-0.6-0.6-1.2-0.6c-0.4,0-0.7,0.1-1,0.4c-0.3,0.3-0.4,0.7-0.4,1.1H241.1z"/>
	<path class="st7" d="M243.1,189.8h0.8v0.9c0.1-0.2,0.2-0.4,0.5-0.6c0.3-0.2,0.6-0.4,0.9-0.4c0,0,0,0,0.1,0c0,0,0.1,0,0.2,0v0.9
		c-0.1,0-0.1,0-0.1,0c0,0-0.1,0-0.1,0c-0.4,0-0.8,0.1-1,0.4c-0.2,0.3-0.4,0.6-0.4,1v3h-0.9V189.8z"/>
	<path class="st7" d="M249.8,192.7c0,0.4,0.1,0.7,0.3,1c0.3,0.5,0.8,0.7,1.6,0.7c0.3,0,0.7-0.1,0.9-0.2c0.5-0.2,0.8-0.6,0.8-1.1
		c0-0.4-0.1-0.7-0.3-0.8c-0.2-0.2-0.6-0.3-1.1-0.4l-0.9-0.2c-0.6-0.1-1-0.3-1.3-0.5c-0.4-0.3-0.7-0.7-0.7-1.3c0-0.6,0.2-1.2,0.6-1.6
		c0.4-0.4,1-0.6,1.8-0.6c0.7,0,1.3,0.2,1.8,0.5c0.5,0.4,0.8,0.9,0.8,1.7h-0.9c0-0.4-0.1-0.7-0.3-0.9c-0.3-0.4-0.8-0.6-1.4-0.6
		c-0.5,0-0.9,0.1-1.2,0.4c-0.2,0.2-0.4,0.5-0.4,0.8c0,0.3,0.1,0.6,0.4,0.8c0.2,0.1,0.6,0.2,1.2,0.4l1,0.2c0.5,0.1,0.8,0.3,1.1,0.4
		c0.4,0.3,0.7,0.8,0.7,1.4c0,0.8-0.3,1.3-0.8,1.7c-0.6,0.3-1.2,0.5-1.9,0.5c-0.9,0-1.5-0.2-2-0.7c-0.5-0.4-0.7-1-0.7-1.8H249.8z"/>
	<rect x="256" y="187.9" class="st7" width="1" height="7.1"/>
	<polygon class="st7" points="258.6,187.9 263.5,187.9 263.5,188.8 259.5,188.8 259.5,190.9 263,190.9 263,191.8 259.5,191.8 
		259.5,195 258.6,195 	"/>
	<polygon class="st7" points="196.1,199.7 197.2,199.7 200.7,205.4 200.7,199.7 201.7,199.7 201.7,206.8 200.6,206.8 197,201.1 
		197,206.8 196.1,206.8 	"/>
	<path class="st7" d="M203.2,199.7h1.4l2,6l2-6h1.4v7.1H209v-4.2c0-0.1,0-0.4,0-0.7c0-0.3,0-0.7,0-1.1l-2,6h-0.9l-2-6v0.2
		c0,0.2,0,0.4,0,0.8c0,0.4,0,0.6,0,0.8v4.2h-0.9V199.7z"/>
	<polygon class="st7" points="211.4,199.7 212.4,199.7 212.4,205.9 215.9,205.9 215.9,206.8 211.4,206.8 	"/>
	<path class="st7" d="M217.5,204.5c0,0.4,0.1,0.7,0.3,1c0.3,0.5,0.8,0.7,1.6,0.7c0.3,0,0.7-0.1,0.9-0.2c0.5-0.2,0.8-0.6,0.8-1.1
		c0-0.4-0.1-0.7-0.3-0.8c-0.2-0.2-0.6-0.3-1.1-0.4l-0.9-0.2c-0.6-0.1-1-0.3-1.3-0.5c-0.4-0.3-0.7-0.7-0.7-1.3c0-0.6,0.2-1.2,0.6-1.6
		c0.4-0.4,1-0.6,1.8-0.6c0.7,0,1.3,0.2,1.8,0.5c0.5,0.4,0.8,0.9,0.8,1.7H221c0-0.4-0.1-0.7-0.3-0.9c-0.3-0.4-0.8-0.6-1.4-0.6
		c-0.5,0-0.9,0.1-1.2,0.4c-0.2,0.2-0.4,0.5-0.4,0.8c0,0.3,0.1,0.6,0.4,0.8c0.2,0.1,0.6,0.2,1.2,0.4l1,0.2c0.5,0.1,0.8,0.3,1.1,0.4
		c0.4,0.3,0.7,0.8,0.7,1.4c0,0.8-0.3,1.3-0.8,1.7c-0.6,0.3-1.2,0.5-1.9,0.5c-0.9,0-1.5-0.2-2-0.7c-0.5-0.4-0.7-1-0.7-1.8H217.5z"/>
	<path class="st7" d="M225.6,204.1h1.1l0.4-1.7H226l0.1-0.6h1.1l0.6-2.2h0.7l-0.6,2.2h1.1l0.6-2.2h0.7l-0.6,2.2h1.1l-0.2,0.6h-1.1
		l-0.4,1.7h1.1l-0.2,0.6H229l-0.6,2.1h-0.7l0.6-2.1h-1.1l-0.6,2.1H226l0.6-2.1h-1.1L225.6,204.1z M228.5,204.1l0.4-1.7h-1.1
		l-0.4,1.7H228.5z"/>
	<path class="st7" d="M234.2,206.8v-1.7h-3v-0.8l3.2-4.4h0.7v4.5h1v0.8h-1v1.7H234.2z M234.2,204.4v-3.1l-2.2,3.1H234.2z"/>
	<path class="st7" d="M241,201c0.3,0.6,0.5,1.3,0.5,2.3c0,0.9-0.1,1.7-0.4,2.3c-0.4,0.9-1.1,1.3-2,1.3c-0.8,0-1.4-0.4-1.8-1.1
		c-0.3-0.6-0.5-1.4-0.5-2.4c0-0.8,0.1-1.5,0.3-2c0.4-1,1.1-1.6,2-1.6C239.9,199.9,240.6,200.3,241,201 M240.1,205.6
		c0.3-0.4,0.4-1.1,0.4-2.2c0-0.8-0.1-1.4-0.3-1.9c-0.2-0.5-0.6-0.8-1.1-0.8c-0.5,0-0.9,0.2-1.1,0.7c-0.2,0.5-0.4,1.2-0.4,2.1
		c0,0.7,0.1,1.3,0.2,1.7c0.2,0.7,0.6,1,1.2,1C239.5,206.2,239.8,206,240.1,205.6"/>
	<path class="st7" d="M242.8,202.8c-0.3-0.3-0.4-0.6-0.4-1c0-0.5,0.2-1,0.6-1.3c0.4-0.4,0.9-0.6,1.6-0.6c0.7,0,1.2,0.2,1.5,0.5
		c0.4,0.3,0.6,0.8,0.6,1.2c0,0.4-0.1,0.8-0.3,1c-0.1,0.2-0.3,0.3-0.6,0.4c0.3,0.1,0.5,0.3,0.7,0.5c0.3,0.3,0.5,0.7,0.5,1.2
		c0,0.6-0.2,1.1-0.6,1.5c-0.4,0.4-1,0.6-1.7,0.6c-0.7,0-1.2-0.2-1.7-0.5s-0.7-0.9-0.7-1.6c0-0.4,0.1-0.8,0.3-1.1
		c0.2-0.3,0.5-0.5,0.9-0.7C243.1,203,242.9,202.9,242.8,202.8 M245.6,205.9c0.3-0.2,0.4-0.5,0.4-1c0-0.4-0.1-0.8-0.4-1
		c-0.3-0.2-0.6-0.3-1-0.3c-0.4,0-0.8,0.1-1,0.4c-0.3,0.2-0.4,0.6-0.4,1c0,0.4,0.1,0.7,0.4,0.9c0.2,0.3,0.6,0.4,1.1,0.4
		C245,206.2,245.3,206.1,245.6,205.9 M245.4,202.5c0.2-0.2,0.3-0.5,0.3-0.8c0-0.3-0.1-0.5-0.3-0.7c-0.2-0.2-0.5-0.3-0.9-0.3
		c-0.4,0-0.7,0.1-0.9,0.3c-0.2,0.2-0.3,0.5-0.3,0.8c0,0.3,0.1,0.6,0.4,0.8c0.2,0.2,0.5,0.3,0.8,0.3
		C244.9,202.8,245.2,202.7,245.4,202.5"/>
	<path class="st7" d="M248.5,205c0.1,0.5,0.3,0.8,0.7,1c0.2,0.1,0.4,0.1,0.7,0.1c0.5,0,0.9-0.2,1.1-0.5c0.2-0.3,0.4-0.7,0.4-1.1
		c0-0.5-0.1-0.9-0.4-1.1s-0.6-0.4-1.1-0.4c-0.3,0-0.6,0.1-0.8,0.2s-0.4,0.3-0.5,0.5l-0.7,0l0.5-3.7h3.6v0.8h-2.9l-0.3,1.9
		c0.2-0.1,0.3-0.2,0.5-0.3c0.3-0.1,0.6-0.2,0.9-0.2c0.6,0,1.2,0.2,1.6,0.6c0.4,0.4,0.7,0.9,0.7,1.5c0,0.7-0.2,1.2-0.6,1.7
		c-0.4,0.5-1,0.7-1.9,0.7c-0.6,0-1.1-0.2-1.5-0.5c-0.4-0.3-0.7-0.8-0.7-1.5H248.5z"/>
	<path class="st7" d="M253.6,206.3c-0.4-0.4-0.5-1-0.5-1.6h0.9c0,0.4,0.1,0.8,0.2,1c0.2,0.4,0.6,0.5,1.2,0.5c0.5,0,0.8-0.1,1.1-0.4
		c0.3-0.2,0.4-0.6,0.4-0.9c0-0.5-0.1-0.8-0.4-1c-0.3-0.2-0.7-0.3-1.2-0.3c-0.1,0-0.1,0-0.2,0c-0.1,0-0.1,0-0.2,0v-0.8
		c0.1,0,0.2,0,0.2,0c0.1,0,0.1,0,0.2,0c0.3,0,0.6-0.1,0.8-0.2c0.4-0.2,0.5-0.5,0.5-1c0-0.3-0.1-0.6-0.4-0.8
		c-0.2-0.2-0.5-0.3-0.8-0.3c-0.6,0-1,0.2-1.2,0.6c-0.1,0.2-0.2,0.5-0.2,0.9h-0.9c0-0.5,0.1-0.9,0.3-1.3c0.4-0.6,1-1,1.9-1
		c0.7,0,1.2,0.2,1.6,0.5c0.4,0.3,0.6,0.8,0.6,1.4c0,0.4-0.1,0.8-0.3,1c-0.1,0.2-0.3,0.3-0.5,0.4c0.4,0.1,0.6,0.3,0.8,0.6
		c0.2,0.3,0.3,0.6,0.3,1c0,0.7-0.2,1.2-0.6,1.6c-0.4,0.4-1,0.6-1.8,0.6C254.5,207,253.9,206.8,253.6,206.3"/>
	<path class="st7" d="M262.7,200.5c0.3,0.4,0.5,0.8,0.5,1.2h-0.9c-0.1-0.3-0.1-0.5-0.2-0.6c-0.2-0.3-0.5-0.4-0.9-0.4
		c-0.5,0-0.9,0.2-1.2,0.7c-0.3,0.4-0.4,1.1-0.5,1.9c0.2-0.3,0.4-0.5,0.7-0.7c0.3-0.1,0.6-0.2,0.9-0.2c0.6,0,1.1,0.2,1.5,0.6
		s0.6,0.9,0.6,1.6c0,0.6-0.2,1.2-0.6,1.7c-0.4,0.5-1,0.7-1.7,0.7c-0.6,0-1.2-0.2-1.7-0.7c-0.5-0.5-0.7-1.3-0.7-2.5
		c0-0.9,0.1-1.6,0.3-2.2c0.4-1.1,1.1-1.7,2.2-1.7C261.9,199.9,262.4,200.1,262.7,200.5 M262.1,205.7c0.2-0.3,0.3-0.7,0.3-1.1
		c0-0.4-0.1-0.7-0.3-1c-0.2-0.3-0.6-0.5-1.1-0.5c-0.4,0-0.7,0.1-1,0.4c-0.3,0.2-0.4,0.6-0.4,1.1c0,0.4,0.1,0.8,0.4,1.1
		c0.3,0.3,0.6,0.4,1.1,0.4C261.5,206.2,261.9,206,262.1,205.7"/>
</g>
</svg>
