<?xml version="1.0" encoding="UTF-8" standalone="no"?>
<!-- Generator: Adobe Illustrator 16.0.0, SVG Export Plug-In . SVG Version: 6.00 Build 0)  -->

<svg
   xmlns:dc="http://purl.org/dc/elements/1.1/"
   xmlns:cc="http://creativecommons.org/ns#"
   xmlns:rdf="http://www.w3.org/1999/02/22-rdf-syntax-ns#"
   xmlns:svg="http://www.w3.org/2000/svg"
   xmlns="http://www.w3.org/2000/svg"
   xmlns:sodipodi="http://sodipodi.sourceforge.net/DTD/sodipodi-0.dtd"
   xmlns:inkscape="http://www.inkscape.org/namespaces/inkscape"
   version="1.1"
   id="Layer_1"
   x="0px"
   y="0px"
   width="3.9400003cm"
   height="3.1400003cm"
   viewBox="0 0 139.60631 111.25985"
   enable-background="new 0 0 100 100"
   xml:space="preserve"
   inkscape:version="0.91 r"
   sodipodi:docname="WholeFoods.svg"><metadata
     id="metadata53"><rdf:RDF><cc:Work
         rdf:about=""><dc:format>image/svg+xml</dc:format><dc:type
           rdf:resource="http://purl.org/dc/dcmitype/StillImage" /><dc:title></dc:title></cc:Work></rdf:RDF></metadata><defs
     id="defs51" /><sodipodi:namedview
     pagecolor="#ffffff"
     bordercolor="#666666"
     borderopacity="1"
     objecttolerance="10"
     gridtolerance="10"
     guidetolerance="10"
     inkscape:pageopacity="0"
     inkscape:pageshadow="2"
     inkscape:window-width="1077"
     inkscape:window-height="765"
     id="namedview49"
     showgrid="false"
     units="cm"
     fit-margin-top="0.3"
     fit-margin-left="0.7"
     fit-margin-right="0.7"
     fit-margin-bottom="0.3"
     inkscape:zoom="3.57"
     inkscape:cx="70.134148"
     inkscape:cy="55.559934"
     inkscape:window-x="316"
     inkscape:window-y="149"
     inkscape:window-maximized="0"
     inkscape:current-layer="Layer_1" /><g
     id="g3"
     transform="translate(20.134148,5.6999197)"><g
       id="g5"><circle
         cx="49.668999"
         cy="49.93"
         r="45"
         id="circle7"
         style="fill:#84c22d" /><g
         id="g9"><g
           id="g11"><path
             d="m 84.215,44.507 c -0.213,0 -0.444,0.126 -0.591,0.413 -0.025,0.042 -0.064,0.141 -0.188,0.398 -0.27,0.567 -0.819,0.81 -1.599,0.81 l -2.172,0.007 c -0.715,0 -1.017,-0.048 -1.298,-0.152 -0.345,-0.133 -0.413,-0.377 -0.413,-1.533 l 0,-2.767 c 0,-0.489 0.068,-0.701 0.201,-0.79 0.1,-0.069 0.26,-0.084 0.887,-0.084 l 1.008,0 c 0.917,0 1.049,0.065 1.113,0.502 l 0.023,0.144 c 0.065,0.371 0.263,0.567 0.59,0.567 0.458,0 0.611,-0.261 0.611,-1.025 l 0,-1.834 c 0,-0.765 -0.153,-1.026 -0.611,-1.026 -0.327,0 -0.524,0.174 -0.59,0.545 l -0.017,0.136 c -0.065,0.437 -0.197,0.502 -1.113,0.502 l -1.015,0 c -0.627,0 -0.787,-0.015 -0.887,-0.084 -0.133,-0.089 -0.201,-0.301 -0.201,-0.791 l 0,-2.592 c 0,-1.158 0.132,-1.316 1.324,-1.316 l 2.057,0 c 1.015,0 1.455,0.071 1.669,0.631 0.102,0.267 0.19,0.427 0.216,0.47 0.146,0.286 0.35,0.341 0.562,0.341 0.397,0 0.595,-0.303 0.478,-0.863 L 83.95,33.599 c -0.089,-0.4 -0.337,-0.547 -0.777,-0.547 l -8.715,0 c -0.734,0 -1.003,0.156 -1.003,0.639 0,0.325 0.269,0.609 0.562,0.609 l 0.441,0 c 0.129,0 0.306,0.132 0.35,0.326 0.068,0.176 0.088,0.289 0.088,0.854 l 0,9.761 c 0,0.589 -0.02,0.698 -0.088,0.875 -0.044,0.148 -0.196,0.281 -0.35,0.281 l -0.441,0 c -0.293,0 -0.541,0.265 -0.541,0.586 0,0.486 0.248,0.634 0.982,0.634 l 8.562,0 0.558,-0.003 c 0.441,0 0.688,-0.147 0.777,-0.547 l 0.336,-1.696 c 0.118,-0.561 -0.08,-0.864 -0.476,-0.864 z"
             id="path13"
             inkscape:connector-curvature="0"
             style="fill:#ffffff" /><path
             d="m 68.536,46.127 c -0.877,0 -1.211,-0.041 -1.435,-0.193 -0.258,-0.149 -0.298,-0.375 -0.298,-1.333 l 0,-9.166 c 0,-0.57 0,-0.703 0.063,-0.851 0.061,-0.177 0.258,-0.285 0.458,-0.285 l 0.476,0 c 0.312,0 0.578,-0.261 0.578,-0.609 0,-0.483 -0.266,-0.639 -1.053,-0.639 l -4.032,0 c -0.752,0 -1.016,0.156 -1.016,0.639 0,0.348 0.264,0.609 0.594,0.609 l 0.422,0 c 0.144,0 0.32,0.108 0.364,0.285 0.064,0.173 0.085,0.261 0.085,0.851 l 0,9.869 c 0,0.545 -0.021,0.65 -0.085,0.811 -0.044,0.148 -0.221,0.281 -0.364,0.281 l -0.422,0 c -0.306,0 -0.546,0.265 -0.546,0.586 0,0.486 0.24,0.63 0.968,0.63 l 8.213,0 c 0.44,0 0.688,-0.147 0.777,-0.547 l 0.335,-1.696 c 0.117,-0.56 -0.08,-0.863 -0.477,-0.863 -0.213,0 -0.444,0.127 -0.59,0.413 -0.026,0.043 -0.064,0.14 -0.188,0.398 -0.27,0.566 -0.82,0.81 -1.6,0.81 l -1.227,0 z"
             id="path15"
             inkscape:connector-curvature="0"
             style="fill:#ffffff" /><path
             d="m 33.579,34.275 c -0.385,0.053 -0.61,0.298 -0.847,1.068 l -3.479,11.201 c -0.314,1.068 -0.611,1.374 -1.264,1.374 -0.65,0 -0.98,-0.282 -1.244,-1.089 0,0 -1.797,-5.375 -1.857,-5.552 -0.061,-0.177 -0.246,-0.183 -0.297,-0.011 -0.05,0.17 -1.984,5.563 -1.984,5.563 -0.209,0.523 -0.265,0.675 -0.441,0.852 -0.173,0.128 -0.459,0.237 -0.742,0.237 -0.635,0 -0.944,-0.262 -1.245,-1.089 L 15.893,35.344 c -0.325,-0.896 -0.43,-1.003 -1.127,-1.156 -0.466,-0.084 -0.611,-0.236 -0.611,-0.589 0,-0.37 0.232,-0.565 0.734,-0.565 l 4.507,0 c 0.498,0 0.718,0.196 0.718,0.59 0,0.369 -0.22,0.518 -0.786,0.565 -0.482,0.044 -0.678,0.198 -0.678,0.545 0,0.149 0.02,0.306 0.08,0.487 l 0.172,0.498 c 0,0 2.41,6.825 2.791,7.922 0.063,0.176 0.261,0.169 0.33,-0.027 0.422,-1.216 1.575,-4.562 1.618,-4.699 0.118,-0.386 0.168,-0.792 0.029,-1.236 -0.049,-0.156 -0.787,-2.333 -0.787,-2.333 -0.083,-0.236 -0.132,-0.409 -0.18,-0.501 -0.128,-0.317 -0.306,-0.434 -0.812,-0.566 -0.448,-0.111 -0.621,-0.26 -0.621,-0.584 0,-0.419 0.252,-0.659 0.762,-0.659 l 4.282,0 c 0.498,0 0.739,0.196 0.739,0.59 0,0.346 -0.221,0.518 -0.708,0.585 -0.582,0.068 -0.738,0.201 -0.738,0.591 0,0.199 0.044,0.394 0.225,0.919 0,0 2.112,6.689 2.448,7.74 0.064,0.198 0.251,0.156 0.305,-0.021 0.33,-1.07 2.42,-8.093 2.42,-8.093 0.062,-0.216 0.085,-0.393 0.085,-0.522 0,-0.329 -0.232,-0.501 -0.763,-0.569 -0.482,-0.044 -0.702,-0.261 -0.702,-0.61 0,-0.437 0.249,-0.609 0.831,-0.609 l 7.564,0 c 0.719,0 0.958,0.147 0.958,0.625 0,0.358 -0.239,0.618 -0.541,0.618 l -0.418,0 c -0.18,0 -0.349,0.133 -0.417,0.277 -0.04,0.162 -0.06,0.313 -0.06,0.859 l 0,2.816 c 0,1.007 0.087,1.092 0.895,1.092 l 2.965,0 c 0.435,0 0.658,-0.069 0.771,-0.196 0.1,-0.133 0.1,-0.218 0.1,-1.028 l 0,-2.684 c 0,-0.569 0,-0.697 -0.055,-0.859 -0.077,-0.167 -0.25,-0.277 -0.397,-0.277 l -0.418,0 c -0.329,0 -0.594,-0.26 -0.594,-0.618 0,-0.478 0.265,-0.625 1.012,-0.625 l 3.968,0 c 0.743,0 1.008,0.147 1.008,0.625 0,0.358 -0.265,0.618 -0.565,0.618 l -0.442,0 c -0.151,0 -0.324,0.133 -0.372,0.277 -0.061,0.162 -0.077,0.313 -0.077,0.859 l 0,9.801 c 0,0.57 0.016,0.698 0.077,0.875 0.048,0.152 0.221,0.261 0.372,0.261 l 0.443,0 c 0.324,0 0.565,0.285 0.565,0.609 0,0.483 -0.241,0.631 -1.008,0.631 l -3.968,0 c -0.747,0 -0.984,-0.148 -0.984,-0.631 0,-0.324 0.265,-0.609 0.566,-0.609 l 0.418,0 c 0.147,0 0.32,-0.109 0.397,-0.261 0.055,-0.177 0.055,-0.305 0.055,-0.875 l 0,-3.184 c 0,-0.811 0,-0.896 -0.1,-1.028 -0.113,-0.128 -0.336,-0.196 -0.771,-0.196 l -2.965,0 c -0.808,0 -0.895,0.084 -0.895,1.091 l 0,3.316 c 0,0.57 0.02,0.698 0.06,0.875 0.068,0.152 0.237,0.261 0.417,0.261 l 0.418,0 c 0.301,0 0.525,0.285 0.525,0.634 0,0.458 -0.249,0.606 -0.943,0.606 l -3.977,0 c -0.735,0 -0.999,-0.148 -0.999,-0.631 0,-0.324 0.264,-0.609 0.565,-0.609 l 0.434,0 c 0.153,0 0.333,-0.109 0.374,-0.261 0.068,-0.177 0.068,-0.29 0.068,-0.875 l 0,-9.801 c 0,-1.119 -0.523,-1.193 -0.906,-1.14 z"
             id="path17"
             inkscape:connector-curvature="0"
             style="fill:#ffffff" /><path
             d="M 51.285,28.88"
             id="path19"
             inkscape:connector-curvature="0"
             style="fill:#3a9549" /></g></g><g
         id="g21"><path
           d="m 81.695,58.131 c -0.702,-0.719 -1.268,-1.157 -2.99,-2.355 -0.465,-0.326 -0.81,-0.575 -1.079,-0.768 -0.433,-0.329 -0.782,-0.674 -1.003,-1.003 -0.182,-0.241 -0.237,-0.574 -0.237,-0.896 0,-0.895 0.654,-1.469 1.661,-1.469 0.715,0 1.465,0.245 2.052,0.702 0.457,0.354 0.549,0.438 1.038,1.181 0.202,0.28 0.346,0.368 0.579,0.368 0.373,0 0.629,-0.236 0.629,-0.521 0,-0.068 0,-0.201 -0.039,-0.306 l -0.521,-2.359 c -0.089,-0.389 -0.294,-0.609 -0.615,-0.609 -0.176,0 -0.244,0.02 -0.461,0.176 -0.188,0.125 -0.356,0.196 -0.501,0.196 -0.086,0 -0.198,-0.023 -0.298,-0.043 -0.309,-0.068 -0.485,-0.109 -0.554,-0.133 -0.635,-0.137 -1.265,-0.196 -1.882,-0.196 -2.403,0 -4.013,1.4 -4.013,3.516 0,0.871 0.28,1.653 0.83,2.292 0.679,0.781 0.871,0.911 2.938,2.359 1.255,0.872 1.842,1.352 2.314,1.874 0.465,0.524 0.711,1.047 0.711,1.638 0,1.155 -0.968,1.946 -2.384,1.946 -1.248,0 -2.469,-0.659 -3.227,-1.726 L 74.33,61.561 c -0.132,-0.176 -0.321,-0.293 -0.546,-0.293 -0.389,0 -0.691,0.293 -0.691,0.683 0,0.107 0.017,0.304 0.058,0.437 l 0.549,2.184 c 0.13,0.521 0.31,0.723 0.675,0.723 0.193,0 0.302,-0.045 0.506,-0.201 0.189,-0.172 0.281,-0.216 0.467,-0.216 0.123,0 0.159,0.023 0.473,0.107 0.621,0.197 1.485,0.31 2.292,0.31 2.881,0 4.764,-1.666 4.764,-4.19 -10e-4,-1.122 -0.443,-2.212 -1.182,-2.974 z"
           id="path23"
           inkscape:connector-curvature="0"
           style="fill:#ffffff" /><path
           d="m 30.126,52.461 -0.308,-1.517 c -0.089,-0.4 -0.336,-0.547 -0.777,-0.547 l -9.463,0 c -0.734,0 -1.003,0.157 -1.003,0.639 0,0.325 0.269,0.608 0.562,0.608 l 0.441,0 c 0.129,0 0.305,0.133 0.35,0.326 0.068,0.176 0.088,0.288 0.088,0.854 l 0,9.761 c 0,0.59 -0.025,0.693 -0.069,0.85 -0.072,0.173 -0.22,0.285 -0.369,0.285 l -0.446,0 c -0.3,0 -0.562,0.281 -0.562,0.61 0,0.481 0.262,0.634 1.008,0.634 l 4.018,0 c 0.803,0 1.071,-0.152 1.071,-0.634 0,-0.329 -0.237,-0.61 -0.578,-0.61 l -0.493,0 c -0.177,0 -0.374,-0.112 -0.466,-0.285 -0.052,-0.156 -0.052,-0.26 -0.052,-0.85 l -0.004,-3.558 c 0,-0.49 0.068,-0.702 0.201,-0.79 0.1,-0.069 0.261,-0.085 0.888,-0.085 l 1.799,0 c 0.917,0 1.048,0.065 1.113,0.502 l 0.023,0.145 c 0.065,0.371 0.262,0.567 0.589,0.567 0.459,0 0.612,-0.262 0.612,-1.025 l 0,-1.834 c 0,-0.765 -0.153,-1.026 -0.612,-1.026 -0.327,0 -0.523,0.174 -0.589,0.546 l -0.017,0.135 c -0.065,0.437 -0.196,0.503 -1.113,0.503 l -1.805,0 c -0.627,0 -0.788,-0.016 -0.888,-0.084 -0.132,-0.089 -0.201,-0.301 -0.201,-0.79 l 0,-2.593 c 0,-1.159 0.132,-1.316 1.325,-1.316 l 2.803,0 c 1.016,0 1.456,0.07 1.67,0.631 0.102,0.267 0.19,0.427 0.215,0.47 0.146,0.285 0.35,0.341 0.562,0.341 0.398,-10e-4 0.595,-0.303 0.477,-0.863 z"
           id="path25"
           inkscape:connector-curvature="0"
           style="fill:#ffffff" /><path
           d="m 51.426,50.11 c -3.581,0 -6.099,1.981 -6.9,5.251 -0.001,0.005 -0.003,0.009 -0.005,0.014 -0.069,0.358 -0.389,0.385 -0.47,0.012 -0.786,-3.272 -3.342,-5.277 -6.94,-5.277 -4.382,0 -7.173,2.965 -7.173,7.631 0,4.557 2.812,7.544 7.129,7.544 3.601,0 6.133,-1.977 6.953,-5.227 0.005,-0.013 0.012,-0.026 0.015,-0.04 0.078,-0.382 0.402,-0.356 0.473,0.004 0.004,0.023 0.012,0.047 0.023,0.07 0.81,3.205 3.33,5.192 6.85,5.192 4.427,0 7.238,-2.987 7.238,-7.653 C 58.62,53.054 55.786,50.11 51.426,50.11 Z M 37.133,63.716 c -2.464,0 -3.924,-2.246 -3.924,-5.953 0,-3.794 1.482,-6.083 3.881,-6.083 2.42,0 3.946,2.333 3.946,6.039 0,3.663 -1.503,5.997 -3.903,5.997 z m 14.315,0 c -2.464,0 -3.925,-2.246 -3.925,-5.953 0,-3.794 1.483,-6.083 3.881,-6.083 2.42,0 3.946,2.333 3.946,6.039 10e-4,3.663 -1.504,5.997 -3.902,5.997 z"
           id="path27"
           inkscape:connector-curvature="0"
           style="fill:#ffffff" /></g><path
         d="m 56.007,34.165 c 1.875,0.72 2.623,2.76 2.623,5.919 0,3.83 -1.572,6.268 -4.08,6.268 -2.575,0 -4.103,-2.348 -4.103,-6.222 0,-2.499 0.357,-4.467 2.123,-6.197 1.766,-1.731 3.415,-1.483 5.022,-3.556 0.682,-0.88 0.672,-1.636 0.153,-1.783 -0.485,-0.138 -0.798,0.504 -1.274,0.814 -1.739,1.135 -3.704,0.079 -4.757,-1.104 -1.073,-1.204 -2.466,-1.159 -3.289,-0.979 -0.355,0.078 -0.554,-0.203 -0.166,-0.499 0.888,-0.677 2.705,-0.722 3.825,0.294 0.956,0.867 2.237,1.556 3.185,1.375 0.563,-0.107 0.613,-0.755 -0.031,-0.984 -1.797,-0.639 -1.621,-2.681 -4.092,-3.388 -2.914,-0.834 -5.55,1.902 -6.28,4.612 -0.21,0.78 0.259,1.226 0.99,0.912 2.424,-1.042 3.024,0.411 5.082,1.225 0.919,0.369 2.028,0.281 2.635,0.163 0.507,-0.099 0.509,0.408 0.224,0.505 -1.38,0.469 -2.79,1.186 -3.624,1.807 -1.992,1.333 -3.144,3.695 -3.144,6.759 0,4.764 2.94,7.886 7.453,7.886 4.627,0 7.567,-3.123 7.567,-8 0,-2.803 -0.893,-4.896 -2.681,-6.213 -1.036,-0.764 -1.979,-1.092 -2.944,-0.979 -1.169,0.14 -1.325,1.026 -0.417,1.365 z"
         id="path29"
         inkscape:connector-curvature="0"
         style="fill:#ffffff" /><g
         id="g31"><path
           d="m 29.854,72.254 1.517,-2.062 c 0.092,-0.143 0.234,-0.201 0.401,-0.201 0.183,0 0.315,0.04 0.392,0.347 l 0.533,4.681 c 0.024,0.266 -0.392,0.267 -0.576,0.267 -0.134,0 -0.384,-0.075 -0.384,-0.25 L 31.368,72.237 C 31.344,72.122 31.3,72.07 31.208,72.07 c -0.075,0 -0.112,0.036 -0.165,0.101 l -1.256,1.609 c -0.064,0.088 -0.15,0.143 -0.25,0.143 -0.142,0 -0.204,-0.039 -0.286,-0.158 l -1.159,-1.562 c -0.05,-0.064 -0.107,-0.081 -0.166,-0.081 -0.092,0 -0.14,0.08 -0.151,0.189 l -0.362,2.708 c -0.035,0.223 -0.309,0.267 -0.535,0.267 -0.159,0 -0.426,-0.075 -0.426,-0.275 l 0.533,-4.562 c 0.057,-0.274 0.116,-0.431 0.509,-0.431 0.1,0 0.262,0.028 0.387,0.224 l 1.439,2.022 c 0.076,0.109 0.165,0.202 0.259,0.199 0.094,-0.003 0.194,-0.101 0.275,-0.209 z"
           id="path33"
           inkscape:connector-curvature="0"
           style="fill:#ffffff" /><path
           d="m 37.891,70.205 c 0.065,-0.141 0.186,-0.246 0.402,-0.246 0.216,0 0.335,0.074 0.406,0.227 0,0 2.194,4.675 2.257,4.812 0.112,0.245 -0.362,0.288 -0.521,0.288 -0.159,0 -0.4,-0.025 -0.476,-0.2 l -0.341,-0.701 c -0.042,-0.092 -0.134,-0.167 -0.242,-0.167 l -2.163,0 c -0.138,0 -0.26,0.103 -0.336,0.294 l -0.303,0.574 c -0.067,0.167 -0.393,0.192 -0.543,0.192 -0.133,0 -0.574,-0.014 -0.435,-0.308 l 2.295,-4.765 z m -0.241,3.16 c 0.351,0 0.918,0 1.269,0 0.091,0 0.186,-0.084 0.13,-0.189 -0.034,-0.067 -0.572,-1.18 -0.638,-1.318 -0.059,-0.124 -0.206,-0.13 -0.261,0.005 -0.062,0.152 -0.592,1.218 -0.628,1.294 -0.059,0.124 0.004,0.208 0.128,0.208 z"
           id="path35"
           inkscape:connector-curvature="0"
           style="fill:#ffffff" /><path
           d="m 49.247,71.778 c 0,0.951 -0.685,1.262 -0.96,1.497 -0.139,0.118 -0.17,0.201 -0.089,0.318 0.042,0.062 0.778,1.128 0.885,1.287 0.162,0.242 0.017,0.402 -0.484,0.402 -0.282,0 -0.469,-0.05 -0.591,-0.23 l -0.815,-1.263 c -0.091,-0.142 -0.225,-0.233 -0.409,-0.233 l -1.164,0 c -0.142,0 -0.275,0.117 -0.275,0.259 l 0.008,1.261 c 0,0.251 -0.484,0.209 -0.643,0.209 -0.209,0 -0.325,-0.059 -0.325,-0.292 l 0.008,-4.801 c 0,-0.126 0.108,-0.201 0.225,-0.201 l 2.759,0 c 1.069,0 1.87,0.686 1.87,1.787 z m -3.903,-0.601 0,1.178 c 0,0.184 0.175,0.292 0.342,0.292 l 1.615,0 c 0.543,0 0.985,-0.283 0.985,-0.868 0,-0.584 -0.442,-0.868 -0.985,-0.868 l -1.615,0 c -0.166,-0.001 -0.342,0.058 -0.342,0.266 z"
           id="path37"
           inkscape:connector-curvature="0"
           style="fill:#ffffff" /><path
           d="m 53.537,69.987 c 0.268,0 0.449,0.062 0.449,0.314 l 0,1.407 c 0,0.228 0.102,0.336 0.244,0.336 0.408,0 0.497,-0.086 0.648,-0.217 0.169,-0.146 1.894,-1.728 1.894,-1.728 0.214,-0.186 0.433,-0.181 0.642,0.019 0.172,0.164 0.25,0.35 0.057,0.54 -0.133,0.131 -1.646,1.5 -1.646,1.5 -0.187,0.162 -0.14,0.314 -0.012,0.455 0,0 1.815,2 2.006,2.207 0.285,0.311 0.022,0.463 -0.395,0.463 -0.442,0 -0.562,-0.068 -0.676,-0.204 L 55.07,73.286 c -0.229,-0.198 -0.458,-0.229 -0.771,-0.229 -0.176,0 -0.312,0.18 -0.312,0.389 l 0,1.528 c 0,0.29 -0.25,0.309 -0.522,0.309 -0.288,0 -0.438,-0.08 -0.438,-0.313 l 0,-4.66 c -0.002,-0.276 0.171,-0.323 0.51,-0.323 z"
           id="path39"
           inkscape:connector-curvature="0"
           style="fill:#ffffff" /><path
           d="m 61.151,70 4.016,0 c 0.239,0 0.284,0.157 0.284,0.444 0,0.265 -0.037,0.474 -0.298,0.474 l -3.138,0 c -0.128,0 -0.217,0.1 -0.217,0.234 l 0,0.71 c 0,0.149 0.108,0.233 0.25,0.233 l 1.812,0 c 0.218,0 0.275,0.188 0.275,0.466 0,0.241 -0.053,0.452 -0.254,0.452 l -1.809,0 c -0.145,0 -0.275,0.102 -0.275,0.268 l 0,0.771 c 0,0.184 0.1,0.273 0.25,0.273 l 3.108,0 c 0.205,0 0.276,0.134 0.276,0.474 0,0.244 -0.055,0.444 -0.274,0.444 l -4.003,0 c -0.232,0 -0.326,-0.11 -0.326,-0.384 l 0,-4.511 C 60.83,70.144 60.912,70 61.151,70 Z"
           id="path41"
           inkscape:connector-curvature="0"
           style="fill:#ffffff" /><path
           d="m 72.581,70.009 c 0.184,0 0.308,0.104 0.308,0.442 0,0.301 -0.078,0.467 -0.287,0.467 l -1.272,0 c -0.176,0 -0.301,0.059 -0.301,0.268 l 0.009,3.801 c 0,0.267 -0.189,0.298 -0.487,0.298 -0.291,0 -0.481,-0.028 -0.481,-0.29 l 0,-3.803 c 0,-0.185 -0.068,-0.273 -0.301,-0.273 -0.214,0 -1.176,0 -1.283,0 -0.209,0 -0.268,-0.2 -0.268,-0.367 0,-0.184 -0.017,-0.542 0.259,-0.542 l 4.104,0 z"
           id="path43"
           inkscape:connector-curvature="0"
           style="fill:#ffffff" /></g><path
         d="m 70.6,52.039 c -1.336,-1.352 -3.026,-1.942 -5.747,-1.942 -2.722,0 -4.502,0.244 -5.139,0.337 -0.637,0.093 -0.964,0.161 -0.964,0.637 0,0.329 0.218,0.606 0.519,0.606 l 0.445,0 c 0.148,0 0.297,0.117 0.369,0.285 0.043,0.156 0.068,0.29 0.068,0.859 l 0,9.718 c 0,0.569 -0.025,0.702 -0.068,0.858 -0.072,0.168 -0.221,0.285 -0.369,0.285 l -0.445,0 c -0.301,0 -0.519,0.277 -0.519,0.607 0,0.477 0.327,0.544 0.964,0.637 0.637,0.094 2.417,0.337 5.139,0.337 2.381,0 3.961,-0.462 5.217,-1.48 1.622,-1.288 2.512,-3.471 2.512,-6.111 -10e-4,-2.359 -0.697,-4.345 -1.982,-5.633 z m -5.527,11.677 c -1.098,-0.062 -1.874,-0.137 -1.874,-1.384 l 0,-9.147 c 0,-1.159 0.282,-1.413 1.224,-1.566 0.243,-0.039 0.739,-0.072 0.739,-0.072 2.596,0 4.137,2.258 4.137,6.103 0,3.839 -1.552,6.215 -4.226,6.066 z"
         id="path45"
         inkscape:connector-curvature="0"
         style="fill:#ffffff" /></g><path
       d="m 85.563,62.419 c -1.195,0 -2.158,0.964 -2.158,2.166 0,1.193 0.963,2.165 2.158,2.165 1.196,0 2.159,-0.972 2.159,-2.165 0.001,-1.202 -0.962,-2.166 -2.159,-2.166 z m 0,3.902 c -0.972,0 -1.699,-0.728 -1.699,-1.736 0,-1.008 0.728,-1.735 1.699,-1.735 0.979,0 1.699,0.727 1.699,1.735 0,1.008 -0.719,1.736 -1.699,1.736 z m 0.35,-1.571 c 0.365,-0.037 0.645,-0.233 0.645,-0.736 0,-0.518 -0.271,-0.753 -0.862,-0.753 l -0.948,0 0,2.522 0.433,0 0,-1.021 0.242,0 0.725,1.021 0.5,0 -0.735,-1.033 z m -0.733,-0.383 0,-0.712 0.39,0 c 0.283,0 0.574,0.071 0.574,0.358 0,0.335 -0.316,0.354 -0.671,0.354 l -0.293,0 z"
       id="path47"
       inkscape:connector-curvature="0"
       style="fill:#ffffff" /></g></svg>