<?xml version="1.0" encoding="utf-8"?>
<!-- Generator: Adobe Illustrator 16.0.0, SVG Export Plug-In . SVG Version: 6.00 Build 0)  -->
<!DOCTYPE svg PUBLIC "-//W3C//DTD SVG 1.1//EN" "http://www.w3.org/Graphics/SVG/1.1/DTD/svg11.dtd">
<svg version="1.1" id="Layer_1" xmlns="http://www.w3.org/2000/svg" xmlns:xlink="http://www.w3.org/1999/xlink" x="0px" y="0px"
	 width="228.3px" height="101px" viewBox="0 0 228.3 101" style="enable-background:new 0 0 228.3 101;" xml:space="preserve">
<style type="text/css">
<![CDATA[
	.st0{clip-path:url(#SVGID_2_);fill:#E0C12C;}
	.st1{fill:#689D43;}
	.st2{clip-path:url(#SVGID_2_);fill:#689D43;}
]]>
</style>
<g>
	<path class="st1" d="M77.4,43.1l-1.5,4.2h-4.4l8.4-20.9h5.4v20.9h-4.4l0.2-4.2H77.4z M81.1,39.8l0.2-4.3c0.1-1.1,0.2-3.6,0.3-5.1
		h-0.1c-0.5,1.6-1.2,4-1.6,5.1l-1.5,4.3H81.1z"/>
	<path class="st1" d="M95.8,27.9L95,32.1h2.9l-0.6,3.2h-2.9l-1.2,6.3c-0.1,0.4-0.1,0.8-0.1,1c0,1,0.6,1.3,1.2,1.3
		c0.2,0,0.7,0,1.1-0.1l-0.6,3.4c-0.8,0.2-1.8,0.2-2.6,0.2c-2.6,0-3.9-1.5-3.9-3.7c0-0.7,0.1-1.6,0.2-2.2l1.2-6.3h-1.7l0.6-3.2h1.8
		l0.5-2.7L95.8,27.9z"/>
	<path class="st1" d="M116.7,32.8c0,4.7-1.4,9.9-4.2,12.7c-1.4,1.4-2.9,2.1-4.9,2.1c-4.8,0-5.5-4.6-5.5-6.9c0-4.4,1.4-9.7,4.3-12.5
		c1.3-1.2,2.9-2,4.9-2C116.1,26.2,116.7,30.4,116.7,32.8z M109.6,30.7c-1.8,1.8-2.8,7.4-2.8,10.5c0,0.9,0.2,2.3,1.5,2.3
		c0.3,0,0.7-0.2,1-0.5c1.9-1.9,2.7-8.6,2.7-10.8c0-0.8-0.2-2.1-1.3-2.1C110.3,30.2,109.9,30.4,109.6,30.7z"/>
	<path class="st1" d="M116.4,47.3l2-10.4c0.3-1.6,0.6-3.3,0.8-4.9h3.9l-0.1,1.8h0.1c1-1.2,2.5-2,4.1-2c2.3,0,3.1,1.6,3.1,3.5
		c0,0.9-0.2,1.9-0.4,3.1l-1.7,9h-4.6l1.8-9.3c0.1-0.5,0.2-0.9,0.2-1.4c0-0.6-0.2-1.1-0.8-1.1c-0.7,0-1.7,1-2.3,3.9l-1.5,7.9H116.4z"
		/>
	<path class="st1" d="M139.4,47.1c-0.4,0.2-1.5,0.4-2.8,0.4c-3.5,0-5-2.8-5-5.5c0-5.9,3.8-10.1,8.4-10.1c1.1,0,1.7,0.1,2.1,0.3
		l-1.1,3.7c-0.4-0.1-0.8-0.2-1.1-0.2c-1.9,0-3.7,2.4-3.7,5.6c0,1.5,0.7,2.5,1.8,2.5c0.8,0,1.4-0.2,1.9-0.3L139.4,47.1z"/>
	<path class="st1" d="M151.7,46.7c-1.5,0.6-2.8,0.8-4.7,0.8c-4,0-5.6-2.5-5.6-5.9c0-4.6,2.5-9.8,7.6-9.8c3,0,4.4,2.2,4.4,4.5
		c0,4.4-3.4,5.9-7.7,5.7c0,0.4,0.1,0.8,0.5,1.2c0.4,0.4,1,0.7,2,0.7c1.3,0,2.2-0.3,3.3-0.7L151.7,46.7z M149.4,36.7
		c0-0.8-0.3-1.2-1-1.2c-1.1,0-2,1.4-2.3,3.2C148,38.8,149.4,38,149.4,36.7L149.4,36.7z"/>
	<path class="st1" d="M150.8,51.2c1.6-2.9,3.2-6.1,4-8.7l4.7-0.3c-1.4,2.9-3.4,6.1-5.5,8.7L150.8,51.2z"/>
	<path class="st1" d="M173.9,26.4l-4,20.9h-4.6l4-20.9H173.9z"/>
	<path class="st1" d="M173,47.3l2-10.4c0.3-1.6,0.6-3.3,0.8-4.9h3.9l-0.1,1.8h0.1c1-1.2,2.5-2,4.1-2c2.3,0,3.1,1.6,3.1,3.5
		c0,0.9-0.2,1.9-0.4,3.1l-1.7,9h-4.6L182,38c0.1-0.5,0.2-0.9,0.2-1.4c0-0.6-0.2-1.1-0.8-1.1c-0.7,0-1.7,1-2.3,3.9l-1.5,7.9H173z"/>
	<path class="st1" d="M195.9,47.1c-0.4,0.2-1.5,0.4-2.8,0.4c-3.5,0-5-2.8-5-5.5c0-5.9,3.8-10.1,8.4-10.1c1.1,0,1.7,0.1,2.1,0.3
		l-1.1,3.7c-0.4-0.1-0.8-0.2-1.1-0.2c-1.9,0-3.7,2.4-3.7,5.6c0,1.5,0.7,2.5,1.8,2.5c0.8,0,1.4-0.2,1.9-0.3L195.9,47.1z"/>
</g>
<g>
	<path d="M72.2,56.5h3.4v0.7H73v2.1h2.4V60H73v2.9h-0.8V56.5z"/>
	<path d="M80.6,60.5c0,1.7-1.2,2.4-2.3,2.4c-1.2,0-2.2-0.9-2.2-2.3c0-1.5,1-2.4,2.3-2.4C79.7,58.2,80.6,59.1,80.6,60.5z M77,60.6
		c0,1,0.6,1.8,1.4,1.8c0.8,0,1.4-0.7,1.4-1.8c0-0.8-0.4-1.8-1.4-1.8C77.4,58.8,77,59.7,77,60.6z"/>
	<path d="M81.7,59.7c0-0.5,0-1,0-1.4h0.7l0,0.9h0c0.2-0.6,0.7-1,1.3-1c0.1,0,0.2,0,0.2,0V59c-0.1,0-0.2,0-0.3,0
		c-0.6,0-1,0.4-1.1,1.1c0,0.1,0,0.2,0,0.4v2.4h-0.8V59.7z"/>
	<path d="M89.3,62.9l-0.1-0.6h0c-0.3,0.4-0.7,0.7-1.4,0.7c-0.9,0-1.4-0.7-1.4-1.3c0-1.1,1-1.7,2.7-1.7v-0.1c0-0.4-0.1-1.1-1-1.1
		c-0.4,0-0.9,0.1-1.2,0.3l-0.2-0.5c0.4-0.2,0.9-0.4,1.5-0.4c1.4,0,1.7,1,1.7,1.9v1.7c0,0.4,0,0.8,0.1,1.1H89.3z M89.2,60.5
		c-0.9,0-1.9,0.1-1.9,1c0,0.5,0.4,0.8,0.8,0.8c0.6,0,1-0.4,1.1-0.8c0-0.1,0-0.2,0-0.3V60.5z"/>
	<path d="M91.3,56.2h0.8v6.7h-0.8V56.2z"/>
	<path d="M93.5,56.2h0.8v6.7h-0.8V56.2z"/>
	<path d="M98.1,58.3l1,2.7c0.1,0.3,0.2,0.7,0.3,0.9h0c0.1-0.3,0.2-0.6,0.3-1l0.9-2.7h0.9l-1.2,3.3c-0.6,1.6-1,2.4-1.6,2.9
		c-0.4,0.4-0.8,0.5-1,0.5l-0.2-0.7c0.2-0.1,0.5-0.2,0.7-0.4c0.2-0.2,0.5-0.5,0.7-0.9c0-0.1,0.1-0.2,0.1-0.2s0-0.1-0.1-0.2l-1.7-4.2
		H98.1z"/>
	<path d="M106.2,60.5c0,1.7-1.2,2.4-2.3,2.4c-1.2,0-2.2-0.9-2.2-2.3c0-1.5,1-2.4,2.3-2.4C105.3,58.2,106.2,59.1,106.2,60.5z
		 M102.6,60.6c0,1,0.6,1.8,1.4,1.8c0.8,0,1.4-0.7,1.4-1.8c0-0.8-0.4-1.8-1.4-1.8C103,58.8,102.6,59.7,102.6,60.6z"/>
	<path d="M111.1,61.6c0,0.5,0,0.9,0,1.2h-0.7l0-0.7h0c-0.2,0.4-0.7,0.8-1.5,0.8c-0.7,0-1.6-0.4-1.6-2v-2.7h0.8v2.5
		c0,0.9,0.3,1.5,1,1.5c0.6,0,0.9-0.4,1.1-0.8c0-0.1,0.1-0.3,0.1-0.4v-2.8h0.8V61.6z"/>
	<path d="M112.5,59.7c0-0.5,0-1,0-1.4h0.7l0,0.9h0c0.2-0.6,0.7-1,1.3-1c0.1,0,0.2,0,0.2,0V59c-0.1,0-0.2,0-0.3,0
		c-0.6,0-1,0.4-1.1,1.1c0,0.1,0,0.2,0,0.4v2.4h-0.8V59.7z"/>
	<path d="M118.6,57v1.3h1.2v0.6h-1.2v2.5c0,0.6,0.2,0.9,0.6,0.9c0.2,0,0.4,0,0.5-0.1l0,0.6c-0.2,0.1-0.4,0.1-0.7,0.1
		c-0.4,0-0.7-0.1-0.9-0.3c-0.2-0.2-0.3-0.7-0.3-1.2v-2.5h-0.7v-0.6h0.7v-1.1L118.6,57z"/>
	<path d="M120.7,59.7c0-0.5,0-1,0-1.4h0.7l0,0.9h0c0.2-0.6,0.7-1,1.3-1c0.1,0,0.2,0,0.2,0V59c-0.1,0-0.2,0-0.3,0
		c-0.6,0-1,0.4-1.1,1.1c0,0.1,0,0.2,0,0.4v2.4h-0.8V59.7z"/>
	<path d="M126.3,62.9l-0.1-0.6h0c-0.3,0.4-0.7,0.7-1.4,0.7c-0.9,0-1.4-0.7-1.4-1.3c0-1.1,1-1.7,2.7-1.7v-0.1c0-0.4-0.1-1.1-1-1.1
		c-0.4,0-0.9,0.1-1.2,0.3l-0.2-0.5c0.4-0.2,0.9-0.4,1.5-0.4c1.4,0,1.7,1,1.7,1.9v1.7c0,0.4,0,0.8,0.1,1.1H126.3z M126.1,60.5
		c-0.9,0-1.9,0.1-1.9,1c0,0.5,0.4,0.8,0.8,0.8c0.6,0,1-0.4,1.1-0.8c0-0.1,0-0.2,0-0.3V60.5z"/>
	<path d="M128.3,59.5c0-0.5,0-0.9,0-1.2h0.7l0,0.8h0c0.2-0.4,0.8-0.9,1.5-0.9c0.6,0,1.6,0.4,1.6,1.9v2.7h-0.8v-2.6
		c0-0.7-0.3-1.3-1.1-1.3c-0.5,0-1,0.4-1.1,0.8c0,0.1-0.1,0.2-0.1,0.4v2.7h-0.8V59.5z"/>
	<path d="M133.4,62c0.2,0.2,0.7,0.3,1.1,0.3c0.6,0,0.9-0.3,0.9-0.7c0-0.4-0.2-0.6-0.8-0.8c-0.8-0.3-1.2-0.7-1.2-1.3
		c0-0.7,0.6-1.3,1.6-1.3c0.5,0,0.9,0.1,1.1,0.3l-0.2,0.6c-0.2-0.1-0.5-0.3-0.9-0.3c-0.5,0-0.8,0.3-0.8,0.6c0,0.4,0.3,0.5,0.9,0.8
		c0.8,0.3,1.2,0.7,1.2,1.4c0,0.8-0.6,1.4-1.7,1.4c-0.5,0-1-0.1-1.3-0.3L133.4,62z"/>
	<path d="M140.5,62.7c-0.2,0.1-0.7,0.3-1.3,0.3c-1.4,0-2.3-0.9-2.3-2.3c0-1.4,1-2.4,2.5-2.4c0.5,0,0.9,0.1,1.2,0.2l-0.2,0.6
		c-0.2-0.1-0.5-0.2-1-0.2c-1,0-1.6,0.8-1.6,1.7c0,1.1,0.7,1.7,1.6,1.7c0.5,0,0.8-0.1,1-0.2L140.5,62.7z"/>
	<path d="M141.5,59.7c0-0.5,0-1,0-1.4h0.7l0,0.9h0c0.2-0.6,0.7-1,1.3-1c0.1,0,0.2,0,0.2,0V59c-0.1,0-0.2,0-0.3,0
		c-0.6,0-1,0.4-1.1,1.1c0,0.1,0,0.2,0,0.4v2.4h-0.8V59.7z"/>
	<path d="M145.5,57c0,0.3-0.2,0.5-0.5,0.5c-0.3,0-0.5-0.2-0.5-0.5c0-0.3,0.2-0.5,0.5-0.5C145.3,56.5,145.5,56.7,145.5,57z
		 M144.6,62.9v-4.6h0.8v4.6H144.6z"/>
	<path d="M146.8,59.8c0-0.6,0-1.1,0-1.5h0.7l0,0.8h0c0.3-0.6,0.9-0.9,1.6-0.9c1.1,0,1.9,0.9,1.9,2.3c0,1.6-1,2.5-2.1,2.5
		c-0.6,0-1.1-0.3-1.4-0.7h0v2.5h-0.8V59.8z M147.6,61c0,0.1,0,0.2,0,0.3c0.2,0.6,0.7,1,1.2,1c0.9,0,1.4-0.7,1.4-1.8
		c0-0.9-0.5-1.7-1.4-1.7c-0.6,0-1.1,0.4-1.3,1c0,0.1-0.1,0.2-0.1,0.3V61z"/>
	<path d="M153.2,57v1.3h1.2v0.6h-1.2v2.5c0,0.6,0.2,0.9,0.6,0.9c0.2,0,0.4,0,0.5-0.1l0,0.6c-0.2,0.1-0.4,0.1-0.7,0.1
		c-0.4,0-0.7-0.1-0.9-0.3c-0.2-0.2-0.3-0.7-0.3-1.2v-2.5h-0.7v-0.6h0.7v-1.1L153.2,57z"/>
	<path d="M156.2,57c0,0.3-0.2,0.5-0.5,0.5c-0.3,0-0.5-0.2-0.5-0.5c0-0.3,0.2-0.5,0.5-0.5C156,56.5,156.2,56.7,156.2,57z M155.3,62.9
		v-4.6h0.8v4.6H155.3z"/>
	<path d="M161.6,60.5c0,1.7-1.2,2.4-2.3,2.4c-1.2,0-2.2-0.9-2.2-2.3c0-1.5,1-2.4,2.3-2.4C160.7,58.2,161.6,59.1,161.6,60.5z
		 M158,60.6c0,1,0.6,1.8,1.4,1.8c0.8,0,1.4-0.7,1.4-1.8c0-0.8-0.4-1.8-1.4-1.8S158,59.7,158,60.6z"/>
	<path d="M162.7,59.5c0-0.5,0-0.9,0-1.2h0.7l0,0.8h0c0.2-0.4,0.8-0.9,1.5-0.9c0.6,0,1.6,0.4,1.6,1.9v2.7h-0.8v-2.6
		c0-0.7-0.3-1.3-1.1-1.3c-0.5,0-1,0.4-1.1,0.8c0,0.1-0.1,0.2-0.1,0.4v2.7h-0.8V59.5z"/>
	<path d="M169.9,59.5c0-0.5,0-0.9,0-1.2h0.7l0,0.8h0c0.2-0.4,0.8-0.9,1.5-0.9c0.6,0,1.6,0.4,1.6,1.9v2.7H173v-2.6
		c0-0.7-0.3-1.3-1.1-1.3c-0.5,0-1,0.4-1.1,0.8c0,0.1-0.1,0.2-0.1,0.4v2.7h-0.8V59.5z"/>
	<path d="M175.6,60.7c0,1.1,0.7,1.6,1.6,1.6c0.6,0,1-0.1,1.3-0.2l0.1,0.6c-0.3,0.1-0.8,0.3-1.5,0.3c-1.4,0-2.2-0.9-2.2-2.3
		c0-1.4,0.8-2.5,2.1-2.5c1.5,0,1.9,1.3,1.9,2.2c0,0.2,0,0.3,0,0.4H175.6z M178.1,60.1c0-0.5-0.2-1.3-1.2-1.3c-0.8,0-1.2,0.8-1.3,1.3
		H178.1z"/>
	<path d="M180.3,60.7c0,1.1,0.7,1.6,1.6,1.6c0.6,0,1-0.1,1.3-0.2l0.1,0.6c-0.3,0.1-0.8,0.3-1.5,0.3c-1.4,0-2.2-0.9-2.2-2.3
		c0-1.4,0.8-2.5,2.1-2.5c1.5,0,1.9,1.3,1.9,2.2c0,0.2,0,0.3,0,0.4H180.3z M182.8,60.1c0-0.5-0.2-1.3-1.2-1.3c-0.8,0-1.2,0.8-1.3,1.3
		H182.8z"/>
	<path d="M188.6,56.2v5.5c0,0.4,0,0.9,0,1.2h-0.7l0-0.8h0c-0.3,0.5-0.8,0.9-1.6,0.9c-1.1,0-2-0.9-2-2.3c0-1.5,0.9-2.5,2-2.5
		c0.7,0,1.2,0.3,1.4,0.7h0v-2.7H188.6z M187.7,60.2c0-0.1,0-0.2,0-0.3c-0.1-0.5-0.6-1-1.2-1c-0.9,0-1.4,0.8-1.4,1.8
		c0,0.9,0.5,1.7,1.3,1.7c0.6,0,1.1-0.4,1.2-1c0-0.1,0-0.2,0-0.4V60.2z"/>
	<path d="M189.8,62c0.2,0.2,0.7,0.3,1.1,0.3c0.6,0,0.9-0.3,0.9-0.7c0-0.4-0.2-0.6-0.8-0.8c-0.8-0.3-1.2-0.7-1.2-1.3
		c0-0.7,0.6-1.3,1.6-1.3c0.5,0,0.9,0.1,1.1,0.3l-0.2,0.6c-0.2-0.1-0.5-0.3-0.9-0.3c-0.5,0-0.8,0.3-0.8,0.6c0,0.4,0.3,0.5,0.9,0.8
		c0.8,0.3,1.2,0.7,1.2,1.4c0,0.8-0.6,1.4-1.7,1.4c-0.5,0-1-0.1-1.3-0.3L189.8,62z"/>
</g>
<g>
	<defs>
		<rect id="SVGID_1_" x="2.6" y="5.9" width="221.4" height="91.3"/>
	</defs>
	<clipPath id="SVGID_2_">
		<use xlink:href="#SVGID_1_"  style="overflow:visible;"/>
	</clipPath>
	<path class="st0" d="M61.5,68.5c5.2,1.4,24.6,1.5,24.9,9.5c0.2,4.4-10.4,11.5-5.6,16.1c3.2,3.1,18.2-2.9,20.8-3.8
		c17.2-5.6,33.8-11.7,51.6-15.7c14-3.2,29.3-7.5,43.7-8c2.7-0.1,8.5-0.8,10.2,2.2"/>
	<path class="st0" d="M39.7,37.2c4.4,1,19.3,13.9,17.4,31.4"/>
	<path class="st2" d="M59.3,45.2c-4.6,15.5-23,11.7-30.4,6.7C17.5,44.3,15.9,31.7,13.6,25c-1.8-5.3-4.4-9.3-11-11.7
		C59.5,5.9,61.1,39.3,59.3,45.2 M17.7,18.4c6.5,24,19.7,37.2,32.2,28.5C59.9,40,45.3,15.9,17.7,18.4"/>
	<path class="st2" d="M37.9,33.8c4.4,1,19.3,13.9,17.4,31.4"/>
</g>
</svg>
