<?xml version="1.0" encoding="utf-8"?>
<!-- Generator: Adobe Illustrator 16.0.0, SVG Export Plug-In . SVG Version: 6.00 Build 0)  -->
<!DOCTYPE svg PUBLIC "-//W3C//DTD SVG 1.1//EN" "http://www.w3.org/Graphics/SVG/1.1/DTD/svg11.dtd">
<svg version="1.1" id="Layer_1" xmlns="http://www.w3.org/2000/svg" xmlns:xlink="http://www.w3.org/1999/xlink" x="0px" y="0px"
	 width="382.684px" height="110.554px" viewBox="0 0 382.684 110.554" enable-background="new 0 0 382.684 110.554"
	 xml:space="preserve">
<rect x="-46.19" y="-36.594" fill="none" width="475" height="176"/>
<rect x="17.487" y="16.447" fill="#ED1A3B" width="347.646" height="53.521"/>
<path fill-rule="evenodd" clip-rule="evenodd" fill="#FFFFFF" d="M323.774,48.589c1.418,5.729,6.334,8.038,11.865,8.038
	c5.453,0,11.748-2.542,11.748-8.879c0-2.893-1.344-5.354-3.906-6.737c-2.305-1.187-4.961-1.616-7.467-2.11
	c-0.982-0.239-2.908-0.503-2.908-1.886c0-1.383,1.531-1.688,2.609-1.688c2.033,0,3.498,0.695,4.266,2.649l6.678-2.038
	c-1.609-4.577-6.02-6.457-10.594-6.457c-2.613,0-5.42,0.501-7.568,2.004c-2.117,1.488-3.381,4.033-3.381,6.608
	c0,6.268,5.869,7.611,10.836,8.569c1.182,0.235,3.221,0.539,3.221,2.154c0,1.461-2.07,1.614-3.107,1.614
	c-2.344,0-4.109-0.847-4.801-3.191L323.774,48.589"/>
<polygon fill-rule="evenodd" clip-rule="evenodd" fill="#FFFFFF" points="315.713,29.867 305.069,29.867 301.456,43.855 
	297.61,29.867 287.061,29.867 287.061,56.232 293.127,56.232 293.127,37.393 298.163,56.232 303.307,56.232 308.112,37.393 
	308.18,56.232 315.713,56.232 "/>
<polygon fill-rule="evenodd" clip-rule="evenodd" fill="#FFFFFF" points="277.122,49.934 265.252,49.934 265.252,45.667 
	274.862,45.667 274.862,39.789 265.252,39.789 265.252,35.938 277.122,35.938 277.122,29.868 257.342,29.868 257.342,56.232 
	277.122,56.232 "/>
<polygon fill-rule="evenodd" clip-rule="evenodd" fill="#FFFFFF" points="243.051,36.204 248.469,36.204 248.469,29.867 
	229.844,29.867 229.844,36.204 235.379,36.204 235.379,56.232 243.051,56.232 "/>
<path fill-rule="evenodd" clip-rule="evenodd" fill="#FFFFFF" d="M198.965,48.589c1.424,5.729,6.338,8.038,11.871,8.038
	c5.455,0,11.748-2.542,11.748-8.879c0-2.893-1.342-5.354-3.914-6.737c-2.316-1.187-4.949-1.616-7.454-2.11
	c-0.997-0.239-2.919-0.503-2.919-1.886c0-1.383,1.535-1.688,2.607-1.688c2.033,0,3.494,0.695,4.266,2.649l6.68-2.038
	c-1.609-4.577-6.02-6.457-10.6-6.457c-2.61,0-5.408,0.501-7.562,2.004c-2.11,1.488-3.382,4.033-3.382,6.608
	c0,6.268,5.881,7.611,10.824,8.569c1.191,0.235,3.238,0.539,3.238,2.154c0,1.461-2.072,1.614-3.119,1.614
	c-2.333,0-4.102-0.847-4.805-3.191L198.965,48.589"/>
<polygon fill-rule="evenodd" clip-rule="evenodd" fill="#FFFFFF" points="194.325,29.867 187.25,29.867 182.841,38.551 
	178.229,29.867 169.352,29.867 178.229,45.089 178.229,56.232 186.071,56.232 186.071,45.089 "/>
<path fill-rule="evenodd" clip-rule="evenodd" fill="#FFFFFF" d="M140.208,48.589c1.421,5.729,6.34,8.038,11.868,8.038
	c5.457,0,11.754-2.542,11.754-8.879c0-2.893-1.337-5.354-3.926-6.737c-2.3-1.187-4.945-1.616-7.447-2.11
	c-0.999-0.239-2.918-0.503-2.918-1.886c0-1.383,1.535-1.688,2.616-1.688c2.028,0,3.495,0.695,4.265,2.649l6.669-2.038
	c-1.598-4.577-6.024-6.457-10.588-6.457c-2.608,0-5.423,0.501-7.56,2.004c-2.118,1.488-3.388,4.033-3.388,6.608
	c0,6.268,5.877,7.611,10.828,8.569c1.192,0.235,3.231,0.539,3.231,2.154c0,1.461-2.083,1.614-3.111,1.614
	c-2.344,0-4.116-0.847-4.802-3.191L140.208,48.589"/>
<polygon fill-rule="evenodd" clip-rule="evenodd" fill="#FFFFFF" points="120.062,49.934 108.191,49.934 108.191,45.667 
	117.785,45.667 117.785,39.789 108.191,39.789 108.191,35.938 120.062,35.938 120.062,29.868 100.272,29.868 100.272,56.232 
	120.062,56.232 "/>
<polygon fill-rule="evenodd" clip-rule="evenodd" fill="#FFFFFF" points="83.459,56.232 91.706,56.232 83.459,29.867 74.925,29.867 
	66.751,56.232 73.325,56.232 74.925,51.052 81.959,51.052 "/>
<path fill-rule="evenodd" clip-rule="evenodd" fill="#FFFFFF" d="M37.366,56.232h12.075c2.379,0,5.221-0.035,7.249-1.497
	c1.884-1.339,2.703-3.879,2.703-6.147c0-3.151-2.085-5.462-5.126-5.996c2.687-0.68,4.464-3.03,4.464-5.803
	c0-2.154-1.042-4.309-2.803-5.58c-1.661-1.193-3.694-1.342-5.695-1.342H37.366V56.232"/>
<polygon fill-rule="evenodd" clip-rule="evenodd" fill="#ED1A3B" points="76.272,45.284 78.413,37.63 80.577,45.284 "/>
<path fill-rule="evenodd" clip-rule="evenodd" fill="#ED1A3B" d="M44.784,39.987v-4.47h3.149c1.543,0,3.147,0.268,3.147,2.233
	c0,0.604-0.264,1.271-0.765,1.725c-0.574,0.542-1.497,0.512-2.265,0.512H44.784"/>
<path fill-rule="evenodd" clip-rule="evenodd" fill="#ED1A3B" d="M44.784,50.358v-4.771h3.19c0.721,0,1.644,0,2.341,0.348
	c0.765,0.389,1.268,1.184,1.268,2.076c0,0.733-0.381,1.419-0.963,1.843c-0.65,0.542-1.538,0.504-2.341,0.504H44.784"/>
<rect x="21.886" y="82.571" width="2.804" height="15.57"/>
<path d="M54.243,98.142h-2.72l-5.914-9.945c-0.093-0.154-0.24-0.401-0.441-0.742c-0.101-0.146-0.235-0.392-0.428-0.724v11.411
	h-2.254v-15.57h3.101l5.455,9.172c0.038,0.076,0.373,0.633,0.993,1.678v-10.85h2.208V98.142z"/>
<path d="M70.404,94.388l2.73-0.58c0.319,1.546,1.571,2.312,3.762,2.312c0.996,0,1.761-0.194,2.3-0.592
	c0.534-0.387,0.806-0.885,0.806-1.47c0-0.428-0.125-0.815-0.37-1.179c-0.24-0.362-0.76-0.651-1.56-0.852l-2.983-0.777
	c-1.016-0.264-1.764-0.562-2.257-0.903c-0.485-0.337-0.871-0.815-1.165-1.435c-0.297-0.621-0.446-1.271-0.446-1.971
	c0-1.388,0.516-2.51,1.557-3.348c1.04-0.844,2.357-1.262,3.968-1.262c1.34,0,2.534,0.291,3.588,0.881
	c1.054,0.582,1.726,1.412,2.015,2.48l-2.674,0.663c-0.405-1.173-1.363-1.764-2.866-1.764c-0.879,0-1.549,0.183-2.001,0.544
	c-0.465,0.365-0.699,0.828-0.699,1.393c0,0.889,0.729,1.512,2.169,1.869l2.651,0.661c1.603,0.408,2.676,1.002,3.231,1.785
	c0.542,0.784,0.815,1.661,0.815,2.603c0,1.535-0.575,2.744-1.727,3.615c-1.154,0.876-2.645,1.322-4.477,1.322
	c-1.546,0-2.891-0.326-4.051-0.973C71.547,96.77,70.785,95.754,70.404,94.388"/>
<path d="M102.56,98.142h-2.813v-15.57h6.378c1.825,0,3.169,0.463,4.048,1.374c0.879,0.918,1.321,2.004,1.321,3.245
	c0,1.424-0.483,2.578-1.424,3.457c-0.948,0.879-2.161,1.322-3.629,1.322h-3.881V98.142z M102.56,89.569h3.318
	c0.863,0,1.53-0.215,1.987-0.65c0.452-0.416,0.683-0.982,0.683-1.69c0-0.642-0.213-1.187-0.632-1.649
	c-0.416-0.449-1.183-0.681-2.292-0.681h-3.064V89.569z"/>
<rect x="128.119" y="82.571" width="2.804" height="15.57"/>
<path d="M160.854,98.142h-2.967l-2.417-6.399h-3.944v6.399h-2.807v-15.57h6.751c1.878,0,3.264,0.425,4.137,1.277
	c0.882,0.84,1.32,1.935,1.32,3.284c0,2.001-0.922,3.382-2.793,4.134L160.854,98.142z M151.526,89.496h3.489
	c1.01,0,1.767-0.213,2.257-0.638c0.487-0.424,0.743-1.008,0.743-1.758c0-0.686-0.239-1.235-0.732-1.655
	c-0.482-0.429-1.165-0.642-2.042-0.642h-3.715V89.496z"/>
<polygon points="188.214,98.142 178.099,98.142 178.099,82.571 188.118,82.571 188.118,84.891 180.902,84.891 180.902,89.106 
	186.706,89.106 186.706,91.366 180.902,91.366 180.902,95.724 188.214,95.724 "/>
<path d="M204.93,98.142v-15.57h5.738c2.117,0,3.824,0.758,5.105,2.254c1.291,1.502,1.926,3.354,1.926,5.563
	c0,2.208-0.656,4.051-1.98,5.534c-1.32,1.48-3.217,2.219-5.678,2.219H204.93z M207.813,95.85h2.344c1.252,0,2.312-0.469,3.188-1.41
	c0.879-0.946,1.311-2.347,1.311-4.214c0-1.521-0.377-2.807-1.143-3.865c-0.76-1.046-1.77-1.576-3.029-1.576h-2.67V95.85z"/>
<polygon points="273.583,82.571 269.415,98.142 266.473,98.142 263.37,86.687 260.557,98.142 257.668,98.142 253.413,82.571 
	256.389,82.571 259.397,93.923 262.204,82.571 265.045,82.571 268.155,93.923 271.108,82.571 "/>
<path d="M295.272,98.386c-2.061,0-3.678-0.779-4.83-2.332c-1.148-1.555-1.725-3.463-1.725-5.744c0-2.272,0.611-4.164,1.838-5.691
	c1.219-1.521,2.836-2.284,4.842-2.284c2.025,0,3.621,0.763,4.801,2.284c1.174,1.527,1.764,3.438,1.764,5.722
	c0,2.403-0.605,4.345-1.83,5.819C298.903,97.642,297.29,98.386,295.272,98.386 M295.301,96.121c1.01,0,1.861-0.419,2.564-1.255
	c0.699-0.833,1.051-2.35,1.051-4.549c0-1.782-0.297-3.189-0.865-4.205c-0.586-1.014-1.473-1.518-2.697-1.518
	c-2.406,0-3.607,1.935-3.607,5.805c0,1.881,0.311,3.305,0.918,4.271C293.28,95.638,294.155,96.121,295.301,96.121"/>
<path d="M331.083,98.142h-2.973l-2.416-6.399h-3.947v6.399h-2.807v-15.57h6.754c1.883,0,3.26,0.425,4.139,1.277
	c0.891,0.84,1.324,1.935,1.324,3.284c0,2.001-0.932,3.382-2.807,4.134L331.083,98.142z M321.747,89.496h3.494
	c1.008,0,1.764-0.213,2.252-0.638c0.492-0.424,0.74-1.008,0.74-1.758c0-0.686-0.234-1.235-0.721-1.655
	c-0.488-0.429-1.174-0.642-2.043-0.642h-3.723V89.496z"/>
<path d="M360.569,98.142h-3.146l-3.284-7.927l-3.009,3.996v3.931h-2.806v-15.57h2.806v8.176c0.351-0.545,0.612-0.936,0.771-1.153
	l5.172-7.022h2.84l-3.698,5.123L360.569,98.142z"/>
</svg>
