<?xml version="1.0" encoding="utf-8"?>
<!-- Generator: Adobe Illustrator 16.0.0, SVG Export Plug-In . SVG Version: 6.00 Build 0)  -->
<!DOCTYPE svg PUBLIC "-//W3C//DTD SVG 1.1//EN" "http://www.w3.org/Graphics/SVG/1.1/DTD/svg11.dtd">
<svg version="1.1" id="Layer_1" xmlns="http://www.w3.org/2000/svg" xmlns:xlink="http://www.w3.org/1999/xlink" x="0px" y="0px"
	 width="884px" height="296.6px" viewBox="0 0 884 296.6" style="enable-background:new 0 0 884 296.6;" xml:space="preserve">
<style type="text/css">
<![CDATA[
	.st0{fill:url(#SVGID_1_);}
	.st1{fill:url(#SVGID_2_);}
	.st2{fill:url(#SVGID_3_);}
	.st3{fill:url(#SVGID_5_);}
	.st4{fill:url(#SVGID_6_);}
	.st5{fill:url(#SVGID_7_);}
	.st6{fill:url(#SVGID_8_);}
	.st7{fill:url(#SVGID_9_);}
	.st8{fill:#999999;}
	.st9{fill:none;}
	.st10{fill:url(#SVGID_10_);}
	.st11{fill:url(#SVGID_11_);}
	.st12{fill:url(#SVGID_12_);}
	.st13{opacity:0.5;fill:url(#SVGID_4_);}
]]>
</style>
<g>
	<g>
		<radialGradient id="SVGID_1_" cx="244.3105" cy="90.3447" r="140.8314" gradientUnits="userSpaceOnUse">
			<stop  offset="0" style="stop-color:#E14D3B"/>
			<stop  offset="0.65" style="stop-color:#D6412B"/>
			<stop  offset="0.9283" style="stop-color:#D03C29"/>
			<stop  offset="1" style="stop-color:#CD3A28"/>
		</radialGradient>
		<path class="st0" d="M291.4,209.7c-44.6,0-68.5-34.9-68.5-66.4c0-36.9,30-68.4,72.7-68.4c41.3,0,67.1,32.4,67.1,66.4
			C362.7,174.6,337.2,209.7,291.4,209.7z M326.8,186.9c6.8-8.9,8.4-20,8.4-30.9c0-24.5-11.8-71.3-46.6-71.3
			c-9.3,0-18.5,3.6-25.3,9.5c-10.9,9.7-12.9,22-12.9,34c0,27.6,13.8,73,47.7,73C309.1,201.1,320.3,195.8,326.8,186.9z"/>
		<linearGradient id="SVGID_2_" gradientUnits="userSpaceOnUse" x1="292.8232" y1="52.8853" x2="292.8232" y2="141.6645">
			<stop  offset="0" style="stop-color:#FFFFFF;stop-opacity:0.15"/>
			<stop  offset="1" style="stop-color:#FFFFFF;stop-opacity:0"/>
		</linearGradient>
		<path class="st1" d="M291.4,209.7c-44.6,0-68.5-34.9-68.5-66.4c0-36.9,30-68.4,72.7-68.4c41.3,0,67.1,32.4,67.1,66.4
			C362.7,174.6,337.2,209.7,291.4,209.7z M326.8,186.9c6.8-8.9,8.4-20,8.4-30.9c0-24.5-11.8-71.3-46.6-71.3
			c-9.3,0-18.5,3.6-25.3,9.5c-10.9,9.7-12.9,22-12.9,34c0,27.6,13.8,73,47.7,73C309.1,201.1,320.3,195.8,326.8,186.9z"/>
	</g>
	<g>
		<radialGradient id="SVGID_3_" cx="649.5908" cy="13.7896" r="205.2734" gradientUnits="userSpaceOnUse">
			<stop  offset="0" style="stop-color:#00A55D"/>
			<stop  offset="0.6949" style="stop-color:#009655"/>
			<stop  offset="0.886" style="stop-color:#00934F"/>
			<stop  offset="1" style="stop-color:#008F48"/>
		</radialGradient>
		<path class="st2" d="M714.8,205.8l8.3-8.3l-15.5-1.9c-3.9-0.5-6.8-3.7-6.8-7.8V23.3c0-2,0.8-3.9,2.2-5.3l10.2-10.2h-46.4l-12,12
			h18v170.5c0,2-0.8,3.9-2.2,5.3l-10.2,10.2H714.8z"/>
		<linearGradient id="SVGID_4_" gradientUnits="userSpaceOnUse" x1="688.9736" y1="-25.8076" x2="688.9736" y2="84.0796">
			<stop  offset="0" style="stop-color:#FFFFFF;stop-opacity:0.15"/>
			<stop  offset="1" style="stop-color:#FFFFFF;stop-opacity:0"/>
		</linearGradient>
		<path class="st13" d="M714.8,205.8l8.3-8.3l-15.5-1.9c-3.9-0.5-6.8-3.7-6.8-7.8V23.3c0-2,0.8-3.9,2.2-5.3l10.2-10.2h-46.4l-12,12
			h18v170.5c0,2-0.8,3.9-2.2,5.3l-10.2,10.2H714.8z"/>
	</g>
	<g>
		<radialGradient id="SVGID_5_" cx="744.0049" cy="90.3447" r="130.4966" gradientUnits="userSpaceOnUse">
			<stop  offset="0" style="stop-color:#E14D3B"/>
			<stop  offset="0.65" style="stop-color:#D6412B"/>
			<stop  offset="0.9283" style="stop-color:#D03C29"/>
			<stop  offset="1" style="stop-color:#CD3A28"/>
		</radialGradient>
		<path class="st3" d="M809.8,195.2c-24.9,0-47.9-18-56.1-49.9l86.1-34.8c-4.6-16.6-17.7-35.6-51.7-35.6c-28,0-62.2,21.3-62.2,64.7
			c0,34.2,22.9,70.1,66.6,70.1c9.1,0,23.2-0.6,37.7-10.9c5.5-3.8,10.1-8.4,13.9-13.5C834.5,190.1,824.2,195.2,809.8,195.2z
			 M783,84.4c15.3,0,28.1,12.7,28.1,23.9c0,3.9-2.8,5.6-8.2,7.6l-51.1,20.7C743.8,94.4,771.4,84.4,783,84.4z"/>
		<linearGradient id="SVGID_6_" gradientUnits="userSpaceOnUse" x1="785.0225" y1="52.8853" x2="785.0225" y2="141.6645">
			<stop  offset="0" style="stop-color:#FFFFFF;stop-opacity:0.15"/>
			<stop  offset="1" style="stop-color:#FFFFFF;stop-opacity:0"/>
		</linearGradient>
		<path class="st4" d="M809.8,195.2c-24.9,0-47.9-18-56.1-49.9l86.1-34.8c-4.6-16.6-17.7-35.6-51.7-35.6c-28,0-62.2,21.3-62.2,64.7
			c0,34.2,22.9,70.1,66.6,70.1c9.1,0,23.2-0.6,37.7-10.9c5.5-3.8,10.1-8.4,13.9-13.5C834.5,190.1,824.2,195.2,809.8,195.2z
			 M783,84.4c15.3,0,28.1,12.7,28.1,23.9c0,3.9-2.8,5.6-8.2,7.6l-51.1,20.7C743.8,94.4,771.4,84.4,783,84.4z"/>
	</g>
	<g>
		<radialGradient id="SVGID_7_" cx="397.2749" cy="95.7983" r="137.0083" gradientUnits="userSpaceOnUse">
			<stop  offset="0" style="stop-color:#FFBD00"/>
			<stop  offset="1" style="stop-color:#FFB200"/>
		</radialGradient>
		<path class="st5" d="M445.4,209.7c-44.6,0-68.5-34.9-68.5-66.4c0-36.9,30-68.4,72.7-68.4c41.3,0,67.1,32.4,67.1,66.4
			C516.7,174.6,491.2,209.7,445.4,209.7z M480.8,186.9c6.8-8.9,8.4-20,8.4-30.9c0-24.5-11.8-71.3-46.6-71.3
			c-9.3,0-18.5,3.6-25.3,9.5c-10.9,9.7-12.9,22-12.9,34c0,27.6,13.8,73,47.7,73C463.1,201.1,474.3,195.8,480.8,186.9z"/>
		<linearGradient id="SVGID_8_" gradientUnits="userSpaceOnUse" x1="446.8232" y1="53.9551" x2="446.8232" y2="166.0353">
			<stop  offset="0" style="stop-color:#FFFFFF;stop-opacity:0.15"/>
			<stop  offset="1" style="stop-color:#FFFFFF;stop-opacity:0"/>
		</linearGradient>
		<path class="st6" d="M445.4,209.7c-44.6,0-68.5-34.9-68.5-66.4c0-36.9,30-68.4,72.7-68.4c41.3,0,67.1,32.4,67.1,66.4
			C516.7,174.6,491.2,209.7,445.4,209.7z M480.8,186.9c6.8-8.9,8.4-20,8.4-30.9c0-24.5-11.8-71.3-46.6-71.3
			c-9.3,0-18.5,3.6-25.3,9.5c-10.9,9.7-12.9,22-12.9,34c0,27.6,13.8,73,47.7,73C463.1,201.1,474.3,195.8,480.8,186.9z"/>
	</g>
	<g>
		<radialGradient id="SVGID_9_" cx="544.9189" cy="92.9912" r="204.7357" gradientUnits="userSpaceOnUse">
			<stop  offset="0" style="stop-color:#1069EF"/>
			<stop  offset="0.6731" style="stop-color:#1066EA"/>
			<stop  offset="0.9949" style="stop-color:#1064E5"/>
		</radialGradient>
		<path class="st7" d="M628.8,197.9l-10.2-7.9c-3.1-2.6-7.5-5.9-7.5-12.2c0-6.3,4-11.1,7.7-13.9c12.2-9.5,23.9-19.6,23.9-40.6
			c0-19.1-11.5-30.2-18.7-36.5h15.9l11.9-11.9h-58.3c-40.8,0-61.5,25.4-61.5,53.5c0,21.8,16.5,45,46.4,45c2.4,0,8.4,0,8.4,0
			c-1.1,3-2.2,6.4-2.2,10.4c0,8.8,4.1,13.3,8.5,18.2c-12.8,0.8-36.7,3.3-54.2,14c-16.8,10-21.8,24.4-21.8,34.6
			c0,21,20.2,40.9,61.3,40.9c48.9,0,74.3-27.2,74.3-53.9C652.6,218,641.3,208.4,628.8,197.9z M592.7,165.1c-23.3,0-36-29-36-51
			c0-20.9,12.4-30.2,25.4-30.2c25,0,37.9,32.5,37.9,52.2C620,160.4,600.4,165.1,592.7,165.1z M592.3,279.1c-30.4,0-50-14.5-50-34.7
			c0-20.1,18.2-27,24.4-29.2c11.9-4,27.3-4.5,29.9-4.5c2.8,0,4.2,0,6.5,0.2c21.6,15.4,31,23,31,37.5
			C634,264.6,619.5,279.1,592.3,279.1z"/>
		<radialGradient id="SVGID_10_" cx="545.1504" cy="93.2231" r="202.5127" gradientUnits="userSpaceOnUse">
			<stop  offset="0" style="stop-color:#FFFFFF;stop-opacity:8.000000e-02"/>
			<stop  offset="1" style="stop-color:#FFFFFF;stop-opacity:0"/>
		</radialGradient>
		<path class="st10" d="M628.8,197.9l-10.2-7.9c-3.1-2.6-7.5-5.9-7.5-12.2c0-6.3,4-11.1,7.7-13.9c12.2-9.5,23.9-19.6,23.9-40.6
			c0-19.1-11.5-30.2-18.7-36.5h15.9l11.9-11.9h-58.3c-40.8,0-61.5,25.4-61.5,53.5c0,21.8,16.5,45,46.4,45c2.4,0,8.4,0,8.4,0
			c-1.1,3-2.2,6.4-2.2,10.4c0,8.8,4.1,13.3,8.5,18.2c-12.8,0.8-36.7,3.3-54.2,14c-16.8,10-21.8,24.4-21.8,34.6
			c0,21,20.2,40.9,61.3,40.9c48.9,0,74.3-27.2,74.3-53.9C652.6,218,641.3,208.4,628.8,197.9z M592.7,165.1c-23.3,0-36-29-36-51
			c0-20.9,12.4-30.2,25.4-30.2c25,0,37.9,32.5,37.9,52.2C620,160.4,600.4,165.1,592.7,165.1z M592.3,279.1c-30.4,0-50-14.5-50-34.7
			c0-20.1,18.2-27,24.4-29.2c11.9-4,27.3-4.5,29.9-4.5c2.8,0,4.2,0,6.5,0.2c21.6,15.4,31,23,31,37.5
			C634,264.6,619.5,279.1,592.3,279.1z"/>
	</g>
	<g>
		<radialGradient id="SVGID_11_" cx="47.4434" cy="21.4624" r="228.0955" gradientUnits="userSpaceOnUse">
			<stop  offset="0" style="stop-color:#1069EF"/>
			<stop  offset="0.6731" style="stop-color:#1066EA"/>
			<stop  offset="0.9949" style="stop-color:#1064E5"/>
		</radialGradient>
		<path class="st11" d="M146.8,131.8l-12,12h36v50.6c-8.3,2.7-21.5,5.6-41.7,5.6c-54.3,0-93.6-47.9-93.6-101.6
			c0-49,32.2-83.4,76.5-83.4c25.7,0,43.6,8.3,58.8,22.8v16.5L198.2,27c-6.3-4.3-17.4-11.6-37-17.4c-12.7-3.7-27.6-5.6-43-5.6
			C44,4.1,5,58.6,5,106.5c0,68.8,50.3,106.1,108.5,106.1c40.3,0,71.9-9.1,85.3-12.8v-52.5c0-2,0.8-3.9,2.2-5.3l10.2-10.2H146.8z"/>
		<radialGradient id="SVGID_12_" cx="47.7954" cy="21.6855" r="225.5753" gradientUnits="userSpaceOnUse">
			<stop  offset="0" style="stop-color:#FFFFFF;stop-opacity:8.000000e-02"/>
			<stop  offset="1" style="stop-color:#FFFFFF;stop-opacity:0"/>
		</radialGradient>
		<path class="st12" d="M146.8,131.8l-12,12h36v50.6c-8.3,2.7-21.5,5.6-41.7,5.6c-54.3,0-93.6-47.9-93.6-101.6
			c0-49,32.2-83.4,76.5-83.4c25.7,0,43.6,8.3,58.8,22.8v16.5L198.2,27c-6.3-4.3-17.4-11.6-37-17.4c-12.7-3.7-27.6-5.6-43-5.6
			C44,4.1,5,58.6,5,106.5c0,68.8,50.3,106.1,108.5,106.1c40.3,0,71.9-9.1,85.3-12.8v-52.5c0-2,0.8-3.9,2.2-5.3l10.2-10.2H146.8z"/>
	</g>
	<g>
		<g>
			<path class="st8" d="M844.8,76.8h6v16h2v-16h6v-2h-14V76.8z M876,74.8L869.8,90l-6.2-15.2h-2.8v18h2v-15l6.2,15h1.5l6.2-15v15h2
				v-18H876z"/>
		</g>
	</g>
	<rect x="-125.2" y="-127.2" class="st9" width="1100" height="530"/>
</g>
</svg>
