<?xml version="1.0" encoding="utf-8"?>
<!-- Generator: Adobe Illustrator 16.0.0, SVG Export Plug-In . SVG Version: 6.00 Build 0)  -->
<!DOCTYPE svg PUBLIC "-//W3C//DTD SVG 1.1//EN" "http://www.w3.org/Graphics/SVG/1.1/DTD/svg11.dtd">
<svg version="1.1" id="Layer_1" xmlns="http://www.w3.org/2000/svg" xmlns:xlink="http://www.w3.org/1999/xlink" x="0px" y="0px"
	 width="273px" height="34.333px" viewBox="0 0 273 34.333" enable-background="new 0 0 273 34.333" xml:space="preserve">
<g>
	<defs>
		<rect id="SVGID_1_" x="3.333" y="4.379" width="267.855" height="19.288"/>
	</defs>
	<clipPath id="SVGID_2_">
		<use xlink:href="#SVGID_1_"  overflow="visible"/>
	</clipPath>
	<path clip-path="url(#SVGID_2_)" d="M260.49,22.528c1.091,0.759,2.573,1.139,4.445,1.139c2.063,0,3.62-0.453,4.673-1.359
		c1.054-0.906,1.58-1.989,1.58-3.249c0-1.156-0.38-2.059-1.14-2.705c-0.768-0.64-2.12-1.179-4.058-1.618
		c-1.938-0.44-3.07-0.781-3.398-1.023c-0.241-0.181-0.362-0.4-0.362-0.659c0-0.303,0.139-0.549,0.414-0.738
		c0.414-0.268,1.101-0.401,2.059-0.401c0.76,0,1.344,0.143,1.754,0.427c0.41,0.285,0.688,0.695,0.835,1.23l3.431-0.635
		c-0.346-1.199-0.976-2.105-1.89-2.718c-0.915-0.613-2.313-0.92-4.194-0.92c-1.977,0-3.435,0.406-4.376,1.218
		c-0.94,0.811-1.411,1.812-1.411,3.003c0,1.319,0.544,2.352,1.631,3.094c0.785,0.535,2.646,1.126,5.579,1.773
		c0.63,0.146,1.036,0.307,1.217,0.479c0.174,0.181,0.26,0.41,0.26,0.686c0,0.406-0.16,0.73-0.479,0.972
		c-0.474,0.345-1.182,0.518-2.123,0.518c-0.854,0-1.519-0.183-1.993-0.55s-0.79-0.904-0.944-1.612l-3.651,0.558
		C258.683,20.737,259.397,21.769,260.49,22.528 M252.793,19.11c0-2.338,0.101-3.875,0.304-4.608s0.481-1.24,0.835-1.521
		c0.354-0.281,0.785-0.421,1.295-0.421c0.526,0,1.097,0.199,1.708,0.595l1.127-3.171c-0.769-0.457-1.566-0.687-2.395-0.687
		c-0.587,0-1.111,0.147-1.573,0.44c-0.462,0.294-0.981,0.902-1.56,1.825V9.609h-3.378v13.747h3.637V19.11z M236.974,13.351
		c0.648-0.726,1.446-1.088,2.396-1.088c0.948,0,1.746,0.362,2.389,1.088c0.642,0.725,0.964,1.76,0.964,3.105
		c0,1.381-0.322,2.435-0.964,3.159c-0.643,0.725-1.44,1.087-2.389,1.087c-0.949,0-1.747-0.362-2.396-1.087
		c-0.646-0.725-0.97-1.769-0.97-3.133C236.004,15.119,236.328,14.075,236.974,13.351 M233.169,20.308
		c0.595,1.101,1.464,1.936,2.607,2.505s2.346,0.854,3.605,0.854c2.037,0,3.726-0.684,5.068-2.052
		c1.342-1.368,2.013-3.092,2.013-5.172c0-2.062-0.665-3.77-1.993-5.119c-1.33-1.351-3.034-2.026-5.114-2.026
		c-1.346,0-2.564,0.299-3.656,0.894c-1.092,0.596-1.936,1.459-2.53,2.589c-0.596,1.131-0.895,2.3-0.895,3.508
		C232.275,17.867,232.574,19.207,233.169,20.308 M219.235,22.528c1.091,0.759,2.572,1.139,4.445,1.139
		c2.063,0,3.62-0.453,4.673-1.359c1.054-0.906,1.579-1.989,1.579-3.249c0-1.156-0.379-2.059-1.139-2.705
		c-0.769-0.64-2.121-1.179-4.059-1.618c-1.937-0.44-3.069-0.781-3.397-1.023c-0.242-0.181-0.362-0.4-0.362-0.659
		c0-0.303,0.139-0.549,0.414-0.738c0.414-0.268,1.101-0.401,2.059-0.401c0.759,0,1.344,0.143,1.754,0.427
		c0.409,0.285,0.688,0.695,0.835,1.23l3.43-0.635c-0.345-1.199-0.975-2.105-1.889-2.718c-0.915-0.613-2.313-0.92-4.195-0.92
		c-1.976,0-3.434,0.406-4.375,1.218c-0.94,0.811-1.411,1.812-1.411,3.003c0,1.319,0.544,2.352,1.631,3.094
		c0.785,0.535,2.646,1.126,5.579,1.773c0.63,0.146,1.036,0.307,1.217,0.479c0.174,0.181,0.26,0.41,0.26,0.686
		c0,0.406-0.16,0.73-0.479,0.972c-0.475,0.345-1.182,0.518-2.123,0.518c-0.854,0-1.519-0.183-1.993-0.55s-0.79-0.904-0.944-1.612
		l-3.651,0.558C217.428,20.737,218.142,21.769,219.235,22.528 M214.645,9.609h-3.637v13.747h3.637V9.609z M214.645,4.379h-3.637
		v3.366h3.637V4.379z M203.319,23.356l5.463-13.747h-3.741l-2.615,7.016c-0.138,0.389-0.269,0.776-0.39,1.165
		c-0.051,0.19-0.176,0.582-0.375,1.179l-0.75-2.344l-2.59-7.016h-3.818l5.541,13.747H203.319z M183.842,13.11
		c0.583-0.687,1.307-1.029,2.169-1.029c0.888,0,1.618,0.349,2.187,1.042c0.57,0.695,0.855,1.832,0.855,3.411
		c0,1.416-0.294,2.479-0.881,3.191s-1.298,1.067-2.135,1.067c-1.053,0-1.873-0.475-2.461-1.424
		c-0.405-0.656-0.607-1.717-0.607-3.184C182.969,14.821,183.26,13.796,183.842,13.11 M192.677,4.379h-3.637v6.835
		c-1.122-1.276-2.451-1.916-3.987-1.916c-1.675,0-3.061,0.606-4.156,1.819c-1.096,1.212-1.644,2.983-1.644,5.314
		c0,2.277,0.563,4.053,1.69,5.325c1.125,1.273,2.479,1.91,4.058,1.91c0.776,0,1.547-0.191,2.312-0.576
		c0.762-0.384,1.426-0.969,1.986-1.754v2.02h3.378V4.379z M165.831,15.849l2.562-7.042l2.615,7.042H165.831z M170.464,4.379h-4.052
		l-7.391,18.978h4.063l1.567-4.312h7.584l1.658,4.312h4.168L170.464,4.379z M142.309,23.356l2.822-4.259l2.796,4.259h4.466
		l-5.087-7.236l4.66-6.511h-4.272l-2.562,3.779l-2.434-3.779h-4.44l4.751,6.666l-4.958,7.081H142.309z M132.639,17.479
		c0,0.872-0.047,1.463-0.142,1.772c-0.138,0.476-0.427,0.876-0.868,1.204c-0.595,0.433-1.221,0.648-1.877,0.648
		c-0.587,0-1.07-0.187-1.449-0.558c-0.38-0.37-0.57-0.811-0.57-1.319c0-0.519,0.237-0.945,0.712-1.282
		c0.311-0.207,0.971-0.418,1.981-0.634c1.009-0.216,1.747-0.402,2.213-0.558V17.479z M128.652,12.463
		c0.363-0.255,0.867-0.382,1.515-0.382c0.958,0,1.609,0.149,1.954,0.447c0.345,0.297,0.518,0.796,0.518,1.495v0.362
		c-0.656,0.276-1.834,0.573-3.534,0.893c-1.26,0.242-2.224,0.525-2.893,0.848c-0.669,0.324-1.189,0.79-1.56,1.398
		s-0.556,1.301-0.556,2.078c0,1.174,0.407,2.145,1.223,2.913c0.815,0.768,1.931,1.151,3.346,1.151c0.803,0,1.558-0.15,2.265-0.453
		c0.708-0.302,1.373-0.755,1.994-1.359c0.026,0.069,0.069,0.212,0.129,0.428c0.138,0.474,0.255,0.832,0.35,1.074h3.599
		c-0.32-0.656-0.538-1.271-0.654-1.845c-0.117-0.573-0.175-1.465-0.175-2.674l0.039-4.245c0-1.579-0.162-2.664-0.486-3.256
		c-0.323-0.591-0.882-1.079-1.676-1.463s-2.002-0.576-3.624-0.576c-1.787,0-3.133,0.319-4.039,0.958
		c-0.906,0.64-1.545,1.622-1.916,2.951l3.301,0.597C127.996,13.164,128.291,12.719,128.652,12.463 M118.957,23.356V7.589h5.618
		v-3.21h-15.08v3.21h5.631v15.768H118.957z M91.449,15.305c-0.009-0.992,0.246-1.777,0.763-2.356
		c0.518-0.578,1.174-0.867,1.968-0.867c0.742,0,1.372,0.274,1.89,0.822s0.79,1.349,0.815,2.401H91.449z M95.798,20.482
		c-0.388,0.311-0.867,0.466-1.437,0.466c-0.837,0-1.536-0.3-2.097-0.899s-0.854-1.438-0.88-2.518h9.113
		c0.052-2.788-0.513-4.857-1.696-6.207c-1.182-1.351-2.796-2.026-4.841-2.026c-1.821,0-3.327,0.646-4.518,1.936
		s-1.786,3.075-1.786,5.353c0,1.907,0.453,3.486,1.359,4.738c1.148,1.562,2.917,2.343,5.307,2.343c1.511,0,2.768-0.348,3.774-1.042
		c1.005-0.694,1.741-1.707,2.207-3.036l-3.625-0.607C96.48,19.671,96.187,20.172,95.798,20.482 M84.989,9.609h-3.637v13.747h3.637
		V9.609z M84.989,4.379h-3.637v3.366h3.637V4.379z M76.342,9.609V4.754l-3.65,2.123v2.732h-1.67v2.898h1.67v5.994
		c0,1.286,0.038,2.141,0.116,2.563c0.095,0.595,0.265,1.067,0.511,1.417s0.633,0.635,1.159,0.854c0.526,0.221,1.118,0.33,1.773,0.33
		c1.07,0,2.028-0.182,2.874-0.544l-0.31-2.821c-0.639,0.232-1.127,0.35-1.463,0.35c-0.242,0-0.447-0.062-0.615-0.182
		s-0.276-0.274-0.324-0.459c-0.047-0.187-0.071-0.84-0.071-1.962v-5.541h2.485V9.609H76.342z M67.514,9.609V4.754l-3.651,2.123
		v2.732h-1.67v2.898h1.67v5.994c0,1.286,0.039,2.141,0.117,2.563c0.095,0.595,0.265,1.067,0.511,1.417s0.632,0.635,1.159,0.854
		c0.526,0.221,1.117,0.33,1.773,0.33c1.07,0,2.028-0.182,2.874-0.544l-0.311-2.821c-0.639,0.232-1.126,0.35-1.463,0.35
		c-0.241,0-0.446-0.062-0.614-0.182c-0.169-0.12-0.277-0.274-0.324-0.459c-0.048-0.187-0.071-0.84-0.071-1.962v-5.541H70V9.609
		H67.514z M59.967,9.609H56.33v13.747h3.637V9.609z M59.967,4.379H56.33v3.366h3.637V4.379z M48.084,23.356L54.88,4.379h-4.065
		l-4.647,14.045L41.365,4.379H37.21l6.783,18.978H48.084z M35.299,10.379c-0.988-0.721-2.319-1.081-3.993-1.081
		c-2.045,0-3.668,0.633-4.867,1.896c-1.2,1.265-1.8,3.032-1.8,5.301c0,2.244,0.598,4,1.793,5.27
		c1.195,1.268,2.798,1.902,4.809,1.902c1.769,0,3.18-0.419,4.233-1.256c1.053-0.837,1.765-2.075,2.136-3.715l-3.573-0.609
		c-0.181,0.958-0.492,1.635-0.932,2.026c-0.44,0.393-1.005,0.589-1.695,0.589c-0.924,0-1.66-0.336-2.208-1.009
		c-0.548-0.674-0.822-1.826-0.822-3.457c0-1.467,0.27-2.513,0.809-3.139c0.54-0.625,1.263-0.938,2.169-0.938
		c0.681,0,1.236,0.181,1.663,0.543c0.427,0.363,0.701,0.902,0.822,1.618l3.586-0.647C36.998,12.198,36.288,11.1,35.299,10.379
		 M6.892,23.356V8.418l3.754,14.938h3.689l3.767-14.938v14.938h3.56V4.379h-5.747L12.51,17.324L9.067,4.379H3.333v18.978H6.892z"/>
</g>
<g>
	<defs>
		<rect id="SVGID_3_" x="3.06" y="30.33" width="268.4" height="1.5"/>
	</defs>
	<clipPath id="SVGID_4_">
		<use xlink:href="#SVGID_3_"  overflow="visible"/>
	</clipPath>
	<line clip-path="url(#SVGID_4_)" fill="none" stroke="#ED1C24" stroke-width="1.5" x1="3.06" y1="31.08" x2="271.46" y2="31.08"/>
</g>
</svg>
