<?xml version="1.0" encoding="UTF-8" standalone="no"?>
<!-- Generator: Adobe Illustrator 16.0.0, SVG Export Plug-In . SVG Version: 6.00 Build 0)  -->

<svg
   xmlns:dc="http://purl.org/dc/elements/1.1/"
   xmlns:cc="http://creativecommons.org/ns#"
   xmlns:rdf="http://www.w3.org/1999/02/22-rdf-syntax-ns#"
   xmlns:svg="http://www.w3.org/2000/svg"
   xmlns="http://www.w3.org/2000/svg"
   xmlns:sodipodi="http://sodipodi.sourceforge.net/DTD/sodipodi-0.dtd"
   xmlns:inkscape="http://www.inkscape.org/namespaces/inkscape"
   version="1.1"
   id="Layer_1"
   x="0px"
   y="0px"
   width="294.20001"
   height="269.79999"
   viewBox="0 0 294.20002 269.79998"
   xml:space="preserve"
   inkscape:version="0.91 r13725"
   sodipodi:docname="nsf.svg"><metadata
     id="metadata171"><rdf:RDF><cc:Work
         rdf:about=""><dc:format>image/svg+xml</dc:format><dc:type
           rdf:resource="http://purl.org/dc/dcmitype/StillImage" /><dc:title></dc:title></cc:Work></rdf:RDF></metadata><defs
     id="defs169" /><sodipodi:namedview
     pagecolor="#ffffff"
     bordercolor="#666666"
     borderopacity="1"
     objecttolerance="10"
     gridtolerance="10"
     guidetolerance="10"
     inkscape:pageopacity="0"
     inkscape:pageshadow="2"
     inkscape:window-width="1920"
     inkscape:window-height="1027"
     id="namedview167"
     showgrid="false"
     fit-margin-top="20"
     fit-margin-left="20"
     fit-margin-right="20"
     fit-margin-bottom="20"
     inkscape:zoom="0.5959596"
     inkscape:cx="-2.391518"
     inkscape:cy="117.80398"
     inkscape:window-x="0"
     inkscape:window-y="0"
     inkscape:window-maximized="1"
     inkscape:current-layer="Layer_1" /><style
     type="text/css"
     id="style3"><![CDATA[
	.st0{fill:#919195;}
	.st1{fill:none;}
	.st2{fill:#0084A9;}
]]></style><g
     id="g5"
     transform="translate(-158.9,-242.3)"><polygon
       class="st1"
       points="327.3,336.1 324.2,327.9 321.1,336.1 "
       id="polygon7"
       style="fill:none" /><path
       class="st1"
       d="m 341.2,310.1 c 4,0 7,-3 7,-7 0,-4 -3,-7 -7,-7 -4,0 -7,3 -7,7 0,4 3,7 7,7 z"
       id="path9"
       inkscape:connector-curvature="0"
       style="fill:none" /><path
       class="st1"
       d="m 379.6,341.4 c 4,0 7,-3 7,-7 0,-4 -3,-7 -7,-7 -4,0 -7,3 -7,7 0,4 3,7 7,7 z"
       id="path11"
       inkscape:connector-curvature="0"
       style="fill:none" /><path
       class="st1"
       d="m 299.8,278.7 c 4,0 7,-3 7,-7 0,-4 -3,-7 -7,-7 -4,0 -7,3 -7,7 0,4 3.1,7 7,7 z"
       id="path13"
       inkscape:connector-curvature="0"
       style="fill:none" /><path
       class="st1"
       d="m 367.2,310.1 c 4,0 7,-3 7,-7 0,-4 -3,-7 -7,-7 -4,0 -7,3 -7,7 0,4 3.1,7 7,7 z"
       id="path15"
       inkscape:connector-curvature="0"
       style="fill:none" /><path
       class="st1"
       d="m 224.9,341.4 c 4,0 7,-3 7,-7 0,-4 -3,-7 -7,-7 -4,0 -7,3 -7,7 0,4 3,7 7,7 z"
       id="path17"
       inkscape:connector-curvature="0"
       style="fill:none" /><path
       class="st1"
       d="m 308,334.4 c 0,-2.1 -0.9,-4.1 -2.4,-5.4 -1.1,-0.9 -2.3,-1.3 -4.9,-1.3 l -3.6,0 0,13.4 3.3,0 c 2.6,0 3.9,-0.3 5.1,-1.3 1.5,-1.2 2.5,-3.4 2.5,-5.4 z"
       id="path19"
       inkscape:connector-curvature="0"
       style="fill:none" /><path
       class="st2"
       d="m 309.2,412.4 c 12.3,-24.3 54,-42.6 103.9,-43.2 2.3,0 4.7,0 7,0 l -4.6,-8 c -55,0.9 -100,23.2 -106.3,51.2 z"
       id="path21"
       inkscape:connector-curvature="0"
       style="fill:#0084a9" /><path
       class="st2"
       d="m 308.7,422.9 c -0.2,1 -0.4,2.1 -0.5,3.1 0.2,-0.6 0.5,-1.2 0.7,-1.7 11.3,-25.1 54,-43.9 105.2,-44.1 4.2,0 8.4,0.1 12.6,0.3 l -4.7,-8.2 c -1.9,0 -3.9,-0.1 -5.8,-0.1 -55.7,0.3 -101.3,22.4 -107.5,50.7 z"
       id="path23"
       inkscape:connector-curvature="0"
       style="fill:#0084a9" /><path
       class="st2"
       d="m 428.4,383.6 c -4.1,-0.2 -8.2,-0.4 -12.4,-0.4 -52.3,0 -95.9,19.5 -106.1,45.4 -0.7,1.8 -1.3,3.6 -1.6,5.5 -0.3,1.5 -0.5,3 -0.6,4.5 0,0.5 0,1 0,1.6 0,0.1 0,0.1 0,0.2 0.1,-0.4 0.2,-0.7 0.3,-1.1 0.2,-0.8 0.5,-1.6 0.8,-2.4 0.6,-1.7 1.4,-3.3 2.3,-4.9 13.3,-23.5 54.7,-40.7 103.8,-40.7 6.2,0 12.3,0.3 18.2,0.8 l -4.7,-8.5 z"
       id="path25"
       inkscape:connector-curvature="0"
       style="fill:#0084a9" /><path
       class="st2"
       d="m 199,369.2 c 49.9,0.7 91.6,18.9 103.9,43.2 -6.3,-28.1 -51.3,-50.3 -106.3,-51.2 l -4.6,8 c 2.3,0 4.6,0 7,0 z"
       id="path27"
       inkscape:connector-curvature="0"
       style="fill:#0084a9" /><path
       class="st2"
       d="m 303.2,424.3 c 0.3,0.6 0.5,1.2 0.7,1.7 -0.1,-1.1 -0.3,-2.1 -0.5,-3.1 -6.2,-28.3 -51.8,-50.4 -107.3,-50.7 -2,0 -3.9,0 -5.8,0.1 l -4.7,8.2 c 4.1,-0.2 8.3,-0.3 12.6,-0.3 51,0.2 93.7,19 105,44.1 z"
       id="path29"
       inkscape:connector-curvature="0"
       style="fill:#0084a9" /><path
       class="st2"
       d="m 303.8,434.1 c -0.4,-1.9 -0.9,-3.7 -1.6,-5.5 -10.1,-25.9 -53.8,-45.4 -106.1,-45.4 -4.2,0 -8.3,0.1 -12.4,0.4 l -4.8,8.4 c 5.9,-0.5 12,-0.8 18.2,-0.8 49.1,0 90.6,17.2 103.8,40.7 0.9,1.6 1.7,3.3 2.3,4.9 0.3,0.8 0.6,1.6 0.8,2.4 0.1,0.4 0.2,0.7 0.3,1.1 0,-0.1 0,-0.1 0,-0.2 0,-0.5 0,-1 0,-1.6 0,-1.4 -0.2,-2.9 -0.5,-4.4 z"
       id="path31"
       inkscape:connector-curvature="0"
       style="fill:#0084a9" /><path
       class="st0"
       d="m 308.4,341 c 1.6,-1.7 2.6,-4.3 2.6,-6.6 0,-2.3 -1.1,-5 -2.6,-6.6 -1.7,-1.7 -4,-2.5 -7.5,-2.5 l -6.7,0 0,18.1 6.7,0 c 3.5,0.1 5.8,-0.7 7.5,-2.4 z m -11.3,0.1 0,-13.4 3.6,0 c 2.5,0 3.7,0.3 4.9,1.3 1.5,1.3 2.4,3.3 2.4,5.4 0,2 -0.9,4.2 -2.4,5.4 -1.3,1 -2.5,1.3 -5.1,1.3 l -3.4,0 z"
       id="path33"
       inkscape:connector-curvature="0"
       style="fill:#919195" /><path
       class="st0"
       d="m 369.6,334.4 c 0,5.5 4.2,9.4 10.1,9.4 5.8,0 10.1,-3.9 10.1,-9.4 0,-5.4 -4.2,-9.4 -10.1,-9.4 -5.9,0 -10.1,4 -10.1,9.4 z m 10,-7 c 4,0 7,3 7,7 0,4 -3,7 -7,7 -4,0 -7,-3 -7,-7 0,-4 3,-7 7,-7 z"
       id="path35"
       inkscape:connector-curvature="0"
       style="fill:#919195" /><polygon
       class="st0"
       points="351.9,325.3 336.2,325.3 336.2,327.7 342.6,327.7 342.6,343.5 345.5,343.5 345.5,327.7 351.9,327.7 "
       id="polygon37"
       style="fill:#919195" /><polygon
       class="st0"
       points="208.8,325.3 197.6,325.3 197.6,343.5 200.5,343.5 200.5,335.6 207.4,335.6 207.4,333.2 200.5,333.2 200.5,327.7 208.8,327.7 "
       id="polygon39"
       style="fill:#919195" /><path
       class="st0"
       d="m 315.4,343.5 2.9,0 2,-5 7.8,0 2.1,5 2.8,0 -7.4,-18.6 -2.8,0 -7.4,18.6 z m 11.9,-7.4 -6.2,0 3.1,-8.1 3.1,8.1 z"
       id="path41"
       inkscape:connector-curvature="0"
       style="fill:#919195" /><path
       class="st0"
       d="m 400.5,328.9 c 0.1,0.5 0.3,0.9 0.9,1.7 l 10.2,13.1 2.6,0 0,-18.4 -2.6,0 0,14.6 c -0.1,-0.6 -0.4,-1.3 -0.7,-1.7 l -10.2,-12.9 -2.9,0 0,18.1 2.7,0 0,-14.5 z"
       id="path43"
       inkscape:connector-curvature="0"
       style="fill:#919195" /><path
       class="st0"
       d="m 242.5,325.3 0,10.7 c 0,3.6 0.7,5.5 2.6,6.6 1.4,0.8 3.4,1.4 5.2,1.4 l 0.1,0 c 1.7,0 3.8,-0.6 5.1,-1.4 1.9,-1.1 2.7,-3 2.7,-6.6 l 0,-10.7 -2.8,0 0,11.2 c 0,3.3 -1.7,5 -5,5 -3.3,0 -5,-1.7 -5,-5 l 0,-11.2 -2.9,0 z"
       id="path45"
       inkscape:connector-curvature="0"
       style="fill:#919195" /><path
       class="st0"
       d="m 270.6,328.9 c 0.1,0.5 0.3,0.9 0.9,1.7 l 10.2,13.1 2.6,0 0,-18.4 -2.6,0 0,14.6 c -0.1,-0.6 -0.4,-1.3 -0.7,-1.7 l -10.2,-12.9 -2.9,0 0,18.1 2.7,0 0,-14.5 z"
       id="path47"
       inkscape:connector-curvature="0"
       style="fill:#919195" /><path
       class="st0"
       d="m 224.9,343.8 c 5.8,0 10.1,-3.9 10.1,-9.4 0,-5.4 -4.2,-9.4 -10.1,-9.4 -5.8,0 -10.1,4 -10.1,9.4 0,5.5 4.2,9.4 10.1,9.4 z m 0,-16.4 c 4,0 7,3 7,7 0,4 -3,7 -7,7 -4,0 -7,-3 -7,-7 0,-4 3,-7 7,-7 z"
       id="path49"
       inkscape:connector-curvature="0"
       style="fill:#919195" /><rect
       x="358.5"
       y="325.29999"
       class="st0"
       width="2.9000001"
       height="18.1"
       id="rect51"
       style="fill:#919195" /><polygon
       class="st0"
       points="396.9,309.7 388.3,309.7 388.3,294 385.5,294 385.5,312.1 396.9,312.1 "
       id="polygon53"
       style="fill:#919195" /><path
       class="st0"
       d="m 292.7,312.5 c 1.8,0 3.4,-0.3 5.4,-1.2 l -0.8,-2.1 c -1.5,0.8 -2.3,0.9 -4,0.9 -2.7,0 -4.3,-0.6 -5.7,-1.9 -1.4,-1.4 -2.2,-3.3 -2.2,-5.4 0,-4 2.8,-6.8 6.9,-6.8 1.1,0 2.2,0.2 3,0.5 0.6,0.2 1,0.5 1.8,1.1 l 1.4,-2.2 c -2,-1.2 -3.8,-1.7 -6.1,-1.7 -5.7,0 -10.1,4 -10.1,9.3 0.1,5.6 4.4,9.5 10.4,9.5 z"
       id="path55"
       inkscape:connector-curvature="0"
       style="fill:#919195" /><path
       class="st0"
       d="m 331.1,303 c 0,5.5 4.2,9.4 10.1,9.4 5.8,0 10.1,-3.9 10.1,-9.4 0,-5.4 -4.2,-9.4 -10.1,-9.4 -5.9,0 -10.1,4 -10.1,9.4 z m 10.1,-6.9 c 4,0 7,3 7,7 0,4 -3,7 -7,7 -4,0 -7,-3 -7,-7 0,-4 3,-7 7,-7 z"
       id="path57"
       inkscape:connector-curvature="0"
       style="fill:#919195" /><path
       class="st0"
       d="m 367.2,312.5 c 5.8,0 10.1,-3.9 10.1,-9.4 0,-5.4 -4.3,-9.4 -10.1,-9.4 -5.8,0 -10.1,4 -10.1,9.4 0.1,5.4 4.3,9.4 10.1,9.4 z m 0,-16.4 c 4,0 7,3 7,7 0,4 -3,7 -7,7 -4,0 -7,-3 -7,-7 0,-4 3.1,-7 7,-7 z"
       id="path59"
       inkscape:connector-curvature="0"
       style="fill:#919195" /><path
       class="st0"
       d="m 269.9,310.1 c -1,0 -2.1,-0.2 -3,-0.6 -0.7,-0.3 -1.2,-0.6 -2.4,-1.4 l -1.3,2.5 c 1.3,0.8 1.8,1.1 2.6,1.4 1.1,0.4 2.4,0.6 3.7,0.6 4.1,0 6.6,-1.9 6.6,-5.2 0,-2.2 -1.1,-3.5 -4.5,-5.2 -3.5,-1.7 -4.1,-2 -4.7,-2.8 -0.2,-0.2 -0.2,-0.6 -0.2,-0.9 0,-1.4 1.4,-2.2 3.7,-2.2 0.8,0 1.6,0.1 2.5,0.4 0.9,0.3 1.3,0.5 2.3,1.1 l 1,-2.4 c -1.1,-0.6 -1.6,-0.8 -2.4,-1.1 -1,-0.3 -2.2,-0.5 -3.4,-0.5 -4,0 -6.6,1.9 -6.6,4.9 0,1.9 1.3,3.5 4,4.8 l 3.3,1.6 c 1.4,0.7 2,1.5 2,2.7 0.2,1.4 -1.1,2.3 -3.2,2.3 z"
       id="path61"
       inkscape:connector-curvature="0"
       style="fill:#919195" /><polygon
       class="st0"
       points="322.9,312.1 322.9,294 320.1,294 320.1,301.6 308.6,301.6 308.6,294 305.7,294 305.7,312.1 308.6,312.1 308.6,304 320.1,304 320.1,312.1 "
       id="polygon63"
       style="fill:#919195" /><path
       class="st0"
       d="m 407.9,310.1 c -1,0 -2.1,-0.2 -3,-0.6 -0.7,-0.3 -1.2,-0.6 -2.4,-1.4 l -1.3,2.5 c 1.3,0.8 1.8,1.1 2.6,1.4 1.1,0.4 2.4,0.6 3.7,0.6 4.1,0 6.6,-1.9 6.6,-5.2 0,-2.2 -1.1,-3.5 -4.5,-5.2 -3.5,-1.7 -4.1,-2 -4.7,-2.8 -0.2,-0.2 -0.2,-0.6 -0.2,-0.9 0,-1.4 1.4,-2.2 3.7,-2.2 0.8,0 1.6,0.1 2.5,0.4 0.9,0.3 1.3,0.5 2.3,1.1 l 1,-2.4 c -1.1,-0.6 -1.6,-0.8 -2.4,-1.1 -1,-0.3 -2.2,-0.5 -3.4,-0.5 -4,0 -6.6,1.9 -6.6,4.9 0,1.9 1.3,3.5 4,4.8 l 3.3,1.6 c 1.4,0.7 2,1.5 2,2.7 0.2,1.4 -1.1,2.3 -3.2,2.3 z"
       id="path65"
       inkscape:connector-curvature="0"
       style="fill:#919195" /><path
       class="st0"
       d="m 200.2,266.2 c 0.1,0.5 0.3,0.9 0.9,1.7 l 10.2,13.1 2.6,0 0,-18.4 -2.6,0 0,14.6 c -0.1,-0.6 -0.4,-1.3 -0.7,-1.7 l -10.2,-12.9 -2.9,0 0,18.1 2.7,0 0,-14.5 z"
       id="path67"
       inkscape:connector-curvature="0"
       style="fill:#919195" /><path
       class="st0"
       d="m 299.8,281.1 c 5.8,0 10.1,-3.9 10.1,-9.4 0,-5.4 -4.2,-9.4 -10.1,-9.4 -5.8,0 -10.1,4 -10.1,9.4 0.1,5.5 4.3,9.4 10.1,9.4 z m 0,-16.4 c 4,0 7,3 7,7 0,4 -3,7 -7,7 -4,0 -7,-3 -7,-7 0,-4 3.1,-7 7,-7 z"
       id="path69"
       inkscape:connector-curvature="0"
       style="fill:#919195" /><polygon
       class="st0"
       points="226.6,265 234.9,265 234.9,262.6 223.7,262.6 223.7,280.8 235.1,280.8 235.1,278.4 226.6,278.4 226.6,272.6 233.5,272.6 233.5,270.3 226.6,270.3 "
       id="polygon71"
       style="fill:#919195" /><path
       class="st0"
       d="m 320.7,266.2 c 0.1,0.5 0.3,0.9 0.9,1.7 l 10.2,13.1 2.6,0 0,-18.4 -2.6,0 0,14.6 c -0.1,-0.6 -0.4,-1.3 -0.7,-1.7 l -10.2,-12.9 -2.9,0 0,18.1 2.7,0 0,-14.5 z"
       id="path73"
       inkscape:connector-curvature="0"
       style="fill:#919195" /><polygon
       class="st0"
       points="257.3,276.7 254.2,269.8 257.3,262.6 254.6,262.6 253,266.9 251.1,262.6 248.4,262.6 251.5,270 248.7,276.7 243,262.6 239.8,262.6 247.8,281.1 249.2,281.1 252.7,272.9 256.5,281.1 258,281.1 265.6,262.6 262.8,262.6 "
       id="polygon75"
       style="fill:#919195" /><polygon
       class="st0"
       points="269.7,265 276.1,265 276.1,280.8 279,280.8 279,265 285.4,265 285.4,262.6 269.7,262.6 "
       id="polygon77"
       style="fill:#919195" /></g><g
     id="g79"
     transform="translate(-158.9,-242.3)"><path
       class="st0"
       d="m 203,483.7 -4.1,0 -0.4,2.4 3.3,0 -0.2,1.6 -3.4,0 -0.4,2.6 4.2,0 -0.2,1.6 -6.1,0 1.5,-9.8 6,0 -0.2,1.6 z"
       id="path81"
       inkscape:connector-curvature="0"
       style="fill:#919195" /><path
       class="st0"
       d="m 213.4,488.9 c -1.1,2 -2.9,3 -5.4,3 l -3.6,0 1.6,-9.8 3.6,0 c 1.8,0 2.9,0.4 3.7,1.5 0.6,0.7 0.9,1.7 0.9,2.7 -0.1,0.8 -0.3,1.7 -0.8,2.6 z m -4.3,-5.2 -1.5,0 -1,6.5 1.5,0 c 2.4,0 4,-1.6 4,-4 0,-1.8 -0.9,-2.5 -3,-2.5 z"
       id="path83"
       inkscape:connector-curvature="0"
       style="fill:#919195" /><path
       class="st0"
       d="m 224.3,488 c -0.3,1.9 -0.7,2.6 -1.9,3.3 -0.8,0.5 -1.6,0.7 -2.8,0.7 -2.3,0 -3.6,-1 -3.6,-2.7 0,-0.4 0,-0.9 0.1,-1.3 l 0.9,-6 1.9,0 -1,6.1 c 0,0.2 -0.1,0.4 -0.1,0.6 0,1.1 0.6,1.6 1.9,1.6 1.5,0 2.4,-0.8 2.6,-2.2 l 1,-6 1.9,0 -0.9,5.9 z"
       id="path85"
       inkscape:connector-curvature="0"
       style="fill:#919195" /><path
       class="st0"
       d="m 234.6,484.2 c -0.4,-0.3 -0.5,-0.4 -0.9,-0.5 -0.4,-0.1 -0.8,-0.2 -1.3,-0.2 -2.1,0 -3.8,1.8 -3.8,4.1 0,1.7 1.1,2.8 3,2.8 0.3,0 0.7,0 1,-0.1 0.4,-0.1 0.7,-0.2 1.2,-0.4 l 0.4,1.5 c -0.7,0.3 -1,0.5 -1.6,0.6 -0.5,0.1 -1,0.1 -1.5,0.1 -2.8,0 -4.5,-1.6 -4.5,-4.3 0,-0.9 0.2,-1.8 0.6,-2.6 0.4,-0.7 0.9,-1.4 1.5,-1.9 1.1,-0.9 2.3,-1.3 3.8,-1.3 0.8,0 1.4,0.1 2,0.3 0.4,0.1 0.6,0.3 1.1,0.6 l -1,1.3 z"
       id="path87"
       inkscape:connector-curvature="0"
       style="fill:#919195" /><path
       class="st0"
       d="m 242.1,491.9 -0.4,-2.4 -3.3,0 -1.2,2.4 -2,0 5.1,-9.8 1.7,0 2,9.8 -1.9,0 z m -1.3,-7.6 -1.7,3.5 2.3,0 -0.6,-3.5 z"
       id="path89"
       inkscape:connector-curvature="0"
       style="fill:#919195" /><path
       class="st0"
       d="m 252.9,483.7 -2.9,0 -1.3,8.2 -1.9,0 1.3,-8.2 -2.9,0 0.2,-1.6 7.7,0 -0.2,1.6 z"
       id="path91"
       inkscape:connector-curvature="0"
       style="fill:#919195" /><path
       class="st0"
       d="m 261.1,483.7 -4.1,0 -0.4,2.4 3.3,0 -0.2,1.6 -3.4,0 -0.4,2.6 4.2,0 -0.2,1.6 -6.1,0 1.5,-9.8 6,0 -0.2,1.6 z"
       id="path93"
       inkscape:connector-curvature="0"
       style="fill:#919195" /><path
       class="st0"
       d="m 266.5,489.2 c -1,0 -1.7,-0.8 -1.7,-1.7 0,-0.9 0.8,-1.7 1.7,-1.7 1,0 1.7,0.8 1.7,1.7 0,0.9 -0.7,1.7 -1.7,1.7 z"
       id="path95"
       inkscape:connector-curvature="0"
       style="fill:#919195" /><path
       class="st0"
       d="m 274.7,491.9 -1.9,0 1.5,-9.8 1.9,0 -1.5,9.8 z"
       id="path97"
       inkscape:connector-curvature="0"
       style="fill:#919195" /><path
       class="st0"
       d="m 286.6,491.9 -2,0 -2.9,-5.7 c -0.1,-0.2 -0.2,-0.5 -0.3,-0.7 -0.2,-0.5 -0.2,-0.7 -0.3,-1.4 l -0.2,1.8 -0.9,6.1 -1.8,0 1.5,-9.8 2.1,0 2.9,6.1 c 0.1,0.2 0.2,0.4 0.3,0.6 0.1,0.4 0.1,0.5 0.2,1 l 0.2,-2.1 0.9,-5.7 1.8,0 -1.5,9.8 z"
       id="path99"
       inkscape:connector-curvature="0"
       style="fill:#919195" /><path
       class="st0"
       d="m 298.6,491.9 -2,0 -2.9,-5.7 c -0.1,-0.2 -0.2,-0.5 -0.3,-0.7 -0.2,-0.5 -0.2,-0.7 -0.3,-1.4 l -0.2,1.8 -0.9,6.1 -1.8,0 1.5,-9.8 2.1,0 2.9,6.1 c 0.1,0.2 0.2,0.4 0.3,0.6 0.1,0.4 0.1,0.5 0.2,1 l 0.2,-2.1 0.9,-5.7 1.8,0 -1.5,9.8 z"
       id="path101"
       inkscape:connector-curvature="0"
       style="fill:#919195" /><path
       class="st0"
       d="m 306.5,492 c -2.7,0 -4.5,-1.7 -4.5,-4.3 0,-0.3 0,-0.5 0.1,-0.8 0.5,-3 2.8,-5.1 5.9,-5.1 2.8,0 4.5,1.6 4.5,4.3 0,3.3 -2.7,5.9 -6,5.9 z m 1.3,-8.5 c -2.1,0 -3.9,1.9 -3.9,4.3 0,1.6 1.1,2.7 2.6,2.7 2.1,0 3.9,-1.9 3.9,-4.3 0.1,-1.6 -1,-2.7 -2.6,-2.7 z"
       id="path103"
       inkscape:connector-curvature="0"
       style="fill:#919195" /><path
       class="st0"
       d="m 317.9,491.9 -1.5,0 -2,-9.8 2,0 1.2,6.6 c 0,0 0,0.1 0,0.1 0,0.1 0,0.1 0,0.2 l 0,0 0,0.1 c 0,-0.2 0,-0.3 0.1,-0.4 l 0.1,-0.1 3.2,-6.6 2,0 -5.1,9.9 z"
       id="path105"
       inkscape:connector-curvature="0"
       style="fill:#919195" /><path
       class="st0"
       d="m 328.3,491.9 -0.4,-2.4 -3.3,0 -1.2,2.4 -2,0 5.1,-9.8 1.7,0 2,9.8 -1.9,0 z m -1.2,-7.6 -1.7,3.5 2.3,0 -0.6,-3.5 z"
       id="path107"
       inkscape:connector-curvature="0"
       style="fill:#919195" /><path
       class="st0"
       d="m 339.1,483.7 -2.9,0 -1.3,8.2 -1.9,0 1.3,-8.2 -2.9,0 0.2,-1.6 7.7,0 -0.2,1.6 z"
       id="path109"
       inkscape:connector-curvature="0"
       style="fill:#919195" /><path
       class="st0"
       d="m 347.3,483.7 -4.1,0 -0.4,2.4 3.3,0 -0.2,1.6 -3.4,0 -0.4,2.6 4.2,0 -0.2,1.6 -6.1,0 1.5,-9.8 6,0 -0.2,1.6 z"
       id="path111"
       inkscape:connector-curvature="0"
       style="fill:#919195" /><path
       class="st0"
       d="m 352.7,489.2 c -1,0 -1.7,-0.8 -1.7,-1.7 0,-0.9 0.8,-1.7 1.7,-1.7 0.9,0 1.7,0.8 1.7,1.7 0,0.9 -0.7,1.7 -1.7,1.7 z"
       id="path113"
       inkscape:connector-curvature="0"
       style="fill:#919195" /><path
       class="st0"
       d="m 361,491.9 -1.9,0 1.5,-9.8 1.9,0 -1.5,9.8 z"
       id="path115"
       inkscape:connector-curvature="0"
       style="fill:#919195" /><path
       class="st0"
       d="m 372.9,491.9 -2,0 -2.9,-5.7 c -0.1,-0.2 -0.2,-0.5 -0.3,-0.7 -0.2,-0.5 -0.2,-0.7 -0.3,-1.4 l -0.2,1.8 -0.9,6.1 -1.8,0 1.5,-9.8 2.1,0 2.9,6.1 c 0.1,0.2 0.2,0.4 0.3,0.6 0.1,0.4 0.1,0.5 0.2,1 l 0.2,-2.1 0.9,-5.7 1.8,0 -1.5,9.8 z"
       id="path117"
       inkscape:connector-curvature="0"
       style="fill:#919195" /><path
       class="st0"
       d="m 383,484.2 c -0.6,-0.3 -0.8,-0.3 -1.2,-0.5 -0.4,-0.1 -0.8,-0.2 -1.2,-0.2 -0.9,0 -1.6,0.5 -1.6,1.2 0,0.3 0.2,0.7 0.7,0.9 l 1.5,0.9 c 1.2,0.8 1.6,1.4 1.6,2.3 0,1.9 -1.5,3.1 -3.7,3.1 -0.6,0 -1.4,-0.1 -2,-0.3 -0.4,-0.1 -0.7,-0.2 -1.3,-0.4 l 0.7,-1.7 c 0.6,0.3 0.9,0.4 1.4,0.6 0.5,0.1 1,0.2 1.3,0.2 0.9,0 1.7,-0.7 1.7,-1.3 0,-0.1 0,-0.3 -0.1,-0.4 -0.1,-0.2 -0.3,-0.4 -0.5,-0.5 -0.2,-0.1 -0.7,-0.4 -1.4,-0.9 -1.4,-0.9 -1.9,-1.5 -1.9,-2.4 0,-1.7 1.6,-3 3.7,-3 0.4,0 0.9,0 1.3,0.1 0.7,0.1 1,0.2 1.7,0.4 l -0.7,1.9 z"
       id="path119"
       inkscape:connector-curvature="0"
       style="fill:#919195" /><path
       class="st0"
       d="m 388.7,488.6 c -0.5,0 -0.9,0 -1.3,-0.1 l -0.5,3.4 -1.9,0 1.5,-9.8 3.4,0 c 1.9,0 3,1 3,2.7 0,2.3 -1.6,3.8 -4.2,3.8 z m 0.8,-4.9 -1.3,0 -0.5,3.3 0.2,0 c 0.3,0 0.5,0 0.7,0 0.9,0 1.3,-0.1 1.7,-0.5 0.4,-0.3 0.6,-0.9 0.6,-1.6 0,-0.8 -0.5,-1.2 -1.4,-1.2 z"
       id="path121"
       inkscape:connector-curvature="0"
       style="fill:#919195" /><path
       class="st0"
       d="m 395.8,491.9 -1.9,0 1.5,-9.8 1.9,0 -1.5,9.8 z"
       id="path123"
       inkscape:connector-curvature="0"
       style="fill:#919195" /><path
       class="st0"
       d="m 406.2,486.8 c -0.4,0.5 -0.8,0.7 -1.7,0.9 l 1.9,4.2 -2.1,0 -1.6,-3.9 -0.9,0 -0.6,3.9 -1.9,0 1.5,-9.8 3.3,0 c 2.1,0 3.1,0.8 3.1,2.4 -0.2,0.9 -0.5,1.7 -1,2.3 z m -1.5,-2.9 c -0.3,-0.3 -0.5,-0.3 -1.2,-0.3 l -1.2,0 -0.4,2.8 1.2,0 c 1.2,0 1.9,-0.6 1.9,-1.6 0,-0.4 -0.1,-0.7 -0.3,-0.9 z"
       id="path125"
       inkscape:connector-curvature="0"
       style="fill:#919195" /><path
       class="st0"
       d="m 415.8,483.7 -4.1,0 -0.4,2.4 3.3,0 -0.2,1.6 -3.4,0 -0.4,2.6 4.2,0 -0.2,1.6 -6.1,0 1.5,-9.8 6,0 -0.2,1.6 z"
       id="path127"
       inkscape:connector-curvature="0"
       style="fill:#919195" /></g><g
     id="g129"
     transform="translate(-158.9,-242.3)"><g
       id="g131"><path
         class="st2"
         d="m 201.5,465.6 c -1,0 -2,-0.1 -3,-0.3 -1.5,-0.3 -2.3,-0.5 -4.2,-1.3 l 1.6,-4.3 c 2.2,1.1 3.4,1.4 4.9,1.4 2.7,0 4.8,-2.1 4.8,-4.9 0,-3.9 -2.5,-5.3 -9.4,-5.3 l -0.3,0 0,-13.9 14.1,0 0,4.2 -9,0 0,5.6 c 2.1,0 3,0.2 4.4,0.6 3.6,1.2 5.6,4.1 5.6,8.1 0,5.8 -4.1,10.1 -9.5,10.1 z"
         id="path133"
         inkscape:connector-curvature="0"
         style="fill:#0084a9" /><path
         class="st2"
         d="m 227.8,465.7 c -5.6,0 -9.7,-6.2 -9.7,-14.8 0,-8.6 4.1,-14.8 9.7,-14.8 5.6,0 9.7,6.2 9.7,14.8 0,8.6 -4,14.8 -9.7,14.8 z m 0,-24.8 c -2.3,0 -4.2,4.5 -4.2,10 0,5.6 1.9,10.1 4.2,10.1 2.3,0 4.2,-4.5 4.2,-10.1 0,-5.6 -1.8,-10 -4.2,-10 z"
         id="path135"
         inkscape:connector-curvature="0"
         style="fill:#0084a9" /></g><g
       id="g137"><path
         class="st2"
         d="m 258.4,467 -1.1,-3.6 -4.9,0 -1.2,3.6 -2.9,0 5.3,-14.6 2.5,0 5.3,14.6 -3,0 z m -3.6,-11.2 -1.7,5.3 3.4,0 -1.7,-5.3 z"
         id="path139"
         inkscape:connector-curvature="0"
         style="fill:#0084a9" /><path
         class="st2"
         d="m 275.9,467.1 -6.2,-9.4 c 0,-0.1 -0.1,-0.3 -0.3,-0.6 -0.1,-0.2 -0.2,-0.3 -0.2,-0.3 -0.1,-0.2 -0.1,-0.3 -0.2,-0.5 l 0,10.7 -2.6,0 0,-14.6 3.2,0 6.1,9.6 c 0,0 0.1,0.2 0.2,0.3 0.1,0.2 0.1,0.2 0.1,0.3 l 0.1,0.4 0.1,0.3 0,-10.8 2.6,0 0,14.7 -2.9,0 z"
         id="path141"
         inkscape:connector-curvature="0"
         style="fill:#0084a9" /><path
         class="st2"
         d="m 295.5,467.1 -6.2,-9.4 c 0,-0.1 -0.1,-0.3 -0.3,-0.6 -0.1,-0.2 -0.2,-0.3 -0.2,-0.3 -0.1,-0.2 -0.1,-0.3 -0.2,-0.5 l 0,10.7 -2.6,0 0,-14.6 3.2,0 6.1,9.6 c 0,0 0.1,0.2 0.2,0.3 0.1,0.2 0.1,0.2 0.1,0.3 l 0.1,0.4 0.1,0.3 0,-10.8 2.6,0 0,14.7 -2.9,0 z"
         id="path143"
         inkscape:connector-curvature="0"
         style="fill:#0084a9" /><path
         class="st2"
         d="m 305.4,467 0,-14.6 2.8,0 0,14.6 -2.8,0 z"
         id="path145"
         inkscape:connector-curvature="0"
         style="fill:#0084a9" /><path
         class="st2"
         d="m 320.3,467.4 -1.9,0 -5.4,-15 3,0 3.3,9.8 0,0.2 0,0.2 0.1,0.3 0,-0.2 c 0,-0.2 0,-0.3 0.1,-0.4 l 0.1,-0.2 3.2,-9.8 2.9,0 -5.4,15.1 z"
         id="path147"
         inkscape:connector-curvature="0"
         style="fill:#0084a9" /><path
         class="st2"
         d="m 330.6,467 0,-14.6 8.9,0 0,2.4 -6.1,0 0,3.6 5,0 0,2.4 -5,0 0,3.9 6.4,0 0,2.4 -9.2,0 z"
         id="path149"
         inkscape:connector-curvature="0"
         style="fill:#0084a9" /><path
         class="st2"
         d="m 352.9,467 -3.3,-5.8 -1.4,0 0,5.8 -2.8,0 0,-14.6 4.9,0 c 2.1,0 3.1,0.3 3.9,1.1 0.8,0.7 1.2,1.8 1.2,3.2 0,1.1 -0.3,2 -0.8,2.7 -0.6,0.7 -1.1,1 -2.3,1.3 l 3.6,6.2 -3,0 z m -2.9,-12.2 -1.8,0 0,4 1.8,0 c 1.8,0 2.5,-0.6 2.5,-2.1 0,-1.4 -0.7,-1.9 -2.5,-1.9 z"
         id="path151"
         inkscape:connector-curvature="0"
         style="fill:#0084a9" /><path
         class="st2"
         d="m 369.2,455.9 c -1.5,-0.7 -2.8,-1 -3.8,-1 -1.3,0 -2.1,0.5 -2.1,1.3 0,0.6 0.4,1 1.4,1.5 2.2,1.2 3.7,2.1 4.4,2.8 0.6,0.6 1,1.6 1,2.6 0,2.6 -1.9,4.1 -5.1,4.1 -2.1,0 -3.4,-0.6 -5.3,-1.5 l 1.2,-2.6 c 1.3,0.7 2.6,1.4 4.2,1.4 1.3,0 2.1,-0.6 2.1,-1.5 0,-0.6 -0.3,-1 -1.3,-1.6 l -2.3,-1.3 c -2.6,-1.5 -3.4,-2.4 -3.4,-4 0,-3 2.8,-4.1 5.3,-4.1 1.9,0 3.2,0.4 4.8,1.2 l -1.1,2.7 z"
         id="path153"
         inkscape:connector-curvature="0"
         style="fill:#0084a9" /><path
         class="st2"
         d="m 384,467 -1.1,-3.6 -4.9,0 -1.2,3.6 -2.9,0 5.3,-14.6 2.5,0 5.3,14.6 -3,0 z m -3.6,-11.2 -1.7,5.3 3.4,0 -1.7,-5.3 z"
         id="path155"
         inkscape:connector-curvature="0"
         style="fill:#0084a9" /><path
         class="st2"
         d="m 399.3,467 -3.3,-5.8 -1.4,0 0,5.8 -2.8,0 0,-14.6 4.9,0 c 2.1,0 3.1,0.3 3.9,1.1 0.8,0.7 1.2,1.8 1.2,3.2 0,1.1 -0.3,2 -0.8,2.7 -0.6,0.7 -1.1,1 -2.3,1.3 l 3.6,6.2 -3,0 z m -2.9,-12.2 -1.8,0 0,4 1.8,0 c 1.8,0 2.5,-0.6 2.5,-2.1 0,-1.4 -0.7,-1.9 -2.5,-1.9 z"
         id="path157"
         inkscape:connector-curvature="0"
         style="fill:#0084a9" /><path
         class="st2"
         d="m 412.8,460.8 0,6.2 -2.8,0 0,-6.2 -4.4,-8.3 3,0 2.9,5.7 3.1,-5.7 3,0 -4.8,8.3 z"
         id="path159"
         inkscape:connector-curvature="0"
         style="fill:#0084a9" /></g><g
       id="g161"><path
         class="st2"
         d="m 244.9,437.1 0,6.6 -1.5,0 0,-6.6 -2.4,0 0,-1.3 6.2,0 0,1.3 -2.3,0 z"
         id="path163"
         inkscape:connector-curvature="0"
         style="fill:#0084a9" /><path
         class="st2"
         d="m 255.5,443.6 0,-3.4 -4,0 0,3.4 -1.5,0 0,-7.9 1.5,0 0,3.1 4,0 0,-3.1 1.5,0 0,7.9 -1.5,0 z"
         id="path165"
         inkscape:connector-curvature="0"
         style="fill:#0084a9" /></g></g></svg>