<?xml version="1.0" encoding="UTF-8" standalone="no"?>
<!-- Generator: Adobe Illustrator 19.0.0, SVG Export Plug-In . SVG Version: 6.00 Build 0)  -->

<svg
   xmlns:dc="http://purl.org/dc/elements/1.1/"
   xmlns:cc="http://creativecommons.org/ns#"
   xmlns:rdf="http://www.w3.org/1999/02/22-rdf-syntax-ns#"
   xmlns:svg="http://www.w3.org/2000/svg"
   xmlns="http://www.w3.org/2000/svg"
   xmlns:sodipodi="http://sodipodi.sourceforge.net/DTD/sodipodi-0.dtd"
   xmlns:inkscape="http://www.inkscape.org/namespaces/inkscape"
   version="1.1"
   id="Layer_1"
   x="0px"
   y="0px"
   viewBox="0 0 368.62052 111.4"
   xml:space="preserve"
   inkscape:version="0.91 r"
   sodipodi:docname="SharkNinja_Corporate.svg"
   width="4.0957837in"
   height="1.2377778in"><metadata
     id="metadata55"><rdf:RDF><cc:Work
         rdf:about=""><dc:format>image/svg+xml</dc:format><dc:type
           rdf:resource="http://purl.org/dc/dcmitype/StillImage" /><dc:title></dc:title></cc:Work></rdf:RDF></metadata><defs
     id="defs53" /><sodipodi:namedview
     pagecolor="#ffffff"
     bordercolor="#666666"
     borderopacity="1"
     objecttolerance="10"
     gridtolerance="10"
     guidetolerance="10"
     inkscape:pageopacity="0"
     inkscape:pageshadow="2"
     inkscape:window-width="1920"
     inkscape:window-height="1026"
     id="namedview51"
     showgrid="false"
     inkscape:zoom="2.0926377"
     inkscape:cx="185.43241"
     inkscape:cy="61"
     inkscape:window-x="0"
     inkscape:window-y="0"
     inkscape:window-maximized="1"
     inkscape:current-layer="Layer_1"
     fit-margin-top="0.2"
     fit-margin-left="0.2"
     fit-margin-right="0.2"
     fit-margin-bottom="0.2"
     units="in" /><rect
     x="196.12054"
     y="18"
     width="2"
     height="75.400002"
     id="rect3" /><g
     id="g5"
     transform="translate(-127.27945,-345.60001)"><g
       id="g7"><path
         d="m 424.8,436.6 10.4,-7 0.2,-0.6 c 0.1,-0.4 3.3,-9.1 3.3,-21.4 l 0,-23.5 -0.9,-1 0,24.5 c 0,12.1 -3.1,20.8 -3.3,21.1 l -0.1,0.3 -10.9,7.3 1.3,0.3 z"
         id="path9"
         inkscape:connector-curvature="0" /></g><polygon
       points="346.4,397.6 345.5,396.3 345.5,425.6 336.6,427.2 337.4,428 346.4,426.3 "
       id="polygon11" /><polygon
       points="365.4,422.3 366,423.2 372.5,422.5 372.5,378.8 371.5,378.1 371.5,421.7 "
       id="polygon13" /><polygon
       points="387.6,380.2 386.7,379.4 386.7,419.7 379.1,420.6 379.9,421.5 387.6,420.6 "
       id="polygon15" /><polygon
       points="424.2,383.6 423.3,382.5 423.3,416.9 416.7,417.3 417.5,418.2 424.2,417.8 "
       id="polygon17" /><polygon
       points="393.5,419.2 394.3,420 402.6,419.1 402.6,399.5 401.7,397.9 401.7,418.3 "
       id="polygon19" /><polygon
       points="458.4,393.8 455.2,401.9 456.2,401.9 458.7,395.2 "
       id="polygon21" /><polygon
       points="441,416.1 441.3,417.1 451,416.7 453.4,410.1 452.4,410.1 450.3,415.7 "
       id="polygon23" /><polygon
       points="467.3,415.1 467.8,416 477.9,416 465.1,384.7 463.8,383.9 476.5,415.1 "
       id="polygon25" /><polygon
       points="335.9,372.1 342.8,373.4 362.4,402.6 362.4,376.4 370.5,377.5 370.5,420.8 364.9,421.4 344.6,393.4 344.6,424.7 335.9,426.3 "
       id="polygon27" /><polygon
       points="378.8,378.5 378.8,419.7 385.7,418.8 385.7,379.3 "
       id="polygon29" /><polygon
       points="400.8,395.1 416.5,416.3 422.3,416 422.3,382.4 415,381.8 415,402.1 399,380.6 393.6,380.2 393.6,418.2 400.8,417.4 "
       id="polygon31" /><path
       d="m 462.8,402.8 -8.9,0 4.5,-11.5 4.4,11.5 z m -8.7,-19 -13,31.4 8.6,-0.4 2.1,-5.7 13.1,0 2,5 8.1,0 -12.2,-30.1 -8.7,-0.2 z"
       id="path33"
       inkscape:connector-curvature="0" /><g
       id="g35"><path
         d="m 433.6,428.3 c 0,0 3.2,-8.7 3.2,-20.7 l 0,-24.6 -7.7,-0.4 0,24.9 c 0,16.8 -6.1,27.8 -6.1,27.8 l 10.6,-7 z"
         id="path37"
         inkscape:connector-curvature="0" /></g></g><g
     id="g39"
     transform="translate(-127.27945,-345.60001)"><path
       d="m 184.4,391.8 c 0.2,-10.4 -7.9,-13.8 -16.9,-13.8 -8.5,0 -17.8,4.4 -17.8,13.9 0,7 5,9.7 10.1,11.5 5.9,1.9 10.2,2.4 10.2,5.4 0,2.8 -3.1,4.1 -5.7,4.1 -2.1,0 -3.7,-0.1 -4.8,-1.1 -1.1,-1.1 -1.6,-2.5 -1.6,-4.8 l -12.6,0 c -0.5,10.7 8.2,15.2 17.9,15.2 9.2,0 19.1,-4.8 19.1,-14.9 0,-5 -2.5,-9 -9.8,-11.6 -4.1,-1.5 -10.5,-1.7 -10.5,-4.8 0,-2.8 2.8,-3.4 5,-3.4 1.5,0 2.8,0.2 3.8,0.9 0.9,0.7 1.5,1.8 1.5,3.5 l 12.1,0 z"
       id="path41"
       inkscape:connector-curvature="0" /><path
       d="m 181.6,421.2 11.7,0 3.4,-16.2 c 0.7,-3.2 2,-5.8 5.7,-5.8 1.9,0 3.3,1 3.3,3 0,1.2 -0.6,3.3 -0.9,5.1 l -3,14.1 11.7,0 3.7,-17.3 c 0.5,-2.2 0.8,-4.5 0.8,-5.8 0,-6 -4.6,-8.3 -10,-8.3 -3.3,0 -7,1.7 -9.1,4.7 l -0.1,0 3.2,-15.7 -11.7,0 -8.7,42.2 z"
       id="path43"
       inkscape:connector-curvature="0" /><path
       d="m 232.8,399.8 c 0.7,-2.3 2.3,-3.1 4.7,-3.1 1.8,0 3.7,0.5 3.7,2.7 0,3.8 -5.3,3.3 -8.6,3.5 -8.8,0.7 -14.9,2.8 -14.9,10.9 0,5.8 4.7,8.1 9.9,8.1 3.4,0 7.4,-1.2 9.5,-3.7 l 0.1,0 c -0.1,1 0.1,2 0.4,3 l 11.5,0 c -0.3,-0.7 -0.5,-1.6 -0.5,-2.7 0,-2 3.7,-15.8 3.7,-20.5 0,-7.4 -9.4,-8.1 -14.9,-8.1 -7.5,0 -13.9,1.9 -15.7,10 l 11.1,0 z m -3.3,12.6 c 0,-2.2 1.8,-3.2 3.8,-3.4 2.1,-0.2 4.3,-0.4 6.2,-1.4 -0.7,4.5 -2.3,7.4 -6.3,7.4 -1.9,0.1 -3.7,-0.5 -3.7,-2.6"
       id="path45"
       inkscape:connector-curvature="0" /><path
       d="m 252.1,421.2 11.7,0 2.7,-12.8 c 1.4,-6.4 3.8,-8.6 8.8,-8.6 1.5,0 3.1,0.2 4.5,0.8 l 2.2,-10.3 c -1.1,-0.4 -2.2,-0.5 -4.1,-0.5 -3,0 -6.9,2.3 -8.9,5.5 l -0.1,0 1,-4.8 -11.4,0 -6.4,30.7 z"
       id="path47"
       inkscape:connector-curvature="0" /><polygon
       points="277.2,421.2 288.9,421.2 290.8,412.5 293.4,410.1 297.6,421.2 310.3,421.2 302.5,402.9 316.3,390.6 302.3,390.6 293.6,399.5 293.5,399.5 297.7,379 286,379 "
       id="polygon49" /></g></svg>